<?xml version="1.0" encoding="UTF-8"?>
<svg width="559px" height="507px" viewBox="0 0 559 507" version="1.1" xmlns="http://www.w3.org/2000/svg" xmlns:xlink="http://www.w3.org/1999/xlink">
    <title>distributed</title>
    <defs>
        <path d="M77.4,85.6 L8.2,85.6 C3.6,85.6 0,81.9 0,77.4 L0,8.2 C0,3.6 3.7,0 8.2,0 L77.4,0 C82,0 85.6,3.7 85.6,8.2 L85.6,77.4 C85.6,81.9 82,85.6 77.4,85.6 Z" id="path-1"></path>
        <filter x="-26.3%" y="-26.3%" width="152.6%" height="152.6%" filterUnits="objectBoundingBox" id="filter-2">
            <feOffset dx="0" dy="0" in="SourceAlpha" result="shadowOffsetOuter1"></feOffset>
            <feGaussianBlur stdDeviation="7.5" in="shadowOffsetOuter1" result="shadowBlurOuter1"></feGaussianBlur>
            <feColorMatrix values="0 0 0 0 0   0 0 0 0 0   0 0 0 0 0  0 0 0 0.15 0" type="matrix" in="shadowBlurOuter1"></feColorMatrix>
        </filter>
        <path d="M77.4,85.7 L8.2,85.7 C3.6,85.7 0,82 0,77.5 L0,8.2 C0,3.6 3.7,3.55271368e-15 8.2,3.55271368e-15 L77.4,3.55271368e-15 C82,3.55271368e-15 85.6,3.7 85.6,8.2 L85.6,77.4 C85.6,82 81.9,85.7 77.4,85.7 Z" id="path-3"></path>
        <filter x="-26.3%" y="-26.3%" width="152.6%" height="152.5%" filterUnits="objectBoundingBox" id="filter-4">
            <feOffset dx="0" dy="0" in="SourceAlpha" result="shadowOffsetOuter1"></feOffset>
            <feGaussianBlur stdDeviation="7.5" in="shadowOffsetOuter1" result="shadowBlurOuter1"></feGaussianBlur>
            <feColorMatrix values="0 0 0 0 0   0 0 0 0 0   0 0 0 0 0  0 0 0 0.15 0" type="matrix" in="shadowBlurOuter1"></feColorMatrix>
        </filter>
        <path d="M77.4,85.6 L8.2,85.6 C3.6,85.6 0,81.9 0,77.4 L0,8.2 C0,3.6 3.7,0 8.2,0 L77.4,0 C82,0 85.6,3.7 85.6,8.2 L85.6,77.4 C85.7,81.9 82,85.6 77.4,85.6 Z" id="path-5"></path>
        <filter x="-26.3%" y="-26.3%" width="152.6%" height="152.6%" filterUnits="objectBoundingBox" id="filter-6">
            <feOffset dx="0" dy="0" in="SourceAlpha" result="shadowOffsetOuter1"></feOffset>
            <feGaussianBlur stdDeviation="7.5" in="shadowOffsetOuter1" result="shadowBlurOuter1"></feGaussianBlur>
            <feColorMatrix values="0 0 0 0 0   0 0 0 0 0   0 0 0 0 0  0 0 0 0.15 0" type="matrix" in="shadowBlurOuter1"></feColorMatrix>
        </filter>
        <path d="M59.6,67.8 L8.2,67.8 C3.6,67.8 0,64.1 0,59.6 L0,8.2 C0,3.6 3.7,0 8.2,0 L59.6,0 C64.2,0 67.8,3.7 67.8,8.2 L67.8,59.6 C67.9,64.1 64.2,67.8 59.6,67.8 Z" id="path-7"></path>
        <filter x="-33.2%" y="-33.2%" width="166.4%" height="166.4%" filterUnits="objectBoundingBox" id="filter-8">
            <feOffset dx="0" dy="0" in="SourceAlpha" result="shadowOffsetOuter1"></feOffset>
            <feGaussianBlur stdDeviation="7.5" in="shadowOffsetOuter1" result="shadowBlurOuter1"></feGaussianBlur>
            <feColorMatrix values="0 0 0 0 0   0 0 0 0 0   0 0 0 0 0  0 0 0 0.15 0" type="matrix" in="shadowBlurOuter1"></feColorMatrix>
        </filter>
        <path d="M59.6,67.8 L8.2,67.8 C3.6,67.8 0,64.1 0,59.6 L0,8.2 C0,3.6 3.7,0 8.2,0 L59.6,0 C64.2,0 67.8,3.7 67.8,8.2 L67.8,59.6 C67.9,64.2 64.2,67.8 59.6,67.8 Z" id="path-9"></path>
        <filter x="-33.2%" y="-33.2%" width="166.4%" height="166.4%" filterUnits="objectBoundingBox" id="filter-10">
            <feOffset dx="0" dy="0" in="SourceAlpha" result="shadowOffsetOuter1"></feOffset>
            <feGaussianBlur stdDeviation="7.5" in="shadowOffsetOuter1" result="shadowBlurOuter1"></feGaussianBlur>
            <feColorMatrix values="0 0 0 0 0   0 0 0 0 0   0 0 0 0 0  0 0 0 0.15 0" type="matrix" in="shadowBlurOuter1"></feColorMatrix>
        </filter>
        <path d="M127.4,135.7 L8.2,135.7 C3.6,135.7 0,132 0,127.5 L0,8.2 C0,3.6 3.7,2.84217094e-14 8.2,2.84217094e-14 L127.5,2.84217094e-14 C132.1,2.84217094e-14 135.7,3.7 135.7,8.2 L135.7,127.5 C135.7,132 132,135.7 127.4,135.7 Z" id="path-11"></path>
        <filter x="-22.1%" y="-22.1%" width="144.2%" height="144.2%" filterUnits="objectBoundingBox" id="filter-12">
            <feOffset dx="0" dy="0" in="SourceAlpha" result="shadowOffsetOuter1"></feOffset>
            <feGaussianBlur stdDeviation="10" in="shadowOffsetOuter1" result="shadowBlurOuter1"></feGaussianBlur>
            <feColorMatrix values="0 0 0 0 0   0 0 0 0 0   0 0 0 0 0  0 0 0 0.15 0" type="matrix" in="shadowBlurOuter1"></feColorMatrix>
        </filter>
    </defs>
    <g id="Page-1" stroke="none" stroke-width="1" fill="none" fill-rule="evenodd">
        <g id="Artboard" transform="translate(-138.000000, -120.000000)">
            <g id="distributed" transform="translate(158.000000, 135.100000)">
                <path d="M69,239.9 C103.6,143.2 152.4,78.2 215.5,44.9 C278.6,11.6 352.7,11.6 438,44.9" id="Line" stroke="#209DDB" stroke-width="2" stroke-linecap="square" stroke-dasharray="8,14"></path>
                <path d="M69,239.9 C52.6,225.9 75.9,202.2 139,168.9 C202.1,135.6 256.4,123.7 302,133.4" id="Line_1_" stroke="#209DDB" stroke-width="2" stroke-linecap="square" stroke-dasharray="8,14"></path>
                <path d="M69,240.1 C52.6,254.1 75.9,277.8 139,311.1 C202.1,344.4 256.4,356.3 302,346.6" id="Line_2_" stroke="#209DDB" stroke-width="2" stroke-linecap="square" stroke-dasharray="8,14"></path>
                <path d="M69,238.9 C103.6,335.6 152.4,400.6 215.5,433.9 C278.6,467.2 352.7,467.2 438,433.9" id="Line_3_" stroke="#209DDB" stroke-width="2" stroke-linecap="square" stroke-dasharray="8,14"></path>
                <line x1="68.5" y1="239.4" x2="420" y2="239.9" id="Line_4_" stroke="#209DDB" stroke-width="2" stroke-linecap="square" stroke-dasharray="8,14"></line>
                <g id="Group" transform="translate(414.700000, 197.400000)" fill-rule="nonzero">
                    <g id="Path">
                        <use fill="black" fill-opacity="1" filter="url(#filter-2)" xlink:href="#path-1"></use>
                        <use fill="#FFFFFF" xlink:href="#path-1"></use>
                    </g>
                    <g id="Group_1_" transform="translate(21.600000, 21.500000)">
                        <path d="M21.2,0 C9.5,0 0,9.5 0,21.2 C0,32.9 9.5,42.4 21.2,42.4 C32.9,42.4 42.4,32.9 42.4,21.2 C42.4,9.5 32.9,0 21.2,0 Z" id="Path_2_" stroke="#209DDB" stroke-width="3" fill="#FFFFFF"></path>
                        <path d="M23,22 L23,12.8 C23,11.8 22.1,10.9 21.1,10.9 C20,10.9 19.2,11.7 19.2,12.8 L19.2,22.6 C19.2,22.6 19.2,22.7 19.2,22.7 C19.2,23.2 19.4,23.7 19.8,24.1 L26.9,31 C27.6,31.7 28.9,31.7 29.6,31 C30.3,30.3 30.3,29.1 29.6,28.4 L23,22 Z" id="Path_1_" fill="#209DDB"></path>
                    </g>
                </g>
                <g id="Group" transform="translate(436.100000, 0.000000)" fill-rule="nonzero">
                    <g id="Path">
                        <use fill="black" fill-opacity="1" filter="url(#filter-4)" xlink:href="#path-3"></use>
                        <use fill="#FFFFFF" xlink:href="#path-3"></use>
                    </g>
                    <g id="Group_2_" transform="translate(21.600000, 21.600000)">
                        <path d="M21.2,7.10542736e-15 C9.5,7.10542736e-15 0,9.5 0,21.2 C0,32.9 9.5,42.4 21.2,42.4 C32.9,42.4 42.4,32.9 42.4,21.2 C42.4,9.5 32.9,7.10542736e-15 21.2,7.10542736e-15 Z" id="Path_4_" stroke="#209DDB" stroke-width="3" fill="#FFFFFF"></path>
                        <path d="M23,22 L23,12.8 C23,11.8 22.1,10.9 21.1,10.9 C20,10.9 19.2,11.7 19.2,12.8 L19.2,22.6 C19.2,22.6 19.2,22.7 19.2,22.7 C19.2,23.2 19.4,23.7 19.8,24.1 L26.9,31 C27.6,31.7 28.9,31.7 29.6,31 C30.3,30.3 30.3,29.1 29.6,28.4 L23,22 Z" id="Path_3_" fill="#209DDB"></path>
                    </g>
                </g>
                <g id="Group" transform="translate(438.000000, 390.700000)" fill-rule="nonzero">
                    <g transform="translate(0.000000, -0.000000)" id="Path">
                        <use fill="black" fill-opacity="1" filter="url(#filter-6)" xlink:href="#path-5"></use>
                        <use fill="#FFFFFF" xlink:href="#path-5"></use>
                    </g>
                    <g id="Group_3_" transform="translate(21.600000, 21.500000)">
                        <path d="M21.2,0 C9.5,0 0,9.5 0,21.2 C0,32.9 9.5,42.4 21.2,42.4 C32.9,42.4 42.4,32.9 42.4,21.2 C42.5,9.5 32.9,0 21.2,0 Z" id="Path_6_" stroke="#209DDB" stroke-width="3" fill="#FFFFFF"></path>
                        <path d="M23,22 L23,12.8 C23,11.8 22.1,10.9 21.1,10.9 C20,10.9 19.2,11.7 19.2,12.8 L19.2,22.6 C19.2,22.6 19.2,22.7 19.2,22.7 C19.2,23.2 19.4,23.7 19.8,24.1 L26.9,31 C27.6,31.7 28.9,31.7 29.6,31 C30.3,30.3 30.3,29.1 29.6,28.4 L23,22 Z" id="Path_5_" fill="#209DDB"></path>
                    </g>
                </g>
                <g id="Group" transform="translate(302.000000, 311.100000)" fill-rule="nonzero">
                    <g id="Path">
                        <use fill="black" fill-opacity="1" filter="url(#filter-8)" xlink:href="#path-7"></use>
                        <use fill="#FFFFFF" xlink:href="#path-7"></use>
                    </g>
                    <g id="Group_6_" transform="translate(17.100000, 17.100000)">
                        <path d="M16.8,0 C7.5,0 0,7.5 0,16.8 C0,26.1 7.5,33.6 16.8,33.6 C26.1,33.6 33.6,26.1 33.6,16.8 C33.6,7.5 26.1,0 16.8,0 Z" id="Path_20_" stroke="#209DDB" stroke-width="3" fill="#FFFFFF"></path>
                        <path d="M18.2,17.4 L18.2,10.1 C18.2,9.3 17.5,8.6 16.7,8.6 C15.9,8.6 15.2,9.3 15.2,10.1 L15.2,17.8 C15.2,17.8 15.2,17.8 15.2,17.9 C15.2,18.3 15.3,18.7 15.6,19 L21.2,24.5 C21.8,25.1 22.8,25.1 23.3,24.5 C23.9,23.9 23.9,23 23.3,22.4 L18.2,17.4 Z" id="Path_7_" fill="#209DDB"></path>
                    </g>
                </g>
                <g id="Group" transform="translate(302.000000, 100.400000)" fill-rule="nonzero">
                    <g transform="translate(0.000000, 0.000000)" id="Path">
                        <use fill="black" fill-opacity="1" filter="url(#filter-10)" xlink:href="#path-9"></use>
                        <use fill="#FFFFFF" xlink:href="#path-9"></use>
                    </g>
                    <g id="Group_4_" transform="translate(17.100000, 17.100000)">
                        <path d="M16.8,0 C7.5,0 0,7.5 0,16.8 C0,26.1 7.5,33.6 16.8,33.6 C26.1,33.6 33.6,26.1 33.6,16.8 C33.6,7.5 26.1,0 16.8,0 Z" id="Path_9_" stroke="#209DDB" stroke-width="3" fill="#FFFFFF"></path>
                        <path d="M18.2,17.4 L18.2,10.1 C18.2,9.3 17.5,8.6 16.7,8.6 C15.9,8.6 15.2,9.3 15.2,10.1 L15.2,17.8 C15.2,17.8 15.2,17.8 15.2,17.9 C15.2,18.3 15.3,18.7 15.6,19 L21.2,24.5 C21.8,25.1 22.8,25.1 23.3,24.5 C23.9,23.9 23.9,23 23.3,22.4 L18.2,17.4 Z" id="Path_8_" fill="#209DDB"></path>
                    </g>
                </g>
                <g id="Group" transform="translate(0.000000, 171.300000)" fill-rule="nonzero">
                    <g id="Path">
                        <use fill="black" fill-opacity="1" filter="url(#filter-12)" xlink:href="#path-11"></use>
                        <use fill="#FFFFFF" xlink:href="#path-11"></use>
                    </g>
                    <g id="Group-2" transform="translate(27.300000, 27.300000)" fill="#209DDB">
                        <g id="Group" transform="translate(-0.000000, 0.000000)">
                            <path d="M40.5,11 C39.1,11 38,9.9 38,8.6 L38,2.4 C38,1.1 39.1,0 40.5,0 C41.9,0 43,1.1 43,2.4 L43,8.6 C43,10 41.9,11 40.5,11 Z" id="Path_10_"></path>
                            <path d="M62.6,21 C61.9,21 61.3,20.7 60.8,20.2 C59.8,19.2 59.8,17.5 60.8,16.5 L65.6,11.7 C66.6,10.7 68.3,10.7 69.3,11.7 C70.3,12.7 70.3,14.4 69.3,15.4 L64.5,20.3 C63.9,20.8 63.3,21 62.6,21 L62.6,21 Z" id="Path_11_"></path>
                            <path d="M78.6,43 L72.4,43 C71.1,43 70,41.9 70,40.5 C70,39.1 71.1,38 72.4,38 L78.6,38 C79.9,38 81,39.1 81,40.5 C81,41.9 79.9,43 78.6,43 Z" id="Path_12_"></path>
                            <path d="M67.4,70 C66.7,70 66.1,69.7 65.6,69.2 L60.8,64.4 C59.8,63.4 59.8,61.7 60.8,60.7 C61.8,59.7 63.5,59.7 64.5,60.7 L69.3,65.5 C70.3,66.5 70.3,68.2 69.3,69.2 C68.7,69.8 68.1,70 67.4,70 Z" id="Path_13_"></path>
                            <path d="M13.6,70 C12.9,70 12.3,69.7 11.8,69.2 C10.8,68.2 10.8,66.5 11.8,65.5 L16.6,60.7 C17.6,59.7 19.3,59.7 20.3,60.7 C21.3,61.7 21.3,63.4 20.3,64.4 L15.5,69.3 C14.9,69.8 14.3,70 13.6,70 L13.6,70 Z" id="Path_14_"></path>
                            <path d="M8.6,43 L2.4,43 C1.1,43 -3.55271368e-15,41.9 -3.55271368e-15,40.5 C-3.55271368e-15,39.1 1.1,38 2.4,38 L8.6,38 C9.9,38 11,39.1 11,40.5 C11,41.9 9.9,43 8.6,43 Z" id="Path_15_"></path>
                            <path d="M18.4,21 C17.7,21 17.1,20.7 16.6,20.2 L11.8,15.4 C10.8,14.4 10.8,12.7 11.8,11.7 C12.8,10.7 14.5,10.7 15.5,11.7 L20.3,16.5 C21.3,17.5 21.3,19.2 20.3,20.2 C19.7,20.8 19.1,21 18.4,21 L18.4,21 Z" id="Path_16_"></path>
                            <path d="M51,71 L51,75.2 C51,78.4 48.4,81 45.2,81 L36.9,81 C34.1,81 31.1,78.9 31.1,74.2 L31.1,71 L51,71 Z" id="Path_17_"></path>
                            <path d="M56.1,22.3 C50.5,17.8 43.1,16.1 35.8,17.6 C26.7,19.5 19.3,26.8 17.5,35.7 C15.6,44.9 19.1,54 26.6,59.6 C28.6,61.1 30,63.4 30.5,66.1 L30.5,66.1 C30.6,66.1 30.7,66.1 30.7,66.1 L51.3,66.1 C51.4,66.1 51.4,66.1 51.5,66.1 L51.5,66.1 C52,63.5 53.5,61.2 55.9,59.3 C61.7,54.8 65.1,48 65.1,40.7 C65,33.5 61.8,26.8 56.1,22.3 Z M53.9,42.4 C52.5,42.4 51.3,41.3 51.3,39.9 C51.3,34.8 47.1,30.6 41.9,30.6 C40.5,30.6 39.3,29.5 39.3,28.1 C39.3,26.7 40.5,25.6 41.9,25.6 C49.9,25.6 56.5,32.1 56.5,40 C56.4,41.2 55.3,42.4 53.9,42.4 Z" id="Shape"></path>
                            <path d="M29.9,66 L30.2,66 C30.1,66 30,66 29.9,66 L29.9,66 Z" id="Path_18_"></path>
                            <path d="M51.1,66 L51.1,66 C51,66 51,66 50.9,66 L51.1,66 Z" id="Path_19_"></path>
                        </g>
                    </g>
                </g>
            </g>
        </g>
    </g>
</svg>