<?xml version="1.0" encoding="UTF-8"?>
<svg width="481px" height="481px" viewBox="0 0 481 481" version="1.1" xmlns="http://www.w3.org/2000/svg" xmlns:xlink="http://www.w3.org/1999/xlink">
    <title>Group</title>
    <defs>
        <circle id="path-1" cx="240.5" cy="240.5" r="98.5"></circle>
        <filter x="-22.8%" y="-22.8%" width="145.7%" height="145.7%" filterUnits="objectBoundingBox" id="filter-2">
            <feOffset dx="0" dy="0" in="SourceAlpha" result="shadowOffsetOuter1"></feOffset>
            <feGaussianBlur stdDeviation="15" in="shadowOffsetOuter1" result="shadowBlurOuter1"></feGaussianBlur>
            <feColorMatrix values="0 0 0 0 0   0 0 0 0 0   0 0 0 0 0  0 0 0 0.2 0" type="matrix" in="shadowBlurOuter1"></feColorMatrix>
        </filter>
        <filter color-interpolation-filters="auto" id="filter-3">
            <feColorMatrix in="SourceGraphic" type="matrix" values="0 0 0 0 0.909804 0 0 0 0 0.196078 0 0 0 0 0.223529 0 0 0 1.000000 0"></feColorMatrix>
        </filter>
    </defs>
    <g id="Page-1" stroke="none" stroke-width="1" fill="none" fill-rule="evenodd">
        <g id="Artboard" transform="translate(-227.000000, -213.000000)">
            <g id="Group" transform="translate(227.000000, 213.000000)">
                <path d="M408.192993,336.200993 C391.862209,336.189386 376.017144,341.755198 363.280993,351.976993 L313.464993,302.160993 C327.12179,286.013793 335.036437,265.792475 335.968993,244.664993 L433.920993,241.000993 C438.178861,251.942936 449.703324,258.223057 461.206265,255.869781 C472.709207,253.516505 480.841399,243.21502 480.460012,231.480025 C480.078624,219.74503 471.294703,209.993318 459.663235,208.391911 C448.031766,206.790503 436.9394,213.805671 433.400993,225.000993 L335.432993,228.624993 C332.078587,200.75159 316.679201,175.747687 293.296993,160.208993 L316.400993,118.192993 C336.090525,124.329336 357.227419,114.554377 365.303195,95.577701 C373.37897,76.6010251 365.768133,54.5920882 347.694804,44.6579469 C329.621475,34.7238056 306.961426,40.0941214 295.268639,57.0826798 C283.575853,74.0712382 286.651739,97.1549352 302.384993,110.488993 L279.264993,152.528993 C245.626254,137.460961 206.322485,143.062891 178.232993,166.928993 L128.416993,117.104993 C152.303154,87.2155619 148.680776,43.8728415 120.164603,18.3629478 C91.6484309,-7.14694588 48.1714017,-5.93824188 21.1165799,21.1165799 C-5.93824188,48.1714017 -7.14694588,91.6484309 18.3629478,120.164603 C43.8728415,148.680776 87.2155619,152.303154 117.104993,128.416993 L166.920993,178.240993 C152.227136,195.539795 144.170318,217.503912 144.192993,240.200993 C144.216233,245.946531 144.751686,251.678557 145.792993,257.328993 L59.896993,280.456993 C51.8819667,266.651694 34.8705414,260.933144 20.1438398,267.093597 C5.41713828,273.254051 -2.45546625,289.382055 1.74674209,304.782327 C5.94895042,320.182599 20.9221183,330.076771 36.736793,327.903526 C52.5514677,325.730281 64.3007015,312.163929 64.192993,296.200993 C64.192993,296.088993 64.192993,295.992993 64.192993,295.880993 L150.016993,272.776993 C157.457574,293.32333 171.675959,310.721735 190.328993,322.104993 L166.232993,370.288993 C142.252563,362.863441 116.583248,375.057631 107.189447,398.337587 C97.7956464,421.617543 107.813215,448.211909 130.231464,459.508899 C152.649713,470.805888 179.984941,463.034321 193.106878,441.633045 C206.228816,420.231769 200.757074,392.344998 180.520993,377.488993 L204.616993,329.304993 C237.567224,342.551024 275.143531,336.455654 302.216993,313.472993 L352.032993,363.288993 C331.070911,389.554846 331.066417,426.828332 352.022166,453.099238 C372.977914,479.370144 409.319958,487.650763 439.588106,473.05134 C469.856253,458.451917 485.999585,424.855703 478.485369,392.10146 C470.971152,359.347216 441.798067,336.147132 408.192993,336.200993 L408.192993,336.200993 Z" id="Shape" fill="#E86D6D" fill-rule="nonzero"></path>
                <g id="Oval">
                    <use fill="black" fill-opacity="1" filter="url(#filter-2)" xlink:href="#path-1"></use>
                    <use fill="#FFFFFF" fill-rule="evenodd" xlink:href="#path-1"></use>
                </g>
                <g filter="url(#filter-3)" id="digitalhotel_2">
                    <g transform="translate(201.000000, 202.000000)">
                        <path d="M0.0087799696,38.3300051 C0.0087799696,30.0880409 -0.0215019664,21.8460766 0.0304099239,13.6041124 C0.0407979762,11.7331802 0.213041433,9.86667904 0.545202836,8.02560399 C1.38444506,3.41877976 3.79402197,1.08500252 8.40985423,0.469024144 C10.5012112,0.195767569 12.6081132,0.059558448 14.7171489,0.0612638076 C23.6113861,0.0222229244 32.5056233,-0.0688724697 41.3955345,0.0916289389 C50.8391726,0.260806099 59.7896476,2.43841981 67.8835765,7.52674826 C76.5788182,13.0054855 81.5753376,20.9871772 83.3057339,31.0467114 C84.6277438,38.2328224 84.0551201,45.6405562 81.6445534,52.5365487 C78.3178665,61.9237122 71.8548361,68.3828094 62.8957091,72.4604128 C57.5921126,74.8598047 51.909318,76.3060634 46.1065386,76.7332205 C43.8094374,76.9110734 41.4993583,76.9804794 39.1849532,76.9848173 C30.4464516,77.0050609 21.7079501,77.0050609 12.9694486,76.9848173 C10.5482148,77.0414266 8.13408088,76.6999989 5.8229117,75.9740922 C3.71021638,75.3208237 2.03945465,73.6890502 1.33253317,71.5884997 C0.424628821,68.9573893 -0.0146632894,66.1866508 0.0347359147,63.4029279 C0.0087799696,55.0481789 0.0087799696,46.689092 0.0087799696,38.3300051 Z M15.3876775,38.5165338 L15.3876775,38.5165338 C15.3876775,45.8301925 15.3876775,53.1438513 15.3876775,60.4575101 C15.3876775,62.3314725 15.8202766,62.7218813 17.6891046,62.7218813 C25.1168309,62.7218813 32.5488832,62.7218813 39.9766095,62.7218813 C44.8866092,62.7218813 49.7144149,62.140606 54.3172692,60.3143602 C60.3520265,57.9241906 64.803471,53.9203311 66.8626427,47.6043838 C68.2426338,43.4183335 68.4632593,39.1108228 67.9874003,34.7555953 C67.1524841,27.1252716 63.4667399,21.4166269 56.5754364,17.9029474 C52.0477506,15.6518651 47.0634914,14.47771 42.0098252,14.4716876 C33.8466805,14.3372134 25.6878617,14.3936058 17.524717,14.3762543 C17.2392016,14.3762543 16.9493602,14.4152952 16.6595188,14.4413225 C16.118109,14.4616458 15.6667516,14.8633488 15.5823471,15.399993 C15.4693199,16.0314755 15.4099848,16.6714432 15.4049814,17.3129963 C15.3934454,24.383734 15.3905614,31.4515798 15.3963295,38.5165338 L15.3876775,38.5165338 Z" id="Shape" fill="#E41C24" fill-rule="nonzero"></path>
                    </g>
                </g>
            </g>
        </g>
    </g>
</svg>