<svg xmlns="http://www.w3.org/2000/svg" viewBox="0 0 922.57 243.56"><defs><style>.cls-1{fill:#e41c24;}.cls-2{fill:#010101;}.cls-3{fill:#020202;}.cls-4{fill:#e42129;}.cls-5{fill:#030303;}</style></defs><g id="Ebene_2" data-name="Ebene 2"><g id="Ebene_1-2" data-name="Ebene 1"><path class="cls-1" d="M0,121.38c0-19-.07-38,.05-57A74.57,74.57,0,0,1,1.24,51.52c1.94-10.62,7.51-16,18.18-17.42A112.14,112.14,0,0,1,34,33.16c20.56-.09,41.12-.3,61.67.07,21.83.39,42.52,5.41,61.23,17.14C177,63,188.55,81.4,192.55,104.59a96.72,96.72,0,0,1-3.84,49.54c-7.69,21.64-22.63,36.53-43.34,45.93a114.81,114.81,0,0,1-38.81,9.85c-5.31.41-10.65.57-16,.58q-30.3.07-60.6,0a51.27,51.27,0,0,1-16.52-2.33A15.9,15.9,0,0,1,3.06,198.05a54.73,54.73,0,0,1-3-18.87C0,159.92,0,140.65,0,121.38Zm35.55.43h0q0,25.29,0,50.58c0,4.32,1,5.22,5.32,5.22,17.17,0,34.35,0,51.52,0,11.35,0,22.51-1.34,33.15-5.55,13.95-5.51,24.24-14.74,29-29.3,3.19-9.65,3.7-19.58,2.6-29.62-1.93-17.59-10.45-30.75-26.38-38.85a76,76,0,0,0-33.67-7.91c-18.87-.31-37.73-.18-56.6-.22-.66,0-1.33.09-2,.15A2.62,2.62,0,0,0,36,68.52a26.12,26.12,0,0,0-.41,4.41Q35.55,97.38,35.57,121.81Z"/><path class="cls-2" d="M393.18,34.69a42.93,42.93,0,0,1,19,6.15c9.68,5.82,14.67,14.58,15.75,25.66a38.33,38.33,0,0,1-3.09,20.09c-4.43,9.6-12.29,15-22.08,18.12a48.31,48.31,0,0,1-14.22,2.21c-9.22,0-18.45,0-27.67,0a26,26,0,0,1-3.53-.23c-5.68-.76-7.74-2.85-8.43-8.57a44.75,44.75,0,0,1-.32-5q0-22.52,0-45a38.72,38.72,0,0,1,.23-4.44c.74-6.45,3.34-9,9.83-9.22,5.32-.18,10.66,0,16,0M363.08,70.58c0,6.76,0,13.53,0,20.29,0,2.25.35,2.56,2.59,2.56,7,0,14.05.1,21.07-.05a45.88,45.88,0,0,0,9.29-1c7.71-1.74,13.61-5.82,16.09-13.74a28,28,0,0,0,1-10.81c-.71-8.42-4.9-14.35-12.79-17.59a31.63,31.63,0,0,0-11.67-2.37c-7.53-.09-15.07-.06-22.61-.07-2.75,0-2.95.19-2.95,3Q363.07,60.67,363.08,70.58Z"/><path class="cls-3" d="M579.19,64.19a13.84,13.84,0,0,1,3.65,1.11,10.79,10.79,0,0,1,7.21,10c.8,11.76-4.3,20.44-14.25,26.43-9.09,5.48-19,7-29.43,6a45.53,45.53,0,0,1-20.62-6.91c-9.18-5.93-14-14.53-15.33-25.23a39.22,39.22,0,0,1,1.94-18.32,32,32,0,0,1,16.78-18.72c15.11-7.17,30.47-7.2,45.8-.69a37.5,37.5,0,0,1,7.19,4.64,7.1,7.1,0,0,1,3,5,6.6,6.6,0,0,1-8.3,7,15.13,15.13,0,0,1-4.51-2.17c-11.27-7.23-23.08-8.43-35.15-2.53-7.7,3.76-11.61,10.4-12,19C524.38,82.82,533,93,547,94.62c7,.81,14,.46,20.4-2.81,4.42-2.25,7.81-5.45,8.64-10.66.45-2.85-.17-3.76-3-4.17a22.47,22.47,0,0,0-3.07-.16c-6.2,0-12.41,0-18.61,0-.66,0-1.33,0-2-.06-3.73-.36-5.88-2.73-6-6.53s1.85-6.14,5.53-6.73a14.53,14.53,0,0,1,2.29-.18c3.84,0,7.69,0,11.54,0"/><path class="cls-2" d="M641.7,165.8h36.48a16.51,16.51,0,0,1,3.22.23c3.39.7,5.12,3.22,5,7.06a6,6,0,0,1-5.59,6.06,20.16,20.16,0,0,1-2.46.1H641.7v2.35c0,3.94,0,7.89,0,11.83,0,2.17.33,2.48,2.51,2.5,3.23,0,6.46,0,9.69,0h33.84a18.34,18.34,0,0,1,2.46.12c3.46.46,5.42,2.81,5.47,6.46s-1.86,6.18-5.35,6.73a9.76,9.76,0,0,1-1.53.12c-16.76,0-33.53,0-50.29-.07a28.37,28.37,0,0,1-5.9-.37,6.22,6.22,0,0,1-4.81-4.8,42,42,0,0,1-.65-8.3c-.11-15.27-.07-30.54,0-45.81a34.88,34.88,0,0,1,.45-5.5c.74-4.6,3-6.86,7.65-7.47a48.15,48.15,0,0,1,6.13-.37q23.29,0,46.6,0c.41,0,.82,0,1.23,0,4,.19,6.4,2.57,6.49,6.49.11,4.12-2,6.59-6.11,7-.71.07-1.43.05-2.15.05H644.34c-2.39,0-2.63.23-2.63,2.64C641.7,157.13,641.7,161.37,641.7,165.8Z"/><path class="cls-3" d="M482.73,210.5c-11.19-.14-20.23-2.12-28.35-7.39-8.28-5.39-13.08-13.1-14.78-22.75a39.55,39.55,0,0,1,2-21.74,32.78,32.78,0,0,1,18.64-18.75,52.17,52.17,0,0,1,41.4-.14c15.89,6.59,22.11,20.55,21.52,35-.47,11.61-4.95,21.22-14.7,28A42.23,42.23,0,0,1,491,209.56C487.75,210.1,484.42,210.31,482.73,210.5Zm-1.65-12.95c2-.18,4-.28,6-.56,8.94-1.31,19.35-7.26,21.09-20.21,1.7-12.66-5-23.28-17.26-26.82a36.64,36.64,0,0,0-15.38-.91c-9.68,1.36-20.62,7.79-21.58,21.73-.72,10.43,3.27,19.1,13.56,23.94A33.47,33.47,0,0,0,481.08,197.55Z"/><path class="cls-4" d="M268.33,243.56H257.4V0h10.93Z"/><path class="cls-2" d="M832.76,107.94c-2.88.06-5.08-1.87-6.66-4.65s-2.94-5.5-4.42-8.25c-.85-1.57-1.37-3.69-2.7-4.51s-3.38-.21-5.12-.21c-12.3,0-24.6,0-36.91,0a1.87,1.87,0,0,0-2,1.21c-1.67,3.33-3.38,6.65-5.17,9.93a23.78,23.78,0,0,1-2.81,4.19,7.39,7.39,0,0,1-9.26,1.31,6.41,6.41,0,0,1-2.54-8.56c1.92-4.23,4.16-8.32,6.33-12.44q11.24-21.3,22.55-42.56a36.47,36.47,0,0,1,3.59-5.7,12.6,12.6,0,0,1,19.25-.21,28.62,28.62,0,0,1,3.32,5q14.26,26.64,28.42,53.35a16,16,0,0,1,1.54,4C841.19,104.24,837.92,108.07,832.76,107.94ZM812.1,76.78,797.45,48.87,782.8,76.78Z"/><path class="cls-2" d="M406.75,179.34H363.08V181c0,7.28,0,14.55,0,21.83,0,5.41-3.64,8.39-9,7.41a6.45,6.45,0,0,1-5.52-6.09c-.05-.61,0-1.23,0-1.85V143.78a15.41,15.41,0,0,1,.11-2.45c.65-3.82,3.61-5.91,7.88-5.61,3.88.26,6.47,2.76,6.51,6.58.08,7.22,0,14.45,0,21.67v1.75h43.67v-1.57c0-7,0-13.94,0-20.91-.05-6.57,5.24-8.57,10.05-7.13a6.05,6.05,0,0,1,4.36,5.24,13.54,13.54,0,0,1,.12,2.3q0,29.43,0,58.87a12.68,12.68,0,0,1-.24,2.89c-.83,3.47-4.06,5.47-7.92,5s-6.31-3-6.34-7.14c0-7.33,0-14.66,0-22Z"/><path class="cls-2" d="M637.17,47.79V93.43c2.94,0,5.84,0,8.74,0a22.26,22.26,0,0,1,3.37.19c3.66.55,5.54,2.9,5.48,6.75-.06,3.68-2.07,6-5.65,6.48a16.64,16.64,0,0,1-2,.08H611.43c-3.92-.17-6.34-2.43-6.56-6.12-.24-4.13,1.76-6.81,5.84-7.2,3.15-.31,6.34-.14,9.52-.18.71,0,1.42,0,2.23,0V47.79c-2.88,0-5.74,0-8.6,0a27.58,27.58,0,0,1-3.52-.19c-3.58-.51-5.54-3-5.47-6.78.06-3.64,2.17-6.07,5.68-6.48a19.57,19.57,0,0,1,2.3-.1h34c.41,0,.82,0,1.23,0,5.41.23,8.33,4.93,6.14,9.89a5.53,5.53,0,0,1-4.92,3.43c-3.37.21-6.75.16-10.13.22Z"/><path class="cls-2" d="M477,93.43c2.13,0,4.17,0,6.21,0,1.59,0,3.19-.06,4.77,0,6.28.4,7.32,5.12,6.32,9.11-.62,2.47-2.84,4.1-5.75,4.31-1.28.09-2.56,0-3.84,0H452.86c-.56,0-1.12,0-1.69,0-4-.18-6.29-2.47-6.47-6.35s1.81-6.52,5.76-7c2.54-.28,5.12-.14,7.68-.18,1.37,0,2.74,0,4.16,0V47.79h-1.63c-3.53-.07-7.08.06-10.59-.25s-5.37-2.85-5.39-6.51,2-6.17,5.46-6.67a16,16,0,0,1,2.3-.12H486.9l1.23,0c4,.23,6.37,2.58,6.49,6.51s-2,6.54-6.06,6.87c-3.16.25-6.35.11-9.53.15h-2Z"/><path class="cls-2" d="M566.35,150.24H543.72c-.72,0-1.44,0-2.16,0-5.07-.13-7.8-3.56-6.81-8.52a6.11,6.11,0,0,1,5.72-5,19.31,19.31,0,0,1,2.15-.07h63.21c5.49.18,8.52,5.2,6.06,10.14-1.34,2.69-3.83,3.38-6.58,3.39-7.59,0-15.17,0-22.76,0h-1.7V152q0,25.44,0,50.88c0,5.63-4.07,8.74-9.54,7.35a6.49,6.49,0,0,1-4.9-5.84,19.23,19.23,0,0,1-.06-2.15V150.24Z"/><path class="cls-2" d="M699,47.79H675.64c-.66,0-1.33,0-2-.06-4.81-.46-7.2-3.67-6.3-8.41a6,6,0,0,1,5.35-5,16.62,16.62,0,0,1,2.45-.12h63.19c5.1.18,7.85,3.78,6.67,8.74a5.78,5.78,0,0,1-5,4.57,17.38,17.38,0,0,1-3.06.23c-7.22,0-14.45,0-21.67,0h-1.81v1.77q0,25.13,0,50.25a15.06,15.06,0,0,1-.13,2.6c-.64,3.62-3.49,5.7-7.49,5.54s-6.47-2.46-6.83-6.14c-.07-.71,0-1.43,0-2.15V47.79Z"/><path class="cls-3" d="M714.41,170c0-9,0-17.93,0-26.9,0-3.86,1.91-6.46,5.18-7.22,5.41-1.25,9.42,1.87,9.42,7.43q0,24.6,0,49.19c0,3.41.06,3.46,3.4,3.46h40.3c.56,0,1.12,0,1.69,0,5.27.29,8.09,4.83,6,9.72a6,6,0,0,1-4.85,3.57,9.43,9.43,0,0,1-1.68.12c-15.84,0-31.68,0-47.52-.06a30.39,30.39,0,0,1-6.25-.44,6.78,6.78,0,0,1-5-5,43.86,43.86,0,0,1-.72-8.4C714.32,187,714.41,178.5,714.41,170Z"/><path class="cls-5" d="M856,68.31q0-13.76,0-27.52c0-3.86,1.63-6.36,4.72-7.25,4.35-1.25,9.93.48,9.91,7.26-.05,16.14,0,32.28,0,48.42,0,.67,0,1.34,0,2,.06,1.91.35,2.2,2.29,2.2H914.1a20.22,20.22,0,0,1,2.91.19c3.64.56,5.63,3,5.56,6.73a6.19,6.19,0,0,1-5.83,6.52,16.71,16.71,0,0,1-2,.07c-14.92,0-29.84,0-44.76,0a46.41,46.41,0,0,1-8.25-.49,6.84,6.84,0,0,1-5.17-5.12,45.12,45.12,0,0,1-.54-8.38C855.87,84.71,856,76.51,856,68.31Z"/></g></g></svg>