<svg xmlns="http://www.w3.org/2000/svg" viewBox="0 0 170.06 151.03"><defs><style>.cls-1,.cls-5{fill:#945f34;}.cls-2{fill:#8d2b25;}.cls-3{fill:#b0941f;}.cls-4{fill:#e30613;}.cls-5{isolation:isolate;font-size:12.92px;font-family:URWAntiqua-Med, URW Antiqua;}</style></defs><g id="Layer_2" data-name="Layer 2"><g id="Layer_1-2" data-name="Layer 1"><g id="Ebene_2" data-name="Ebene 2"><g id="Ebene_1-2" data-name="Ebene 1-2"><path class="cls-1" d="M121.6,0c2.45,0,.78,1.67.78,3,1-.11,1.78,1.67,1.67,2.22-.11.89-4,2.56-3.67,3.56-1.22-.33-1.44,2.67-1.44,2.78.11,1.11,2.44,1.44,2.44,1.78.56,0,3.89.44,2.45,1.89-.78.77-3.89-1.45-4.34.11-.55,2,10.23,23.45,10.89,23.22a35.44,35.44,0,0,0,2.89,5.78,65.58,65.58,0,0,0,2.67,7.89c0,5.89-7,.56-7-3.11a10.07,10.07,0,0,0-1.45-2.67c.23-.77-2.66-.55-2.89-1.66-.11-.34-2.66-4.12-3.11-4-.78-2.78-5.44-11.23-9.33-7.45-1,.89-3.78,2.56-4.11,4-.23,1.11-5,3.89-4.78,5,0,0-3.89,2.67-4,2.89-.45,1.22-2.56,3.22-3.34,4s-6.33,7.45-6.44,7.45c-4.45,0,1.33-5.11,1.66-5,0-.89,2.34-3.34,2.89-3.89.89-.89,3-2.67,3.23-3.78.33-1.45,2.77-2.45,3.11-3.89.33-1.22,3.55-3,3.33-4.11.56,0,3.34-3.34,3.34-3.89.33.22,6.22-7.78,6.22-8.89.11.11.67-.56.67-.67a6.36,6.36,0,0,1,2.89.11,3.8,3.8,0,0,1,1.44,1.78,48.94,48.94,0,0,0,2.67,5.44c0,2.56,2.89,3.78,2.89,7-1-.23-1.34.33-2-1.12-1.23-2.44-.23,1.34-.23,1.67.56,0,1.12,2,1.56,2.11.89.34,1.11,1.34,2.33,1.56-.22-.11,2.56,3.67,2.45,4,1.55-.56,2.55,5.78,3.33,5.56,0,1,1.34,1.22,1.45,1.89.66,2.55,3-2,1.22-1.67-.33-1.11-5.11-11.56-5.78-11.34-.11-1.22-5.33-12.33-5.78-12.22-.22-1.78-2.44-3.45-2.67-5.22s-2.55-4-3.88-4c0,.67-4.89,2.67-4.56,3.89-.67,0-3.56,3.12-3.56,3.89.34,0-6.33,7.89-6.22,8.23-.22-.11-6.78,7.33-6.56,7.89-.33-.11-3.22,3.89-3.33,4.22a35.35,35.35,0,0,1-3.11,5.67c-3.67.78,2-10.89,3.44-10.34,0-.66,2.45-3.66,3.11-3.66,0-.78,2.23-4.12,3.12-4.12,0-1.77,2.44-2.44,2.88-4,.34-1.11,3.34-2.89,3.12-3.89.66.12,5.55-7.33,5.78-8.11a20.38,20.38,0,0,1,1.66-3c0-1,1.89-1.56,1.89-2.44,1.22.66,2.11-4.67.45-4.12-.45-1.66-1.89-1.44-3.34-1.44,0-.11-.78-4.34.67-3.89,0-2.11,4.56-.11,4.56,1.22a15.94,15.94,0,0,1,1.44,2.22c1,2,2.78-1.66,1.89-1.77,0-.45-.45-.78-.56-1.11-.55-1.12.45-1.67.45-2A9.18,9.18,0,0,0,121.6,0"/><path class="cls-1" d="M137.94,4.67c2.45,0,5.11,1.66,5.11,4.55a11,11,0,0,0-1.22,3.34c-1.44,0,.56,2.33.67,2.67.22,1.11,6.33,8.22,7.55,8.22,0,.11,3.56,4.11,3.67,3.89,0,.89,2.45,3.89,3.11,5,1.11,2.22,8,14.22,2,15-3,.34-4.44-1.89-7.11-1.89.22-.66-4.22-1.22-4.78-1.22,0-.33-3.11-.78-3.33-.22,0,0-.11,2.11.67,1.89a5.38,5.38,0,0,0,.66.78c.22,2.33.22,5.11.22,7.55V64.9c0,3.45-.11.89-.22,2.22-.33,0-1.67.89-1.67,0,.34-.11-1.22-15.11-1.22-16.67,1.78,0-1.22-6-1.22-7.33a4.13,4.13,0,0,1,.78-3.56c.33-.33,3.33-2,3.33-.77,1.34,0,12,4.44,11.56,5.77.78,0,1.67-.22,2.22-.22,0,0-.11-2.22-.66-2.11-.12-.67-1.12-3-1.67-3.11,0-1.78-2.67-2.89-2.67-4.45-1.22.11-5-8.11-5.56-7.66,0-1.12-4.66-8.45-5.55-8.67-.56-.11-3.56-4.78-3.11-4.78,0-.89.55-4.78,1.22-4.78,0-.22.44-2.11-.45-1.89.12-.67-1.44-.78-1.44-1,0,0-3.45,1-1.33,1.67,1.66.44,1.22,6,.33,6,0,3,1.67,5.33,2.11,8.33.11,1,1.22,1.78,1.22,2.89s1.56,8,.45,8c0,1-2.45,6-3.89,4.56-.56-.56-.45-2.44.44-2.44,0-2.56-.22-5.12-.22-7.67,0-1.89-3.44-15.45-.67-15.45V9.11c0-.33-.89-1.11-.89-1.22-.77,0-8.33.78-8.22,1.22-1.11.34-5.78,1.67-5.78.23-.33-.23,2.78-1.45,2.78-1.45,1-.56,12.78-2.89,12.78-3.22"/><path class="cls-1" d="M108.82,9.45h4.56a7.67,7.67,0,0,1-.22,2.11,42.8,42.8,0,0,1-9.11,1c-4.67,0-9.34,2.33-14.23,2.33a26.14,26.14,0,0,1-5.89,1.22c-1.78,0-4,1.23-5.78,1.23-2.55,0-5,2.44-8,2.44a14.55,14.55,0,0,0-3.22.56c-.45.22-.78.89-1.11.89.11,1-3.67.89-4.23,1.44-.22.22-3.44,4.11-3.33,4.34-.33-.12-1.67,1.33-2.22,1.44-1.23.11-1.89,1.44-2.12,2.33S52.15,35,51,35.23c-.66.11-4.11,3.78-4,4.56-.89-.23-3.44,3.11-4.44,3.11.11.55-3.34,2.66-4,3.33-1.45,1.45-2.78,2.33-4.11,3.67s-3.45,2.55-4.89,4c-1.56,1.67-2.23,3.67-3.34,5.56-1.44,1.89-3,3.66-4.55,5.44-.89,1.11-5.45,5.34-5.23,1,.11-2,4-5.33,5.78-6,.89-4.22,3.34-4.67,6.22-7.45.67-.66,5-5.77,5.89-5.55s2.89-3.34,4.12-3.34c-.11-.44,3.44-3.33,4-3.33,0-1.22,4.44-3.22,4.11-4.56,1.22.34,2.44-4.78,3.33-4.78a6,6,0,0,1,1.23-3.55c.44-.45,4.66-.56,4.55-1,2.34-.22,2.11-3.56,3.67-4,.67-.11,1.67-2.22,2.33-2,0-1.23,3-1.89,4-1.89s12.9-2.67,13-3.11a28.84,28.84,0,0,1,7-1.56c2.78,0,5.67-1.44,8.44-1.44.67.22,14.67-2.78,14.67-2.89"/><path class="cls-1" d="M82.6,53c1.66,0,3.44,4,3.66,4,.34,1.11.23,3.11-1.22,3.11,0-1-10-.22-11.33-.22-.56,0-11.23,1.33-11.23,2.11-1,.22-2.11,1-3.11,1-2,0-.11,1.67,0,1.89,0,0-7.78.78-8.22.78-5,1.11,0-1.78-.12-2.22,1.23-.34,3.45-1.45,4.45-1.45,0-.66,2.89-1.66,3.45-1.66S68.48,57,68.48,57c1.34-.11,11.78-.55,11.78-.44,1.45-.11,2.67-2.78,2.34-3.56"/><path class="cls-2" d="M36.92,89.24V77.79c0-3,0-5.11.11-6.33V70.9h-.55a21.68,21.68,0,0,0-2.67.11,1.24,1.24,0,0,0-.89.34,1.78,1.78,0,0,0-.33,1v8.11H22.14V73.24a4.38,4.38,0,0,0-.22-1.67,1.09,1.09,0,0,0-.45-.56,1,1,0,0,0-.55-.11,10.86,10.86,0,0,0-2.78.34l-.45.11v.44a36.92,36.92,0,0,1,.12,4.45V87.46c0,3,0,5-.12,6.45v.44h.78A19.93,19.93,0,0,0,21,94.24a1.8,1.8,0,0,0,1-.33,1.58,1.58,0,0,0,.33-1V84h6a40.26,40.26,0,0,0,4.45-.11v9.44a1.49,1.49,0,0,0,.33.89,1,1,0,0,0,.78.22,12.94,12.94,0,0,0,2.89-.33l.44-.11v-.45a38.91,38.91,0,0,1-.33-4.33"/><path class="cls-2" d="M159.06,98H168a1.58,1.58,0,0,1,1,.33,1.83,1.83,0,0,1,.33,1,10,10,0,0,1,.11,2.56v.55h-.55c-1.45-.11-3.45-.11-6.45-.11H22.7a40.26,40.26,0,0,0-4.45.11h-.44l-.12-.44a12.94,12.94,0,0,1-.33-2.89,1,1,0,0,1,.11-.56,1.12,1.12,0,0,1,.56-.44,8.59,8.59,0,0,1,1.67-.22L159.06,98Z"/><path class="cls-2" d="M53.15,84.24H47.37c1-2.56,2-4.89,2.89-7.11.66,1.44,1.55,3.77,2.89,7.11m8.22,8.89c-.67-1.22-1.56-3.45-3-6.78S53.92,75.68,52.26,71.9A1.32,1.32,0,0,0,51,71l-2.66.34-.56.11.67,1.33c-1.33,3.11-7,16-9,20.23v.44l-.11.34.33.11a6.6,6.6,0,0,0,2.56.44h.11a1.38,1.38,0,0,0,1.22-.67c.55-1.22,1.55-3.55,2.67-6.22h8.22c1,2.45,1.56,3.78,2.33,5.56a2.74,2.74,0,0,0,.67,1,1.27,1.27,0,0,0,.89.33,9.45,9.45,0,0,0,3-.44l.33-.11v-.56Z"/><path class="cls-2" d="M73.26,74.35c1.45,0,2.22,0,2.78-.45h0a4.38,4.38,0,0,0,1-2.22l.11-.56h-10a17.25,17.25,0,0,0-3.22.56l-.34.11v.34a32.68,32.68,0,0,1,.11,3.77V93.35a1.28,1.28,0,0,0,.34.89,2,2,0,0,0,.78.22,12.86,12.86,0,0,0,2.88-.33L68,94v-.34c-.11-2.55-.11-5.22-.11-8.89h5.78a3,3,0,0,0,1.89-.55A2.52,2.52,0,0,0,76.48,82v-.56H67.93v-7Z"/><path class="cls-2" d="M89,74.35c1.45,0,2.22,0,2.89-.45h0a4.38,4.38,0,0,0,1-2.22l.11-.56H83a17.25,17.25,0,0,0-3.22.56l-.34.11v.34a30,30,0,0,1,.12,3.77V93.35a1.27,1.27,0,0,0,.33.89,2,2,0,0,0,.78.22,12.94,12.94,0,0,0,2.89-.33l.33-.11v-.34c-.11-2.55-.11-5.22-.11-8.89H89.6a2.39,2.39,0,0,0,1.89-.55A3.35,3.35,0,0,0,92.38,82v-.56H83.71v-7Z"/><path class="cls-1" d="M121.72,73V56.12c0-1.11.33-1.44,1.22-1.44a3,3,0,0,1,1.66.89c.34.22.56.33.89.55a3.53,3.53,0,0,1,.67.67l.45.22c.11.11.44.11.55.22s.11.45.11.56v1.44c0,1.23-.11,2.56-.11,3.78V86.35c0,4.11.11,6,.22,7.11a31.87,31.87,0,0,1-4.55.45c-.67,0-.89-.23-.89-1V76.68c-1.11.11-3.11.22-8.12.22H103.27V92.46c0,1.11-.34,1.34-1.56,1.56a24.39,24.39,0,0,1-4,.22c.11-2.33.22-5.78.22-10.56V65.12c0-3.89-.33-7.33-.22-7.33,1.22-.56,3.45-3.33,4.45-3.33.77,0,1,.44,1,3V73.13h18.56Z"/><path class="cls-2" d="M152.61,70.9a16.46,16.46,0,0,0-2.33.11,1,1,0,0,0-.78.34,1.55,1.55,0,0,0-.34,1V82.79c0,3.89-.77,6-1.77,7.12a6,6,0,0,1-7.56,0c-1.11-1.11-1.89-3-1.89-6.56v-10a9.68,9.68,0,0,0-.11-1.78,1.09,1.09,0,0,0-.45-.56,1,1,0,0,0-.55-.11,10.86,10.86,0,0,0-2.78.34l-.44.11v.44a40.26,40.26,0,0,1,.11,4.45v7.11c0,4.11.89,7,2.55,8.78a9.15,9.15,0,0,0,6.89,2.56h0a9.5,9.5,0,0,0,6.45-2c2-1.66,3.33-4.77,3.33-10v-5c0-3,0-5,.11-6.33v-.56Z"/><path class="cls-2" d="M168.5,83.79a12.74,12.74,0,0,0-4.22-3A12.87,12.87,0,0,1,161,78.68a2.82,2.82,0,0,1,.11-4.22,4,4,0,0,1,2.33-.67,7.55,7.55,0,0,1,3.33.89h.56a1.52,1.52,0,0,0,1.33-.78,3.05,3.05,0,0,0,.45-1.33v-.22l-.11-.11a8.27,8.27,0,0,0-5.12-1.67h0a8,8,0,0,0-6,2.22,6.1,6.1,0,0,0-1.55,4.11,5.68,5.68,0,0,0,.89,3.56A10.38,10.38,0,0,0,161.5,84,16.56,16.56,0,0,1,165,86.24a3.3,3.3,0,0,1,.88,2.22,2.27,2.27,0,0,1-1.11,2.11,4.59,4.59,0,0,1-2.66.78,9.82,9.82,0,0,1-4.78-1.55l-.45-.34-.22.45a5.67,5.67,0,0,0-.67,1.89h0a1.91,1.91,0,0,0,.78,1.44A8.91,8.91,0,0,0,162,94.69a9.51,9.51,0,0,0,5.66-1.78,6.49,6.49,0,0,0,2.45-5.12,7.6,7.6,0,0,0-1.56-4"/><path class="cls-1" d="M165.17,117.69h3c.33,0,.33.11.33.33v1.23H17.58a5.52,5.52,0,0,1-.11-1.34c0-.22,0-.22.22-.22Z"/><path class="cls-3" d="M165.17,133.47h3c.33,0,.33.11.33.33V135H17.58a5.52,5.52,0,0,1-.11-1.34c0-.22,0-.22.22-.22Z"/><path class="cls-4" d="M165.17,149.47h3c.33,0,.33.11.33.34V151H17.58a5.48,5.48,0,0,1-.11-1.33c0-.23,0-.23.22-.23Z"/><path class="cls-1" d="M3.91,80.46C2.8,81.9-.31,84.68,0,86.57c4.34.34,6.23-1.55,8.56-5,1.89-2.78,5-5.56,6-8.78.11-.44-2.66-.22-2.89-.22a6.9,6.9,0,0,0-2.55,1.78c-1.89,2-3.56,4-5.23,6.11"/><text class="cls-5" transform="translate(20.54 130.41)">C</text><text class="cls-5" transform="translate(29.94 130.41)">AFE &amp; </text><text class="cls-5" transform="translate(73.61 130.41)">R</text><text class="cls-5" transform="translate(83.46 130.41)">E</text><text class="cls-5" transform="translate(92.58 130.41)">S</text><text class="cls-5" transform="translate(100.49 130.41)">T</text><text class="cls-5" transform="translate(108.84 130.41)">A</text><text class="cls-5" transform="translate(117.47 130.41)">U</text><text class="cls-5" transform="translate(127.5 130.41)">R</text><text class="cls-5" transform="translate(137.77 130.41)">A</text><text class="cls-5" transform="translate(146.99 130.41)">N</text><text class="cls-5" transform="translate(157.79 130.41)">T</text><text class="cls-5" transform="translate(38.74 146.21)">B</text><text class="cls-5" transform="translate(48.08 146.21)">O</text><text class="cls-5" transform="translate(58.46 146.21)">W</text><text class="cls-5" transform="translate(72.2 146.21)">LI</text><text class="cls-5" transform="translate(85.85 146.21)">N</text><text class="cls-5" transform="translate(95.99 146.21)">G &amp; </text><text class="cls-5" transform="translate(123.55 146.21)">B</text><text class="cls-5" transform="translate(132.93 146.21)">AR</text><text class="cls-5" transform="translate(46.41 114.18)">H</text><text class="cls-5" transform="translate(57.38 114.18)">O</text><text class="cls-5" transform="translate(68.33 114.18)">T</text><text class="cls-5" transform="translate(77.31 114.18)">EL &amp; S</text><text class="cls-5" transform="translate(119.74 114.18)">P</text><text class="cls-5" transform="translate(127.44 114.18)">A</text></g></g></g></g></svg>