<svg xmlns="http://www.w3.org/2000/svg" viewBox="0 0 170.82 152.07"><defs><style>.cls-1,.cls-5{fill:#945f34;}.cls-2{fill:#8d2b25;}.cls-3{fill:#b0941f;}.cls-4{fill:#e30613;}.cls-5{font-size:13px;font-family:URWAntiqua-Med, URW Antiqua;}.cls-6{letter-spacing:0.01em;}.cls-7{letter-spacing:0.01em;}.cls-8{letter-spacing:0em;}.cls-9{letter-spacing:0em;}.cls-10{letter-spacing:-0.03em;}.cls-11{letter-spacing:-0.04em;}.cls-12{letter-spacing:0.04em;}.cls-13{letter-spacing:0.03em;}.cls-14{letter-spacing:-0.01em;}.cls-15{letter-spacing:0em;}.cls-16{letter-spacing:-0.02em;}.cls-17{letter-spacing:-0.01em;}.cls-18{letter-spacing:0.01em;}.cls-19{letter-spacing:0.02em;}.cls-20{letter-spacing:-0.07em;}</style></defs><g id="Ebene_2" data-name="Ebene 2"><g id="Ebene_1-2" data-name="Ebene 1"><path class="cls-1" d="M122.35,0c2.42,0,.83,1.73.83,3.07,1-.15,1.74,1.64,1.66,2.23-.11.88-4,2.58-3.74,3.63-1.24-.28-1.47,2.65-1.45,2.81.14,1.08,2.49,1.47,2.49,1.76.58,0,3.88.49,2.5,1.87-.76.76-3.93-1.4-4.37.11-.57,2,10.3,23.6,11,23.37a33.59,33.59,0,0,0,2.9,5.82c0,.4,2.42,7.9,2.7,7.89,0,5.89-7.08.55-7-3.12a12.73,12.73,0,0,0-1.46-2.69c.17-.8-2.69-.54-2.95-1.64-.09-.35-2.73-4.1-3.08-4-.75-2.84-5.49-11.34-9.35-7.48-1,.94-3.78,2.58-4.11,4-.27,1.14-5.06,3.93-4.82,5,0,0-3.89,2.67-4,2.86-.5,1.26-2.6,3.29-3.3,4S90.38,57,90.36,56.93c-4.43,0,1.35-5.09,1.66-5,0-.9,2.31-3.35,2.91-3.95.86-.86,3-2.64,3.28-3.76.33-1.41,2.77-2.51,3.12-3.95.29-1.24,3.63-3,3.36-4.13.57,0,3.33-3.34,3.33-3.95.39.2,6.23-7.86,6.23-8.93.1.06.67-.54.62-.62a5.72,5.72,0,0,1,2.93.16c.5.12,1.3,1.35,1.43,1.81a60.24,60.24,0,0,0,2.71,5.5c0,2.56,2.9,3.83,2.9,7.07-1-.24-1.32.29-2.06-1.13-1.25-2.44-.22,1.29-.22,1.7.58,0,1.17,2,1.62,2.15.88.35,1.17,1.32,2.35,1.6-.27-.06,2.6,3.64,2.47,4,1.58-.56,2.53,5.81,3.32,5.61,0,1,1.35,1.2,1.5,1.85.62,2.61,3.05-2,1.21-1.64-.32-1.17-5.1-11.66-5.82-11.43-.13-1.22-5.37-12.37-5.82-12.26-.19-1.81-2.46-3.45-2.7-5.3s-2.52-4-3.9-4c0,.69-4.88,2.71-4.62,3.95-.62,0-3.53,3.14-3.53,3.95.38,0-6.33,7.9-6.23,8.31-.25-.06-6.77,7.39-6.65,7.89-.36-.08-3.23,3.91-3.33,4.26a34.18,34.18,0,0,1-3.09,5.76c-3.69.75,2-10.95,3.51-10.43,0-.7,2.5-3.74,3.11-3.74,0-.78,2.23-4.16,3.12-4.16,0-1.75,2.51-2.46,2.87-4,.28-1.16,3.39-2.87,3.16-3.92.72.16,5.57-7.36,5.81-8.21a24,24,0,0,1,1.67-3c0-1,1.87-1.6,1.87-2.49,1.23.62,2.18-4.71.41-4.16-.45-1.68-1.86-1.45-3.32-1.45,0-.12-.73-4.39.62-3.95,0-2.18,4.57-.1,4.57,1.19a19.36,19.36,0,0,1,1.44,2.23c1.06,2.06,2.79-1.66,1.89-1.76,0-.47-.41-.75-.61-1.13-.6-1.17.49-1.68.4-2A7.9,7.9,0,0,0,122.35,0"/><path class="cls-1" d="M138.76,4.78c2.42,0,5.2,1.67,5.2,4.57a12.58,12.58,0,0,0-1.25,3.32c-1.43,0,.58,2.33.67,2.68.26,1.11,6.36,8.33,7.64,8.33,0,.15,3.53,4.09,3.74,3.95,0,.87,2.51,3.94,3.1,5.08,1.15,2.23,8,14.31,2,15.07-3,.38-4.48-1.86-7.17-1.86.22-.62-4.26-1.25-4.77-1.25,0-.39-3.15-.74-3.35-.25,0,0-.15,2.09.64,1.91a7.54,7.54,0,0,0,.63.83c.23,2.3.21,5.09.21,7.59V65.52c0,3.44-.08.92-.21,2.21-.39,0-1.66.88-1.66,0,.36-.13-1.25-15.18-1.25-16.83,1.74,0-1.25-6.07-1.25-7.43a3.77,3.77,0,0,1,.83-3.58c.3-.29,3.33-2,3.33-.83,1.38,0,12.09,4.52,11.63,5.82.74,0,1.71-.21,2.29-.21,0,0-.13-2.24-.63-2.08-.06-.69-1.09-3-1.66-3.12,0-1.79-2.7-2.89-2.7-4.51-1.23.07-5-8.13-5.61-7.74,0-1.07-4.67-8.46-5.63-8.69-.55-.13-3.59-4.82-3.09-4.82,0-.86.6-4.78,1.24-4.78,0-.21.48-2.07-.41-1.87.14-.63-1.46-.76-1.46-1,0,0-3.51,1-1.35,1.67,1.69.49,1.25,6,.31,6,0,3,1.69,5.34,2.08,8.42.12,1,1.28,1.82,1.23,2.92s1.55,8,.43,8c0,1-2.5,6-3.94,4.57-.54-.53-.4-2.49.41-2.49,0-2.55-.22-5.18-.19-7.7,0-1.9-3.42-15.57-.64-15.57,0-.74,0-1.91,0-2.71,0-.29-.87-1.15-.84-1.24-.75,0-8.43.75-8.31,1.25-1.13.3-5.82,1.66-5.82.21-.34-.22,2.84-1.46,2.8-1.44.94-.48,12.82-2.9,12.78-3.13"/><path class="cls-1" d="M109.47,9.56H114c.09-.41-.06,2.31-.21,2.07a39.39,39.39,0,0,1-9.22,1C99.86,12.67,95.22,15,90.2,15c-1.76.4-4.07,1.25-5.88,1.23s-4,1.27-5.82,1.25c-2.54,0-5,2.51-8,2.51a14.42,14.42,0,0,0-3.26.6c-.41.21-.77.85-1.1.85.06,1-3.65.9-4.21,1.45-.23.24-3.46,4.14-3.32,4.37-.36-.08-1.67,1.38-2.19,1.45-1.19.15-1.9,1.45-2.18,2.39s-1.79,4.25-2.87,4.5c-.66.15-4.15,3.79-4,4.54-.91-.21-3.45,3.11-4.52,3.11.09.6-3.38,2.71-4,3.33-1.4,1.4-2.81,2.39-4.15,3.74s-3.47,2.56-4.88,4c-1.59,1.63-2.21,3.68-3.39,5.54a53.24,53.24,0,0,1-4.64,5.45c-.93,1.11-5.49,5.39-5.27,1.06.1-2,4-5.39,5.78-6.06.94-4.22,3.39-4.75,6.31-7.5.72-.69,5-5.81,5.88-5.61s2.92-3.32,4.1-3.32c-.07-.49,3.48-3.33,4-3.33,0-1.19,4.45-3.28,4.16-4.57,1.28.29,2.45-4.78,3.32-4.78a6,6,0,0,1,1.25-3.53c.42-.42,4.7-.61,4.57-1,2.38-.24,2.17-3.62,3.71-4,.71-.16,1.68-2.27,2.31-2,0-1.28,3-1.87,4-1.86,1.12,0,13-2.68,13.08-3.13A28.22,28.22,0,0,1,86,14.14c2.84,0,5.67-1.48,8.52-1.45.93,0,15-3,15-3.13"/><path class="cls-1" d="M83.08,53.39c1.64,0,3.49,4,3.74,4,.29,1.08.17,3.12-1.24,3.12,0-1-10.11-.21-11.4-.21-.57,0-11.35,1.35-11.25,2.08-1,.26-2.14,1-3.13,1-2,0-.07,1.67,0,1.93,0,0-7.79.78-8.25.78-5,1.13,0-1.84-.06-2.29,1.24-.33,3.42-1.45,4.52-1.45,0-.64,2.95-1.67,3.5-1.65s9.64-3.35,9.64-3.34c1.29-.13,11.86-.56,11.85-.41,1.16-.12,2.38-2.82,2.07-3.54"/><path class="cls-2" d="M37.16,89.91V78.39c0-3,0-5.09.11-6.42l0-.51h-.52a21.23,21.23,0,0,0-2.69.14,1.24,1.24,0,0,0-.87.34,1.49,1.49,0,0,0-.31,1v8.15H22.41V73.8a5.5,5.5,0,0,0-.17-1.7,1,1,0,0,0-.41-.52,1.22,1.22,0,0,0-.55-.13,20.77,20.77,0,0,0-2.85.3l-.43.09.05.44c.07.63.1,2.09.1,4.47V88.06c0,3,0,5.08-.1,6.49l0,.51h.51a14.8,14.8,0,0,0,2.54-.14,1.89,1.89,0,0,0,1-.36,1.36,1.36,0,0,0,.36-1v-9h6c2.46,0,3.71,0,4.5-.07V94a1.08,1.08,0,0,0,.29.84,1,1,0,0,0,.77.25,20.46,20.46,0,0,0,2.92-.29l.4-.09,0-.41c0-.72-.11-1.87-.11-4.36"/><path class="cls-2" d="M160.06,98.71h9a1.33,1.33,0,0,1,1.05.36,1.77,1.77,0,0,1,.35,1,14.84,14.84,0,0,1,.15,2.54v.51l-.51,0c-1.41-.07-3.51-.1-6.5-.1H22.77c-2.39,0-3.85,0-4.48.1l-.44,0-.09-.42a19.4,19.4,0,0,1-.29-2.85,1,1,0,0,1,.13-.55.93.93,0,0,1,.51-.41,5.54,5.54,0,0,1,1.7-.17H160.06Z"/><path class="cls-2" d="M53.47,84.79H47.68c1.06-2.55,2-4.89,2.9-7.19.61,1.48,1.58,3.85,2.89,7.19m8.31,9c-.62-1.25-1.52-3.47-3-6.86-1.38-3.23-4.49-10.79-6.13-14.58a1.33,1.33,0,0,0-1.27-.89,19.27,19.27,0,0,0-2.7.36l-.59.12.62,1.39c-1.38,3.17-7,16.13-9.07,20.4l0,.06-.05.28-.06.37.34.16a8.18,8.18,0,0,0,2.59.46h.06a1.28,1.28,0,0,0,1.19-.7c.6-1.27,1.58-3.63,2.74-6.26h8.23c1.06,2.51,1.58,3.8,2.34,5.62a2.73,2.73,0,0,0,.63,1,1.32,1.32,0,0,0,.92.33,12.11,12.11,0,0,0,3-.41l.33-.11v-.65Z"/><path class="cls-2" d="M73.68,74.92c1.47,0,2.22,0,2.85-.41l0,0,0,0a4.26,4.26,0,0,0,1.06-2.29l.11-.57H67.65a20.17,20.17,0,0,0-3.23.52l-.38.11,0,.39c.07.87.11,1.93.11,3.78V94a1.06,1.06,0,0,0,.36.88,1.26,1.26,0,0,0,.8.21,11.08,11.08,0,0,0,2.86-.31l.34-.11v-.36c-.06-2.56-.1-5.31-.1-9h5.79a2.84,2.84,0,0,0,1.86-.52A3.11,3.11,0,0,0,77,82.5l0-.53H68.43v-7Z"/><path class="cls-2" d="M89.54,74.92c1.47,0,2.22,0,2.86-.41l0,0,0,0a4.41,4.41,0,0,0,1.06-2.29l.1-.57H83.51a20.56,20.56,0,0,0-3.23.52l-.38.11,0,.39c.06.87.1,1.93.1,3.78V94a1,1,0,0,0,.37.88,1.21,1.21,0,0,0,.79.21,11.21,11.21,0,0,0,2.87-.31l.34-.11v-.36c-.07-2.56-.11-5.31-.11-9h5.79A2.87,2.87,0,0,0,92,84.78a3.11,3.11,0,0,0,.93-2.28l.05-.53H84.29v-7Z"/><path class="cls-1" d="M122.42,73.48v-17c0-1.17.35-1.4,1.22-1.46.64,0,1.22.54,1.67.93.28.23.55.39.84.6s.44.47.71.65l.47.26c.14.07.43.11.54.21s.07.41.06.61c0,.5,0,1-.05,1.49,0,1.27-.06,2.54-.08,3.81,0,1.56,0,3.12,0,4.68V87.07c0,4.09.12,6,.18,7.18a33,33,0,0,1-4.61.46c-.64,0-.93-.17-.93-1V77.21c-1.17.12-3.1.18-8.17.18H103.63V93c0,1.17-.35,1.35-1.51,1.52a24,24,0,0,1-4,.23c.12-2.33.18-5.77.18-10.67V65.55c0-3.91-.31-7.35-.18-7.41,1.18-.57,3.5-3.38,4.49-3.38.82,0,1,.4,1,3V73.48Z"/><path class="cls-2" d="M153.54,71.46a19.72,19.72,0,0,0-2.33.14,1.22,1.22,0,0,0-.81.33,1.4,1.4,0,0,0-.34,1V83.49c0,3.9-.78,6-1.83,7.11a6,6,0,0,1-7.56,0c-1.08-1.07-1.93-3-1.93-6.62V73.87a7,7,0,0,0-.13-1.75,1,1,0,0,0-.42-.54,1.19,1.19,0,0,0-.58-.12,21.85,21.85,0,0,0-2.84.29l-.43.09,0,.43c.07.67.11,2.14.1,4.52V84c0,4.14.92,7,2.61,8.82s4.11,2.54,6.88,2.54h0a9.86,9.86,0,0,0,6.54-2c2-1.71,3.4-4.77,3.39-10.05v-5c0-3,0-5,.11-6.42l0-.51Z"/><path class="cls-2" d="M169.53,84.4a14.23,14.23,0,0,0-4.2-3.05,15.29,15.29,0,0,1-3.31-2.1,2.83,2.83,0,0,1-.93-2.21,2.29,2.29,0,0,1,1-2,4,4,0,0,1,2.3-.65,7.59,7.59,0,0,1,3.31.84l.06,0,.07,0,.29,0a1.63,1.63,0,0,0,1.37-.81,2.8,2.8,0,0,0,.44-1.38v-.23l-.16-.15a8.64,8.64,0,0,0-5.14-1.7h0a7.74,7.74,0,0,0-6,2.27,6.23,6.23,0,0,0-1.6,4.1,6.35,6.35,0,0,0,.93,3.6,11.08,11.08,0,0,0,4.35,3.57,14.44,14.44,0,0,1,3.43,2.19,2.93,2.93,0,0,1,.88,2.26,2.57,2.57,0,0,1-1.07,2.18,4.65,4.65,0,0,1-2.72.76,9,9,0,0,1-4.85-1.62l-.45-.33-.26.49a4.69,4.69,0,0,0-.63,1.94v0a1.76,1.76,0,0,0,.83,1.42,9.19,9.19,0,0,0,5.29,1.45,9.07,9.07,0,0,0,5.68-1.83,6.36,6.36,0,0,0,2.43-5.1,6,6,0,0,0-1.29-4"/><path class="cls-1" d="M166.24,118.51h3c.28,0,.33.09.36.31s0,.9,0,1.28c-.49,0-1.26,0-2.33,0h-148c-.91,0-1.34,0-1.6,0a9.71,9.71,0,0,1-.1-1.34c0-.18,0-.25.25-.25H166.24Z"/><path class="cls-3" d="M166.24,134.37h3c.28,0,.33.09.36.31s0,.91,0,1.28c-.49,0-1.26,0-2.33,0h-148c-.91,0-1.34,0-1.6,0a9.68,9.68,0,0,1-.1-1.33c0-.18,0-.26.25-.26H166.24Z"/><path class="cls-4" d="M166.24,150.47h3c.28,0,.33.1.36.32s0,.9,0,1.28c-.49,0-1.26,0-2.33,0h-148c-.91,0-1.34,0-1.6,0a9.71,9.71,0,0,1-.1-1.34c0-.18,0-.26.25-.26H166.24Z"/><path class="cls-1" d="M3.91,81C2.8,82.49-.35,85.22,0,87.19c4.37.37,6.31-1.57,8.66-5,1.91-2.82,5-5.57,6.05-8.82.15-.42-2.65-.27-2.94-.17A7.25,7.25,0,0,0,9.17,75a68.42,68.42,0,0,0-5.26,6"/><text class="cls-5" transform="translate(20.64 131.3)"><tspan class="cls-6">C</tspan><tspan x="9.46" y="0">AFE &amp; </tspan><tspan class="cls-7" x="53.42" y="0">R</tspan><tspan class="cls-8" x="63.33" y="0">E</tspan><tspan class="cls-9" x="72.51" y="0">S</tspan><tspan class="cls-10" x="80.47" y="0">T</tspan><tspan class="cls-11" x="88.87" y="0">A</tspan><tspan x="97.56" y="0">U</tspan><tspan class="cls-12" x="107.65" y="0">R</tspan><tspan x="117.99" y="0">A</tspan><tspan class="cls-13" x="127.27" y="0">N</tspan><tspan x="138.14" y="0">T</tspan></text><text class="cls-5" transform="translate(38.96 147.2)"><tspan class="cls-14">B</tspan><tspan class="cls-10" x="9.4" y="0">O</tspan><tspan class="cls-13" x="19.85" y="0">W</tspan><tspan class="cls-15" x="33.68" y="0">LI</tspan><tspan class="cls-16" x="47.41" y="0">N</tspan><tspan x="57.62" y="0">G &amp; </tspan><tspan class="cls-17" x="85.36" y="0">B</tspan><tspan x="94.8" y="0">AR</tspan></text><text class="cls-5" transform="translate(46.68 114.97)">H<tspan class="cls-18" x="11.04" y="0">O</tspan><tspan class="cls-19" x="22.06" y="0">T</tspan><tspan x="31.1" y="0">EL &amp; S</tspan><tspan class="cls-20" x="73.8" y="0">P</tspan><tspan x="81.55" y="0">A</tspan></text></g></g></svg>