<?xml version="1.0" encoding="UTF-8"?>
<svg width="228px" height="245px" viewBox="0 0 228 245" version="1.1" xmlns="http://www.w3.org/2000/svg" xmlns:xlink="http://www.w3.org/1999/xlink">
    <title>hoga-presse</title>
    <defs>
        <radialGradient cx="49.9714424%" cy="50.0711346%" fx="49.9714424%" fy="50.0711346%" r="113.594192%" gradientTransform="translate(0.499714,0.500711),scale(0.327249,1.000000),translate(-0.499714,-0.500711)" id="radialGradient-1">
            <stop stop-color="#0B72B5" offset="0%"></stop>
            <stop stop-color="#13235B" offset="100%"></stop>
        </radialGradient>
        <linearGradient x1="0.193162393%" y1="49.6798701%" x2="99.9239316%" y2="49.6798701%" id="linearGradient-2">
            <stop stop-color="#F8B334" offset="0%"></stop>
            <stop stop-color="#F29400" offset="100%"></stop>
        </linearGradient>
        <radialGradient cx="43.9676603%" cy="53.6808725%" fx="43.9676603%" fy="53.6808725%" r="75.3272452%" gradientTransform="translate(0.439677,0.536809),scale(0.824175,1.000000),translate(-0.439677,-0.536809)" id="radialGradient-3">
            <stop stop-color="#0B72B5" offset="0%"></stop>
            <stop stop-color="#13235B" offset="100%"></stop>
        </radialGradient>
        <radialGradient cx="50.0472262%" cy="50.029%" fx="50.0472262%" fy="50.029%" r="93.0620497%" gradientTransform="translate(0.500472,0.500290),scale(1.000000,0.411381),translate(-0.500472,-0.500290)" id="radialGradient-4">
            <stop stop-color="#FECE32" offset="0%"></stop>
            <stop stop-color="#F29400" offset="100%"></stop>
        </radialGradient>
        <radialGradient cx="50.0910353%" cy="49.5985507%" fx="50.0910353%" fy="49.5985507%" r="103.735622%" gradientTransform="translate(0.500910,0.495986),scale(1.000000,0.364099),translate(-0.500910,-0.495986)" id="radialGradient-5">
            <stop stop-color="#FECE32" offset="0%"></stop>
            <stop stop-color="#F29400" offset="100%"></stop>
        </radialGradient>
        <radialGradient cx="49.98964%" cy="49.9233438%" fx="49.98964%" fy="49.9233438%" r="100.247915%" gradientTransform="translate(0.499896,0.499233),scale(1.000000,0.377751),translate(-0.499896,-0.499233)" id="radialGradient-6">
            <stop stop-color="#FECE32" offset="0%"></stop>
            <stop stop-color="#F29400" offset="100%"></stop>
        </radialGradient>
        <radialGradient cx="49.9645292%" cy="50.0362035%" fx="49.9645292%" fy="50.0362035%" r="63.4131514%" gradientTransform="translate(0.499645,0.500362),scale(0.671788,1.000000),translate(-0.499645,-0.500362)" id="radialGradient-7">
            <stop stop-color="#FECE32" offset="0%"></stop>
            <stop stop-color="#F29400" offset="100%"></stop>
        </radialGradient>
    </defs>
    <g id="Page-1" stroke="none" stroke-width="1" fill="none" fill-rule="evenodd">
        <g id="hoga-presse" transform="translate(0.300180, 0.581829)" fill-rule="nonzero">
            <g id="Group" transform="translate(0.000000, 0.000000)">
                <path d="M59.7998195,200.418171 C59.7998195,200.418171 56.0998195,229.118171 109.09982,230.718171 C132.39982,231.018171 182.39982,230.718171 181.09982,202.718171 C181.09982,202.718171 198.79982,218.018171 177.79982,230.718171 C156.79982,243.418171 121.59982,249.618171 81.8998195,238.418171 C43.3998195,227.718171 54.3998195,203.818171 59.7998195,200.418171 Z" id="Path" fill="url(#radialGradient-1)"></path>
                <path d="M119.39982,155.818171 C128.09982,157.118171 131.09982,148.818171 131.09982,148.818171 C119.99982,154.618171 109.09982,144.118171 109.09982,144.118171 C109.09982,144.118171 110.69982,154.518171 119.39982,155.818171 Z" id="Path" fill="#35588C"></path>
                <path d="M120.69982,146.818171 C127.39982,146.818171 132.89982,144.918171 132.89982,142.518171 C132.89982,140.118171 127.39982,138.218171 120.69982,138.218171 C113.99982,138.218171 108.49982,140.118171 108.49982,142.518171 C108.49982,144.818171 113.89982,146.818171 120.69982,146.818171 Z" id="Path" fill="#0D3183"></path>
                <path d="M173.09982,70.8181715 C169.89982,71.1181715 166.69982,71.6181715 163.59982,72.2181715 L161.39982,86.2181715 C166.59982,85.2181715 170.09982,84.6181715 170.09982,84.6181715 L173.09982,70.8181715 Z" id="Path" fill="url(#linearGradient-2)"></path>
                <g transform="translate(63.099820, 70.718171)" fill="#35588C" id="Path">
                    <path d="M9,1.9 C2.4,-1.42108547e-14 0,-1.42108547e-14 0,-1.42108547e-14 L2.5,13.7 C5.7,14.2 9.1,15.1 11.2,15.7 L9,1.9 Z"></path>
                    <path d="M18.8,4 L21.3,17.7 C24.5,18.2 27.9,19.1 30,19.7 L27.8,6 C21.2,4 18.8,4 18.8,4 Z"></path>
                    <path d="M5.2,27.6 L7.5,40.1 L15.3,40.4 L13.4,28.5 C11.1,28.2 7.9,27.9 5.2,27.6 Z"></path>
                    <path d="M63.2,26.4 C65.5,25.1 68.2,24 71,22.9 L72.4,9.9 C67.4,11.9 64.4,13.4 64.4,13.4 L63.2,26.4 Z"></path>
                    <path d="M82.1,6.3 L80.4,19.8 C83.2,19 85.9,18.3 88.5,17.6 L90.2,3.8 C87.4,4.6 84.6,5.4 82.1,6.3 Z"></path>
                    <path d="M77.2,45.4 C79.9,44.6 82.7,43.9 85.3,43.2 L87,29.6 C84.1,30.4 81.4,31.2 78.9,32.1 L77.2,45.4 Z"></path>
                    <path d="M95.7,26.9 L93.5,40.9 C98.7,39.9 102.2,39.3 102.2,39.3 L105.2,25.5 C102,25.8 98.8,26.3 95.7,26.9 Z"></path>
                    <path d="M88.8,66.3 C94,65.3 97.5,64.7 97.5,64.7 L100.5,50.9 C97.3,51.2 94.1,51.7 91,52.3 L88.8,66.3 Z"></path>
                </g>
                <path d="M226.29982,95.2181715 C213.59982,-1.08182853 117.39982,29.2181715 117.39982,29.2181715 C143.09982,8.51817147 191.39982,15.2181715 191.39982,15.2181715 C191.39982,15.2181715 181.39982,3.91817147 145.39982,0.218171474 C39.3998195,-4.78182853 19.7998195,77.8181715 19.7998195,77.8181715 C16.4998195,47.8181715 31.7998195,17.5181715 31.7998195,17.5181715 C12.0998195,28.8181715 -6.50018048,73.1181715 2.19981952,99.8181715 C14.2998195,151.518171 47.9998195,172.418171 64.6998195,179.918171 C65.2998195,178.818171 65.7998195,177.718171 66.4998195,176.618171 C67.6998195,174.518171 69.3998195,171.918171 71.3998195,169.218171 L35.0998195,74.8181715 L46.0998195,75.5181715 L64.3998195,123.818171 L49.7998195,58.2181715 C49.7998195,58.2181715 74.7998195,55.9181715 115.39982,76.9181715 L118.39982,90.2181715 L121.39982,76.9181715 C121.39982,76.9181715 143.39982,59.9181715 185.99982,58.9181715 L169.29982,125.218171 L188.29982,74.6181715 C188.29982,74.6181715 195.29982,73.3181715 201.99982,74.6181715 L166.79982,165.718171 C167.59982,166.518171 168.29982,167.418171 169.09982,168.318171 C183.79982,153.618171 190.69982,137.618171 190.69982,137.618171 C205.39982,150.318171 192.69982,187.618171 192.69982,187.618171 C192.69982,187.618171 235.69982,172.118171 226.29982,95.2181715 Z" id="Path" fill="url(#radialGradient-3)"></path>
                <path d="M108.39982,137.418171 C108.39982,137.418171 99.7998195,134.518171 104.09982,127.118171 C107.29982,122.518171 110.19982,120.618171 105.09982,117.418171 C105.09982,117.418171 114.89982,119.918171 109.49982,125.618171 C105.49982,129.318171 102.39982,132.818171 108.39982,137.418171 Z" id="Path" fill="url(#radialGradient-4)"></path>
                <path d="M131.39982,137.418171 C131.39982,137.418171 133.49982,132.918171 130.69982,131.418171 C127.89982,129.918171 123.99982,125.818171 127.49982,122.818171 C130.99982,119.818171 131.89982,118.618171 131.89982,116.718171 C131.89982,116.718171 133.59982,120.418171 130.79982,122.818171 C127.99982,125.318171 129.29982,127.318171 130.79982,128.518171 C132.19982,129.618171 136.09982,134.818171 131.39982,137.418171 Z" id="Path" fill="url(#radialGradient-5)"></path>
                <path d="M121.09982,133.818171 C121.09982,133.818171 120.69982,132.618171 117.89982,130.618171 C115.09982,128.618171 112.39982,125.018171 116.69982,121.618171 C120.99982,118.318171 122.19982,116.018171 117.09982,112.818171 C111.99982,109.618171 107.49982,104.118171 111.39982,100.018171 C115.29982,95.9181715 122.79982,97.0181715 122.79982,102.318171 C122.69982,104.718171 120.59982,107.818171 117.39982,106.018171 C117.39982,106.018171 119.59982,106.218171 120.09982,105.418171 C120.69982,104.618171 120.69982,99.4181715 115.69982,101.418171 C112.09982,102.918171 113.59982,105.818171 115.49982,107.418171 C117.39982,109.018171 124.69982,112.618171 123.49982,117.218171 C122.69982,120.418171 121.09982,122.118171 120.19982,122.718171 C119.29982,123.318171 115.49982,125.618171 118.39982,128.018171 C121.29982,130.318171 121.59982,132.618171 121.09982,133.818171 Z" id="Path" fill="url(#radialGradient-6)"></path>
                <path d="M134.09982,150.818171 C134.09982,150.818171 131.39982,155.818171 122.09982,158.818171 C112.79982,161.818171 107.79982,150.118171 107.79982,150.118171 C73.7998195,159.118171 62.3998195,192.418171 64.9998195,202.018171 C75.2998195,239.618171 158.09982,221.518171 158.09982,221.518171 C171.59982,218.718171 177.69982,207.818171 177.39982,200.818171 C174.69982,161.818171 134.09982,150.818171 134.09982,150.818171 Z M85.8998195,211.418171 C85.7998195,211.518171 85.7998195,211.618171 85.6998195,211.718171 C83.4998195,210.518171 76.9998195,206.718171 76.3998195,203.118171 C76.3998195,203.118171 73.6998195,176.818171 96.6998195,164.118171 C96.6998195,164.118171 73.7998195,195.518171 85.8998195,211.418171 Z M157.29982,210.618171 L156.99982,210.418171 C160.69982,206.218171 163.39982,194.918171 144.39982,165.118171 C144.39982,165.118171 182.69982,194.318171 157.29982,210.618171 Z" id="Shape" fill="url(#radialGradient-7)"></path>
            </g>
        </g>
    </g>
</svg>