<svg xmlns="http://www.w3.org/2000/svg" viewBox="0 0 497.64 496.69"><defs><style>.cls-1{fill:#1a74cd;}</style></defs><g id="Layer_2" data-name="Layer 2"><g id="Layer_1-2" data-name="Layer 1"><path class="cls-1" d="M497.28,496.69H383.73c-1.59-12.11-3.34-24.3-4.78-36.53-1.57-13.36,1.31-24.58,13.78-32.58,3.46-2.22,6-8.53,6-13,.65-58.31-4.16-116.13-19.54-172.59-3.53-12.95-9.53-25.4-15.73-37.38-3.3-6.37-8.83-11.77-14.73-16.3-2.79-1.92-2.84-1.65-2.84,1.48V496H269.17c-.33-4.1-.85-8.14-1-12.18-.76-26.71-.9-53.45-2.32-80.12a63.5,63.5,0,0,1,11.91-41.21c13.89-19.88,16.25-41.14,13.84-65.51-2-20.13-4.91-40.47-6.88-60.76-.66-6.76-1.79-11.82-10.54-8.52V336.21c-1.42.11-4.67,0-6.1.12-.52-17.89-1.28-35.72-1.44-53.59-.16-18.26-.73-35.19-1.95-54.62-4.6.06-10.56.36-10.56.36s0,10.86-.22,14.78c-1,19.39-.76,38.84-.92,58.27-.09,11.35,0,22.7,0,34.06-1.73.32-6,.15-7.69.29-.15-3.35-.31-5.55-.33-8.67-.21-32.44-.13-64.88-.13-98-4.46-1.3-10.21,0-10.21,0s-.05,6.66-.14,10.5c-.62,26.17-.71,62.32-.85,78.15-.1,11.21.25,18,.25,18s-3.93-.14-7.78.07c-1.45-34.18-.54-70.51.11-106.28-5.74-1.17-10.57-2.55-11.75,7.37-3.34,28-9.6,55.85-10.45,83.88-.36,11.94,7.38,26.41,15.79,35.89,19.8,22.34,24,47.46,22.12,75.68-1.39,20.84-.28,41.84-.28,63.78H0V390.84H150.61V352.49H72.7c10.69-94.18,61.87-154.5,148-184,97.63-33.45,186-14.32,262.51,55.82,10.2,9.35,14.57,20,14.42,34.51-.77,73-.36,146-.36,219.07Z"/><path class="cls-1" d="M34.28,350.94H0V1.57H16.65c84.84,0,169.94-4.19,254.44,1.13,91.24,5.75,166.48,45,209.11,131.12,7,14.17,10.06,30.29,13.47,46.46-44.15-34.56-93.42-54.74-148.51-62.83,2.95-13.1.46-23.92-11.86-30.89-18.58-10.51-37-10.08-55,1-11.1,6.88-12.86,12.92-10.75,29.77C145,134.88,45.45,220.71,34.28,350.94Z"/></g></g></svg>