<?xml version="1.0" encoding="UTF-8"?>
<svg width="698px" height="372px" viewBox="0 0 698 372" version="1.1" xmlns="http://www.w3.org/2000/svg" xmlns:xlink="http://www.w3.org/1999/xlink">
    <title>hotelvor9</title>
    <g id="Page-1" stroke="none" stroke-width="1" fill="none" fill-rule="evenodd">
        <g id="hotelvor9" transform="translate(0.812660, 0.689619)" fill-rule="nonzero">
            <path d="M108.29999,33.7679826 C110.518845,27.2738562 113.983586,21.2750987 118.49999,16.1079826 C123.014344,11.0265599 128.584157,6.99254066 134.81999,4.28798288 C141.702806,1.34902035 149.126881,-0.109219155 156.60999,0.00798298419 C164.120104,-0.121994484 171.572916,1.33653472 178.47999,4.28798288 C184.687631,7.00660072 190.231746,11.0393049 194.72999,16.1079826 C199.24345,21.2754934 202.704837,27.2743249 204.91999,33.7679826 C207.335043,40.8280602 208.535392,48.2465552 208.46999,55.7079826 C208.52742,63.0218628 207.326585,70.2911422 204.91999,77.1979826 C202.704324,83.6013734 199.240862,89.5018356 194.72999,94.5579826 C190.206587,99.5437996 184.664902,103.49971 178.47999,106.157981 C171.560532,109.061793 164.112975,110.495456 156.60999,110.367981 C149.133998,110.482914 141.715107,109.049526 134.81999,106.157981 C128.606396,103.514754 123.03883,99.5574154 118.49999,94.5579826 C113.98597,89.5023852 110.519128,83.6019552 108.29999,77.1979826 C105.896796,70.2905455 104.699346,63.0212822 104.75999,55.7079826 C104.69137,48.2471274 105.888336,40.8286477 108.29999,33.7679826 L108.29999,33.7679826 Z M129.49999,68.6279826 C130.464463,72.659182 132.140752,76.4858616 134.44999,79.9279826 C136.718666,83.2912805 139.760255,86.061973 143.31999,88.0079826 C147.4207,90.1276228 151.996376,91.1605066 156.60999,91.0079826 C161.226542,91.1577635 165.804765,90.1250816 169.90999,88.0079826 C173.46452,86.0672946 176.502584,83.3035488 178.76999,79.9479826 C181.08321,76.5080483 182.759824,72.6806265 183.71999,68.6479826 C184.757306,64.4198568 185.277776,60.0814882 185.270136,55.7279826 C185.280165,51.1995129 184.759955,46.6854325 183.71999,42.2779826 C182.775983,38.1467301 181.099502,34.2180066 178.76999,30.6779826 C176.516254,27.2950858 173.476127,24.508875 169.90999,22.5579826 C165.804765,20.4408835 161.226542,19.4082017 156.60999,19.5579826 C151.996376,19.4054586 147.4207,20.4383424 143.31999,22.5579826 C139.750908,24.5085413 136.707453,27.2946574 134.44999,30.6779826 C132.12465,34.2202448 130.4485,38.1481937 129.49999,42.2779826 C128.478404,46.6809099 127.974988,51.1881615 127.99999,55.7079826 C127.975838,60.0594528 128.479515,64.3977927 129.49999,68.6279826 L129.49999,68.6279826 Z" id="path10" fill="#E6BFD9"></path>
            <polygon id="path12" fill="#E6BFD9" points="215.99999 22.0679826 215.99999 2.06798288 301.99999 2.06798288 301.99999 22.0679826 270.99999 22.0679826 270.99999 108.067981 247.99999 108.067981 247.99999 22.0679826"></polygon>
            <polygon id="path14" fill="#E6BFD9" points="396.99999 3.06798288 396.99999 22.0679826 340.99999 22.0679826 340.99999 45.0679826 391.99999 45.0679826 391.99999 63.0679826 340.99999 63.0679826 340.99999 88.0679826 397.99999 88.0679826 397.99999 108.067981 316.99999 108.067981 316.99999 3.06798288"></polygon>
            <polygon id="path16" fill="#E6BFD9" points="436.99999 3.06798288 436.99999 88.0679826 487.99999 88.0679826 487.99999 108.067981 412.99999 108.067981 412.99999 3.06798288"></polygon>
            <path d="M690.19999,158.267981 C686.03999,140.601314 679.796657,125.541314 671.46999,113.087981 C663.595698,101.049505 652.862969,91.148186 640.22999,84.2679826 C627.743323,77.5079826 613.16999,74.1246493 596.50999,74.1179826 C583.368175,73.981401 570.350633,76.6722161 558.33999,82.0079826 C547.035291,87.0381173 536.936353,94.4265022 528.71999,103.677981 C520.438978,113.060963 513.993922,123.915794 509.71999,135.677981 C505.189605,148.177278 502.920868,161.383358 503.01999,174.677981 C502.867978,187.627943 504.979729,200.504887 509.25999,212.727981 C513.150623,223.809096 519.204533,234.006586 527.06999,242.727981 C534.822783,251.220064 544.282831,257.977728 554.82999,262.557981 C565.62999,267.337981 577.65999,269.721314 590.91999,269.707981 C601.342122,269.882613 611.62996,267.339087 620.76999,262.327981 C629.169028,257.762099 636.379065,251.28848 641.81999,243.427981 C639.973323,273.561314 635.193323,294.924647 627.47999,307.517981 C619.766657,320.111314 608.353323,326.414647 593.23999,326.427981 C574.413323,326.427981 564.386657,317.664647 563.15999,300.137981 L508.12999,300.137981 C511.20999,323.184647 519.923323,340.784647 534.26999,352.937981 C548.616657,365.091314 567.356657,371.164647 590.48999,371.157986 C625.656657,371.157986 652.10999,359.091314 669.84999,334.957981 C687.58999,310.824647 696.456657,271.551314 696.449994,217.137981 C696.449994,195.631314 694.366657,176.031314 690.19999,158.337981 M637.68999,195.457981 C635.696911,201.297716 632.724471,206.755644 628.89999,211.597981 C625.235353,216.168804 620.666708,219.934022 615.47999,222.657981 C610.35447,225.395603 604.630787,226.821371 598.81999,226.807981 C593.002966,226.901038 587.262847,225.470317 582.16999,222.657981 C577.160698,219.848848 572.745429,216.092473 569.16999,211.597981 C565.328001,206.718189 562.425474,201.167447 560.60999,195.227981 C558.576366,188.73721 557.564279,181.969718 557.60999,175.167981 C557.581336,168.003326 558.509539,160.866927 560.36999,153.947981 C562.02225,147.646777 564.679686,141.653195 568.23999,136.197981 C571.482187,131.275431 575.745265,127.107846 580.73999,123.977981 C585.740764,120.885599 591.520885,119.286177 597.39999,119.367981 C603.418204,119.330803 609.334194,120.923835 614.51999,123.977981 C619.904879,127.191726 624.617957,131.415839 628.39999,136.417981 C632.497024,141.840443 635.626383,147.930007 637.64999,154.417981 C639.843327,161.403768 640.946288,168.686009 640.920467,176.007981 C640.946663,182.604128 639.854513,189.157033 637.68999,195.387981 L637.68999,195.457981 Z M259.30999,304.697981 C214.30999,304.697981 177.76999,267.987981 177.76999,222.867981 C177.76999,177.747981 214.34999,141.007981 259.30999,141.007981 C304.26999,141.007981 340.83999,177.717981 340.83999,222.837981 C340.83999,267.957981 304.24999,304.697981 259.30999,304.697981 Z M259.30999,169.877521 C237.853695,169.788916 218.460555,182.645329 210.187799,202.442855 C201.915043,222.24038 206.395034,245.072615 221.535468,260.276159 C236.675903,275.479703 259.489306,280.054627 279.321071,271.864291 C299.152836,263.673956 312.08999,244.33446 312.08999,222.877981 C312.08999,193.692589 288.49513,169.999127 259.30999,169.877521 L259.30999,169.877521 Z M243.95999,181.877981 L237.34999,185.977981 L255.13999,219.027981 L238.99999,218.827981 L238.99999,227.067981 L268.66999,227.067981 L243.95999,181.877981 Z" id="Fill-1" fill="#941B80"></path>
            <polygon id="path19" fill="#941B80" points="93.41999 301.067981 43.27 146.067981 78.21 146.067981 112.73999 255.067981 113.16999 255.067981 148.16999 146.067981 183.32999 146.067981 131.87999 301.067981"></polygon>
            <path d="M438.23999,146.067981 C444.652344,145.968443 451.023191,147.112886 456.99999,149.437981 C462.319567,151.537407 467.16984,154.671221 471.26999,158.657981 C475.192621,162.512927 478.282956,167.131412 480.34999,172.227981 C482.459888,177.509486 483.522939,183.150791 483.47999,188.837981 C483.47999,197.957981 481.56999,205.844647 477.74999,212.497981 C473.92999,219.151314 467.67999,224.217981 458.99999,227.697981 L458.99999,227.607981 C462.821792,228.597357 466.368113,230.444043 469.36999,233.007981 C472.110031,235.410119 474.381647,238.298802 476.06999,241.527981 C477.845293,244.936965 479.11846,248.584688 479.84999,252.357981 C480.634856,256.253797 481.175907,260.194785 481.46999,264.157981 C481.60999,266.637981 481.75999,269.557981 481.89999,272.907981 C482.03999,276.257981 482.29999,279.687981 482.65999,283.177981 C482.991006,286.532702 483.569244,289.858408 484.38999,293.127981 C485.049836,295.99921 486.258695,298.715746 487.94999,301.127981 L453.99999,301.127981 C451.980752,295.427265 450.814831,289.459499 450.53999,283.417981 C450.106657,276.564647 449.45999,270.007981 448.59999,263.747981 C447.43999,255.574647 444.98999,249.597981 441.24999,245.817981 C437.50999,242.037981 431.38999,240.141314 422.88999,240.127981 L388.99999,240.127981 L388.99999,301.127981 L354.99999,301.127981 L354.99999,146.127981 L438.23999,146.067981 Z M426.64999,216.067981 C434.52999,216.067981 440.43999,214.317981 444.37999,210.817981 C448.31999,207.317981 450.28999,201.624647 450.28999,193.737981 C450.28999,186.157981 448.31999,180.651314 444.37999,177.217981 C440.43999,173.784647 434.52999,172.067981 426.64999,172.067981 L388.99999,172.067981 L388.99999,216.067981 L426.64999,216.067981 Z" id="path21" fill="#941B80"></path>
            <polygon id="path8" fill="#E6BFD9" points="23 3.06798288 23 43.0679826 66 43.0679826 66 3.06798288 88.99999 3.06798288 88.99999 108.067981 66 108.067981 66 62.0679826 23 62.0679826 23 108.067981 5.68434189e-14 108.067981 5.68434189e-14 3.06798288"></polygon>
        </g>
    </g>
</svg>