<?xml version="1.0" encoding="UTF-8"?>
<svg width="194px" height="195px" viewBox="0 0 194 195" version="1.1" xmlns="http://www.w3.org/2000/svg" xmlns:xlink="http://www.w3.org/1999/xlink">
    <title>iha</title>
    <g id="Page-1" stroke="none" stroke-width="1" fill="none" fill-rule="evenodd">
        <g id="iha" transform="translate(1.150000, 1.977000)">
            <path d="M190.877,95.435 C190.877,148.142 148.146,190.873 95.439,190.873 C42.73,190.873 0,148.142 0,95.435 C0,42.73 42.73,0 95.439,0 C148.146,0 190.877,42.73 190.877,95.435 Z" id="Stroke-1" stroke="#D8232E" stroke-width="2.3"></path>
            <path d="M112.381,166.592 C108.24,173.178 102.873,179.955 96.381,187.67 L96.381,166.592 L112.381,166.592 Z M94.592,166.592 L94.592,187.67 C88.004,179.955 83.015,173.178 78.592,166.592 L94.592,166.592 Z M133.369,166.592 C132.807,167.154 131.865,168.096 131.017,169.037 C121.603,177.318 110.971,183.529 100.428,187.482 L98.92,187.482 C105.228,179.955 110.404,173.178 114.732,166.592 L133.369,166.592 Z M76.426,166.592 C80.756,173.178 85.65,179.767 91.863,187.482 L90.168,187.482 C80.098,183.529 69.367,177.318 60.144,169.037 C59.203,168.096 58.449,167.154 57.508,166.592 L76.426,166.592 Z M54.779,166.592 C56.285,167.908 57.508,169.037 58.92,170.166 C66.543,177.318 75.203,182.779 83.957,186.92 C66.355,184.662 50.262,177.318 37.178,166.592 L54.779,166.592 Z M154.357,166.592 C141.088,177.506 124.713,184.85 106.826,186.92 C115.486,182.967 124.24,177.318 132.24,170.166 C133.369,169.037 134.877,167.908 136.1,166.592 L154.357,166.592 Z M39.154,146.26 C42.92,153.037 47.719,158.873 53.084,164.521 L34.73,164.521 C28.613,159.248 23.248,153.037 18.73,146.26 L39.154,146.26 Z M66.449,146.26 C69.086,153.037 72.004,158.873 75.297,164.521 L55.721,164.521 C50.072,158.873 45.367,153.037 41.225,146.26 L66.449,146.26 Z M94.592,146.26 L94.592,164.521 L77.65,164.521 C74.168,158.873 71.156,153.037 68.426,146.26 L94.592,146.26 Z M122.736,146.26 C120.1,153.037 117.088,158.873 113.51,164.521 L96.381,164.521 L96.381,146.26 L122.736,146.26 Z M150.029,146.26 C145.889,153.037 141.088,158.873 135.439,164.521 L115.58,164.521 C119.158,158.873 122.076,153.037 124.807,146.26 L150.029,146.26 Z M172.713,146.26 C168.291,153.037 162.924,159.248 156.807,164.521 L137.889,164.521 C143.439,158.873 148.146,153.037 152.006,146.26 L172.713,146.26 Z M174.596,47.625 C183.064,61.555 187.959,77.93 187.959,95.623 C187.959,102.779 187.115,109.932 185.514,116.709 C184.572,115.576 183.725,113.885 182.596,111.248 L168.1,65.883 L146.83,65.883 L132.9,111.248 C130.736,117.084 131.017,118.025 126.029,118.025 L122.451,118.025 C119.533,118.025 117.744,115.955 117.744,113.885 L117.744,79.248 C117.744,76.801 119.818,75.484 122.17,75.484 L126.877,75.484 L126.877,65.883 L91.957,65.883 L91.957,75.484 L94.875,75.484 C97.603,75.484 99.392,77.555 99.392,80.189 L99.392,91.107 L79.721,91.107 L79.721,80.189 C79.721,77.555 81.603,75.484 84.238,75.484 L87.25,75.484 L87.25,65.883 L52.238,65.883 L52.238,75.484 L57.226,75.484 C59.297,75.484 61.461,76.801 61.461,79.248 L61.461,114.072 C61.461,116.142 59.955,118.025 56.943,118.025 L53.084,118.025 L53.084,126.873 L88.098,126.873 L88.098,118.025 L85.086,118.025 C81.227,118.025 79.721,115.576 79.721,113.506 L79.721,99.576 L99.392,99.576 L99.392,113.506 C99.392,115.576 98.451,118.025 94.31,118.025 L92.521,118.025 L92.521,126.873 L151.818,126.873 L151.818,118.025 L148.24,118.025 C145.889,118.025 143.818,115.014 145.041,112.002 L146.83,106.353 L163.396,106.353 L165.467,112.943 C165.748,114.451 164.525,118.025 161.326,118.025 L158.31,118.025 L158.31,126.873 L182.502,126.873 C180.244,133.084 177.326,138.92 173.935,144.381 L17.601,144.381 C14.119,138.92 11.105,132.896 8.848,126.685 L43.391,126.685 L43.391,117.834 L40.754,117.834 C35.391,117.834 34.166,115.764 34.166,112.189 L34.166,80.566 C34.166,77.178 35.672,75.107 37.742,75.107 L43.391,75.107 L43.391,65.695 L8.377,65.695 C10.635,59.295 13.459,53.271 16.941,47.625 L174.596,47.625 Z M51.201,130.26 L47.719,130.26 L47.719,137.037 C47.719,140.049 50.072,141.365 53.555,141.365 C56.8583,141.365 59.1786537,140.113977 59.2926069,137.259726 L59.297,137.037 L59.297,130.26 L55.814,130.26 L55.814,136.662 C55.814,137.978 55.344,139.295 53.555,139.295 C51.8332222,139.295 51.2446022,138.073749 51.2033625,136.808159 L51.201,136.662 L51.201,130.26 Z M80.004,130.072 C77.367,130.072 74.262,130.826 74.262,133.459 C74.262,137.412 80.474,136.096 80.474,138.166 C80.474,139.107 79.439,139.295 78.309,139.295 C77.0046923,139.295 75.7830355,138.975473 74.9358311,138.631368 L74.732,138.545 L74.355,140.99 C75.58,141.365 77.086,141.365 78.309,141.365 C81.227,141.365 84.144,140.615 84.144,137.787 C84.144,133.838 77.838,135.154 77.838,133.271 C77.838,132.411826 79.0934745,132.337115 79.956518,132.330619 L80.501677,132.330379 C81.329573,132.333411 82.150877,132.360699 82.917973,132.606291 L83.203,132.709 L83.393,130.451 C82.545,130.26 81.227,130.072 80.004,130.072 Z M94.592,130.072 C90.168,130.072 86.969,131.955 86.969,135.908 C86.969,140.049 91.109,141.365 94.592,141.365 C96.2617333,141.365 97.3565333,141.202102 98.2601535,141.027532 L98.451,140.99 L98.264,138.732 C97.322,139.107 96.193,139.295 95.06,139.295 C92.428,139.295 90.639,137.978 90.639,135.908 C90.639,133.838 92.238,132.33 94.781,132.33 C95.8091818,132.33 96.832405,132.487851 97.8611878,132.939542 L98.17,133.084 L98.451,130.639 C97.224,130.451 95.912,130.072 94.592,130.072 Z M136.381,130.26 L132.053,130.26 L127.064,141.178 L130.642,141.178 L131.678,138.92 L136.568,138.92 L137.607,141.178 L141.369,141.178 L136.381,130.26 Z M71.908,130.26 L61.838,130.26 L61.838,132.521 L65.133,132.521 L65.133,141.178 L68.615,141.178 L68.615,132.521 L71.908,132.521 L71.908,130.26 Z M44.236,130.26 L35.014,130.26 L35.014,141.178 L44.426,141.178 L44.426,139.107 L38.496,139.107 L38.496,136.662 L43.955,136.662 L43.955,134.592 L38.496,134.592 L38.496,132.33 L44.236,132.33 L44.236,130.26 Z M148.619,130.26 L144.193,130.26 L144.193,141.178 L147.392,141.178 L147.299,133.838 L151.912,141.178 L156.24,141.178 L156.24,130.26 L153.041,130.26 L153.135,137.787 L148.619,130.26 Z M119.818,130.26 L116.334,130.26 L116.334,141.178 L125.275,141.178 L125.275,139.107 L119.818,139.107 L119.818,130.26 Z M104.947,130.26 L101.369,130.26 L101.369,141.178 L104.947,141.178 L104.947,136.662 L109.088,136.662 L109.088,141.178 L112.568,141.178 L112.568,130.26 L109.088,130.26 L109.088,134.404 L104.947,134.404 L104.947,130.26 Z M164.9,130.26 L160.1,130.26 L160.1,141.178 L164.9,141.178 C169.42,141.178 172.713,139.861 172.713,135.717 C172.713,131.389 169.42,130.26 164.9,130.26 Z M23.906,130.26 L19.107,130.26 L19.107,141.178 L23.906,141.178 C28.424,141.178 31.719,139.861 31.719,135.717 C31.719,131.389 28.519,130.26 23.906,130.26 Z M24.002,132.521 C26.543,132.521 28.049,133.646 28.049,135.717 C28.049,137.978 26.543,139.107 24.002,139.107 L22.59,139.107 L22.59,132.521 L24.002,132.521 Z M164.994,132.521 C167.537,132.521 169.041,133.646 169.041,135.717 C169.041,137.978 167.631,139.107 164.994,139.107 L163.584,139.107 L163.584,132.521 L164.994,132.521 Z M134.217,132.521 L135.725,136.85 L132.428,136.85 L134.123,132.521 L134.217,132.521 Z M12.236,75.107 C14.588,75.107 15.812,77.178 15.812,79.06 L15.812,114.26 C15.812,116.33 13.742,117.834 10.447,117.834 L5.836,117.834 C4.047,110.685 3.105,103.154 3.105,95.623 C3.105,88.473 3.953,81.695 5.365,75.107 L12.236,75.107 Z M127.533,90.353 C124.615,90.353 122.17,92.99 122.17,96.002 C122.17,98.826 124.615,101.271 127.533,101.271 C130.736,101.271 133.182,98.826 133.182,96.002 C133.182,92.99 130.736,90.353 127.533,90.353 Z M48.096,90.353 C44.896,90.353 42.449,92.99 42.449,96.002 C42.449,98.826 44.896,101.271 48.096,101.271 C51.014,101.271 53.461,98.826 53.461,96.002 C53.461,92.99 51.014,90.353 48.096,90.353 Z M154.549,79.625 L160.385,97.506 L148.9,97.506 L154.549,79.625 Z M38.873,51.012 C34.543,51.012 32.283,53.084 32.283,56.66 C32.283,60.049 34.637,62.306 38.873,62.306 C43.201,62.306 45.461,60.049 45.461,56.66 C45.461,53.084 43.201,51.012 38.873,51.012 Z M149.842,51.201 L145.416,51.201 L145.416,62.119 L148.619,62.119 L148.525,54.59 L153.135,62.119 L157.56,62.119 L157.56,51.201 L154.264,51.201 L154.357,58.543 L149.842,51.201 Z M138.642,51.201 L134.404,51.201 L129.322,62.119 L132.9,62.119 L133.935,59.859 L138.924,59.859 L139.865,62.119 L143.725,62.119 L138.642,51.201 Z M56.756,51.201 L46.683,51.201 L46.683,53.271 L49.978,53.271 L49.978,62.119 L53.461,62.119 L53.461,53.271 L56.756,53.271 L56.756,51.201 Z M102.217,51.201 L92.992,51.201 L92.992,62.119 L102.404,62.119 L102.404,60.049 L96.474,60.049 L96.474,57.601 L101.935,57.601 L101.935,55.531 L96.474,55.531 L96.474,53.271 L102.217,53.271 L102.217,51.201 Z M110.971,51.201 L104.662,51.201 L104.662,62.119 L108.24,62.119 L108.24,57.789 L108.994,57.789 C110.31,57.789 110.685,58.353 111.439,60.236 L112.193,62.119 L115.865,62.119 L114.545,59.107 C113.889,57.789 113.791,57.037 112.662,56.66 C114.357,56.471 115.205,55.342 115.205,54.025 C115.205,52.142 113.322,51.201 110.971,51.201 Z M22.4,51.201 L18.918,51.201 L18.918,62.119 L22.4,62.119 L22.4,57.412 L26.543,57.412 L26.543,62.119 L30.119,62.119 L30.119,51.201 L26.543,51.201 L26.543,55.342 L22.4,55.342 L22.4,51.201 Z M123.58,51.201 L117.557,51.201 L117.557,62.119 L123.111,62.119 C125.463,62.119 128.193,61.555 128.193,58.918 C128.193,57.601 127.346,56.848 125.557,56.471 C126.971,56.096 127.818,55.342 127.818,54.025 C127.818,52.142 126.029,51.201 123.58,51.201 Z M67.58,51.201 L58.355,51.201 L58.355,62.119 L67.861,62.119 L67.861,60.049 L61.838,60.049 L61.838,57.601 L67.297,57.601 L67.297,55.531 L61.838,55.531 L61.838,53.271 L67.58,53.271 L67.58,51.201 Z M165.088,51.201 L160.287,51.201 L160.287,62.119 L165.088,62.119 C169.514,62.119 172.807,60.801 172.807,56.66 C172.807,52.33 169.607,51.201 165.088,51.201 Z M81.885,51.201 L78.121,51.201 L82.545,62.119 L86.875,62.119 L91.393,51.201 L87.814,51.201 L84.803,59.859 L81.885,51.201 Z M73.697,51.201 L70.215,51.201 L70.215,62.119 L79.156,62.119 L79.156,60.049 L73.697,60.049 L73.697,51.201 Z M38.873,53.084 C41.037,53.084 41.885,54.777 41.885,56.66 C41.885,58.543 41.037,60.236 38.873,60.236 C36.801,60.236 35.955,58.543 35.955,56.66 C35.955,54.777 36.801,53.084 38.873,53.084 Z M122.076,57.412 C123.299,57.412 124.713,57.601 124.713,58.73 C124.713,59.859 123.392,60.049 122.076,60.049 L121.041,60.049 L121.041,57.412 L122.076,57.412 Z M165.182,53.271 C167.725,53.271 169.232,54.4 169.232,56.66 C169.232,58.918 167.725,60.049 165.182,60.049 L163.771,60.049 L163.771,53.271 L165.182,53.271 Z M136.475,53.459 L138.076,57.789 L134.783,57.789 L136.475,53.459 Z M109.182,53.271 C110.498,53.271 111.721,53.459 111.721,54.4 C111.721,55.5160769 110.710757,55.6877811 109.716542,55.7141971 L109.44656,55.7183996 C109.357213,55.719 109.268769,55.719 109.182,55.719 L108.24,55.719 L108.24,53.271 L109.182,53.271 Z M122.357597,53.2716534 C123.385326,53.2788403 124.334,53.3650833 124.334,54.4 C124.334,55.342 123.205,55.531 121.982,55.531 L121.041,55.531 L121.041,53.271 L122.357597,53.2716534 Z M74.732,27.482 C71.344,33.131 68.426,38.965 65.791,45.742 L40.283,45.742 C44.426,39.342 49.225,33.131 54.496,27.482 L74.732,27.482 Z M51.861,27.482 C46.779,33.131 42.072,39.342 38.213,45.742 L18.072,45.742 C22.4,38.965 27.578,32.941 33.414,27.482 L51.861,27.482 Z M136.666,27.482 C142.029,33.131 146.736,39.342 150.596,45.742 L125.369,45.742 C122.639,38.965 119.721,33.131 116.521,27.482 L136.666,27.482 Z M158.123,27.482 C163.959,32.941 169.135,38.965 173.467,45.742 L152.947,45.742 C149.088,39.342 144.287,33.131 138.924,27.482 L158.123,27.482 Z M114.357,27.482 C117.65,33.131 120.662,38.965 123.299,45.742 L96.381,45.742 L96.381,27.482 L114.357,27.482 Z M94.498,27.482 L94.498,45.742 L67.861,45.742 C70.592,38.965 73.133,33.131 76.709,27.482 L94.498,27.482 Z M94.498,3.201 L94.498,25.789 L77.931,25.789 C82.355,18.26 87.721,11.482 94.498,3.201 Z M92.238,3.201 C85.556,11.295 80.191,18.447 75.861,25.789 L56.285,25.789 C57.508,24.283 58.92,22.965 60.144,21.836 C69.65,13.553 80.568,6.965 90.732,3.201 L92.238,3.201 Z M84.709,3.766 C75.674,7.906 66.826,13.553 58.92,20.707 C57.226,22.213 55.344,23.906 53.648,25.789 L35.391,25.789 C49.037,13.93 66.074,6.023 84.709,3.766 Z M96.381,3.201 C103.439,11.482 108.803,18.26 113.228,25.789 L96.381,25.789 L96.381,3.201 Z M99.767,3.201 C110.498,6.777 121.416,13.553 130.924,21.836 C132.146,22.965 133.369,24.283 134.783,25.789 L115.299,25.789 C110.877,18.447 105.603,11.295 98.545,3.201 L99.767,3.201 Z M106.17,3.766 C125.182,5.836 142.404,13.742 156.053,25.789 L137.228,25.789 C135.725,23.906 134.029,22.213 132.146,20.707 C124.146,13.553 115.392,7.906 106.17,3.766 Z" id="Combined-Shape" fill="#D8232E" fill-rule="nonzero"></path>
            <path d="M190.877,95.435 C190.877,148.142 148.146,190.873 95.439,190.873 C42.73,190.873 0,148.142 0,95.435 C0,42.73 42.73,0 95.439,0 C148.146,0 190.877,42.73 190.877,95.435 Z" id="Stroke-30" stroke="#D8232E" stroke-width="1.909"></path>
        </g>
    </g>
</svg>