<svg xmlns="http://www.w3.org/2000/svg" viewBox="0 0 1031.4 612"><defs><style>.cls-1{fill:#dab067;}.cls-2{fill:#fefcd3;}.cls-3{fill:#fdfdf9;}.cls-4{fill:#fdfdfa;}.cls-5{fill:#fdfcf9;}.cls-6{fill:#fdfdfb;}.cls-7{fill:#fcfbf6;}.cls-8{fill:#fcfcf7;}.cls-9{fill:#fefefa;}.cls-10{fill:#fdfaeb;}.cls-11{fill:#fdfdf6;}.cls-12{fill:#fbf4e2;}.cls-13{fill:#faf1db;}.cls-14{fill:#fbf3e0;}.cls-15{fill:#d8b579;}.cls-16{fill:#d9b26b;}.cls-17{fill:#dbb065;}</style></defs><g id="Ebene_2" data-name="Ebene 2"><g id="Ebene_1-2" data-name="Ebene 1"><path class="cls-1" d="M.61,0H1031.4V612H.61c0-1.2.05-2.4.05-3.6V3.6C.66,2.4.62,1.2.61,0Zm672.6,371.41h0a21.23,21.23,0,0,0,.48-3.22q0-78.57,0-157.12a26.29,26.29,0,0,0-.46-3.52c-.25-6.57-3.39-11.23-9.52-13.55a32.44,32.44,0,0,0-22.32-.21,13.58,13.58,0,0,0-9.54,10.62,47.28,47.28,0,0,0-.71,9.22q-.06,73,0,146c0,3.79,0,7.59.1,11.39a14.64,14.64,0,0,0,10.15,13.81,35.34,35.34,0,0,0,21.25.22c4.49-1.3,8.06-3.94,9.46-8.75Q672.64,373.87,673.21,371.41Zm-538.76-70.2q2.37,11.1,4.75,22.19c.42,2.25.79,4.51,1.25,6.75q5.43,26.4,11,52.79c.17.84,1.23,2.1,1.91,2.13,4.56.2,9.13.1,14,.1-.26-1.71-.37-3-.64-4.21q-11.08-50.16-22.16-100.32c-.84-3.85-2.17-8.11-1.33-11.73,5-21.49,10.55-42.85,15.9-64.26.91-3.62,1.74-7.27,2.6-10.9-5.77-1.2-6.14-1.07-7.39,3.75q-5.74,22.17-11.37,44.37c-1.35,5.31-2.55,10.66-3.82,16q-1.74,6.66-3.49,13.33a1,1,0,0,0-.08.51l-1.26,2.44a10.39,10.39,0,0,1-.6-4.21l0-68.56c0-2.1.1-4.2-.06-6.28,0-.49-.93-.92-1.43-1.38l-12.77-.24-.52.88c0,1.2-.14,2.39-.14,3.59v174c0,3.6.08,7.2,0,10.8-.06,2,.73,2.64,2.64,2.57,2.8-.11,5.6,0,8.4,0,3.89,0,3.9,0,3.9-4q0-37.93,0-75.88a26.69,26.69,0,0,1,.68-4.3ZM278.42,195q0,3.59,0,7.15c0,.9-.11,1.8-.11,2.7V371.71c0,.9.07,1.8.1,2.7v10.82H288c4.5,0,4.5,0,4.5-4.6q0-61.33,0-122.66v-5.82l.56,0,.85,1.79c.88,6.51,1.67,13,2.65,19.52q4.69,31,9.5,62a76.22,76.22,0,0,1,1.07,8.6c.2,12.38.21,24.77.3,37.16,0,1.26.12,2.52.18,3.89h14.17v-4.58q0-90.25,0-180.49c0-1.5,0-3,0-4.5s-.68-2.34-2.36-2.29c-2.69.08-5.39,0-8.09,0-3.93,0-3.92,0-3.92,4v94.7l-.86,0c-1.8-12.32-3.57-24.65-5.41-37-1.14-7.59-2.39-15.17-3.59-22.75l-.12-1.8c-.37-2.87-.72-5.74-1.12-8.6-1.23-8.69-2.49-17.37-3.72-26.06-.24-1.72-.95-2.64-2.91-2.54-3,.14-6-.05-9,.08-.78,0-1.53.73-2.28,1.12ZM919.21,420.6v-7.16c0-4.23,0-4.24-4.22-4.24H126.34c-7.57,0-7.57,0-7.54,7.5,0,3.88,0,3.89,3.91,3.89h796.5ZM579.61,289.4v-24c0-22.79-.06-45.59.07-68.38,0-3.1-.91-4.07-3.88-3.8a41.64,41.64,0,0,1-7.49,0c-3-.28-3.7.92-3.69,3.75.11,20.29.06,40.59.06,60.89,0,6.69-.1,13.39,0,20.09,0,2.4-.86,3.19-3.16,3.05a53.5,53.5,0,0,0-7.49,0c-2.7.23-3.38-.81-3.36-3.41.1-17.1,0-34.19,0-51.29,0-9.9-.07-19.8.07-29.69,0-2.68-.84-3.57-3.45-3.37a41.64,41.64,0,0,1-7.49,0c-3-.32-3.91.78-3.91,3.81q.12,87,.06,174c0,3.6.13,7.2,0,10.79-.12,2.52.55,3.69,3.32,3.47a57.3,57.3,0,0,1,8.39,0c2.34.14,3.13-.65,3.1-3-.12-8.7,0-17.4,0-26.09,0-22,.06-44,0-66,0-2.61.63-3.63,3.35-3.33a57.92,57.92,0,0,0,6.59,0c4,0,4.05,0,4.05,4.12q0,44.54,0,89.08c0,.9.06,1.81,0,2.7-.14,1.78.58,2.55,2.41,2.5,2.7-.08,5.4,0,8.1,0,4.43,0,4.43,0,4.43-4.32Q579.63,335.15,579.61,289.4Zm-206.41.25q0,27.28,0,54.58c0,8.69-.08,17.39.09,26.09.15,7.95,4.57,13.49,12.36,15.13a55.39,55.39,0,0,0,11.6.9c12.18,0,18.48-6.45,18.48-18.57V213.34c0-1.4.08-2.81,0-4.2-.35-5.13-1.59-9.91-6-13.14-7.1-5.14-22.09-5.38-29.48-.57-5.6,3.65-7,9.2-7,15.35Q373.18,250.21,373.2,289.65Zm360.05,2.57v87.87c0,1,.06,2,0,3-.09,1.55.6,2.16,2.13,2.12,2.69,0,5.39,0,8.09,0,4.57,0,4.57,0,4.57-4.45V205.31c0-1.3.07-2.61,0-3.9-.05-1.67.71-2.32,2.35-2.28,2.7.07,5.4-.06,8.1,0,2.11.07,3.59,0,3.59-2.9,0-2.7-1.14-3.11-3.42-3-4.2.14-8.4,0-12.6,0-8,0-16,.07-24-.05-2.43,0-3.31.7-3.35,3.22,0,2.77,1.48,2.8,3.44,2.74s4.2,0,6.3,0c5.32,0,4.75-.47,4.75,4.9Q733.27,248.14,733.25,292.22Zm74.35-3v56.38q0,18.3,0,36.59c0,1.77.08,3.08,2.47,3.06,9.19-.09,18.39-.07,27.59,0,2.09,0,2.47-1,2.5-2.77s-.53-2.75-2.55-2.7c-4,.1-8-.12-12,.09-2.78.14-3.57-.86-3.55-3.59.1-18.69.06-37.38.07-56.08,0-10.1,0-20.19,0-30.29,0-2.29.64-3.26,3.07-3.14,3.39.17,6.8,0,10.2.07,2,.06,2.32-.93,2.3-2.58s-.16-2.73-2.2-2.67c-3.4.09-6.8-.08-10.2,0-2.29.08-3.18-.73-3.17-3.11q.09-38.38,0-76.78c0-2.24.84-3,3-3,3.8.06,7.6-.08,11.4,0,2.06,0,2.82-.72,2.8-2.8s-.73-2.75-2.83-2.72c-8.39.11-16.79.16-25.18,0-2.85-.06-3.71.7-3.7,3.64C807.64,227.63,807.6,258.42,807.6,289.21Zm79.8-.27v91.75c0,.8-.26,1.75.08,2.37.46.84,1.36,2,2.09,2.05,9.1.14,18.19.05,27.29.13,2.17,0,2.32-1.15,2.38-2.85.07-1.94-.63-2.69-2.58-2.63-3.5.11-7,.06-10.5.05-3.9,0-3.9,0-3.9-4q0-87.25,0-174.51c0-1.7-.1-3.4,0-5.1.15-2.14-.59-3.12-2.87-3a63.48,63.48,0,0,1-8.39,0c-2.91-.25-3.71.78-3.7,3.68C887.44,227.57,887.4,258.26,887.4,288.94ZM211.2,385.2h10.45c4.54,0,4.55,0,4.55-4.53q0-91.6,0-183.22c0-.5-.05-1,0-1.5.19-2-.59-2.89-2.74-2.78a64.61,64.61,0,0,1-8.69,0c-2.94-.25-3.64.83-3.64,3.69q.12,92.22.06,184.42Zm269.57-88.78h0c4.69,0,9.38,0,14.07,0,6.24-.09,5.37,1,5.64-5.52.12-2.88-.92-3.55-3.58-3.52-9.87.11-19.75,0-29.63.07-6.68.06-5.71-1.19-5.93,6.15-.08,2.27.79,2.93,3,2.89C469.79,296.34,475.28,296.42,480.77,296.42Z"/><path class="cls-2" d="M.61,0c0,1.2.05,2.4.05,3.6V608.4c0,1.2,0,2.4-.05,3.6-.2-.1-.57-.19-.58-.3,0-.8,0-1.6,0-2.4Q0,306,0,2.7A13,13,0,0,1,.61,0Z"/><path class="cls-3" d="M919.21,420.6H122.71c-3.89,0-3.89,0-3.91-3.89,0-7.49,0-7.5,7.54-7.5H915c4.21,0,4.21,0,4.22,4.24Z"/><path class="cls-4" d="M579.61,289.4q0,45.74,0,91.48c0,4.31,0,4.31-4.43,4.32-2.7,0-5.4-.07-8.1,0-1.83.05-2.55-.72-2.41-2.5.07-.89,0-1.8,0-2.7q0-44.53,0-89.08c0-4.15,0-4.14-4.05-4.12a57.92,57.92,0,0,1-6.59,0c-2.72-.3-3.36.72-3.35,3.33.09,22,0,44,0,66,0,8.69-.07,17.39,0,26.09,0,2.39-.76,3.18-3.1,3a57.3,57.3,0,0,0-8.39,0c-2.77.22-3.44-.95-3.32-3.47.17-3.59,0-7.19,0-10.79q0-87-.06-174c0-3,.86-4.13,3.91-3.81a41.64,41.64,0,0,0,7.49,0c2.61-.2,3.49.69,3.45,3.37-.14,9.89-.07,19.79-.07,29.69,0,17.1.06,34.19,0,51.29,0,2.6.66,3.64,3.36,3.41a53.5,53.5,0,0,1,7.49,0c2.3.14,3.2-.65,3.16-3.05-.13-6.7,0-13.4,0-20.09,0-20.3.05-40.6-.06-60.89,0-2.83.72-4,3.69-3.75a41.64,41.64,0,0,0,7.49,0c3-.27,3.9.7,3.88,3.8-.13,22.79-.07,45.59-.07,68.38Z"/><path class="cls-5" d="M373.2,289.65q0-39.43,0-78.87c0-6.15,1.37-11.7,7-15.35,7.39-4.81,22.38-4.57,29.48.57,4.46,3.23,5.7,8,6,13.14.1,1.39,0,2.8,0,4.2V367.78c0,12.12-6.3,18.55-18.48,18.57a55.39,55.39,0,0,1-11.6-.9c-7.79-1.64-12.21-7.18-12.36-15.13-.17-8.7-.09-17.4-.09-26.09Q373.19,316.95,373.2,289.65Zm27.95-.51h0c0-26.29,0-52.58-.05-78.87A58,58,0,0,0,400,199.6c-.54-2.84-2.9-3.95-5.66-3.88s-4.88,1.41-5.48,4.21a38.61,38.61,0,0,0-1,8q-.09,81.57,0,163.13a49,49,0,0,0,.82,7.12c.47,3,2.37,4.51,5.36,4.66,3.36.17,5.43-1.07,6.13-4.42a49.57,49.57,0,0,0,1-9.8Q401.22,328.88,401.15,289.14Z"/><path class="cls-6" d="M306.11,335.42q-4.75-31-9.5-62c-1-6.49-1.77-13-2.65-19.52l-.66-7-1.16.07c-.18,2.57-.49,5.13-.51,7.69-.08,7.32,0,14.64,0,21.95v103c0,4.39,0,4.39-4.51,4.4-1.5,0-3-.09-4.49,0-1.93.13-3-.54-3.21-2.58-.23-2.35-.64-4.69-1-7,0-.9-.1-1.8-.1-2.7V204.89c0-.9.07-1.8.11-2.7,1.85-2.38.65-4.76,0-7.15l0-.63c3.09,0,6.19-.19,9.25.1,1.28.12,3.18,1,3.55,2a37.32,37.32,0,0,1,1.51,7.78c.22,1.56,0,3.18.24,4.75.67,4.75,1.34,9.5,2.25,14.21a64.09,64.09,0,0,0,2.22,7.15l.12,1.8c.43,5.53.7,11.07,1.33,16.57.56,4.88,1.54,9.72,2.3,14.58.51,3.31,1,6.63,1.44,9.95.72,5.19,1.65,10.35,2.05,15.56.27,3.47-.2,7,3.41,10,.51-1.55,1.43-3,1.38-4.46-.12-3.44-1-6.86-1.05-10.28q-.13-40.48,0-81c0-1.83,1.35-4,.76-5.44-1.51-3.73.77-3.27,2.93-3.28h3.29c5,0,5,0,5,4.85q0,87.26,0,174.5c0,2.1.18,4.19.27,6.28.13,3.21-.53,3.93-3.66,4-1.8,0-3.61-.11-5.39,0-2.52.21-3.29-.87-3.27-3.31.09-10.69,0-21.39,0-32.08a4.17,4.17,0,0,1,.13-1.78C310.79,342.37,306.59,339.29,306.11,335.42Z"/><path class="cls-6" d="M672.08,376.33c-1.4,4.81-5,7.45-9.46,8.75a35.34,35.34,0,0,1-21.25-.22,14.64,14.64,0,0,1-10.15-13.81c-.12-3.8-.1-7.6-.1-11.39q0-73,0-146a47.28,47.28,0,0,1,.71-9.22,13.58,13.58,0,0,1,9.54-10.62,32.44,32.44,0,0,1,22.32.21c6.13,2.32,9.27,7,9.52,13.55-.4,2.23-1.17,4.46-1.14,6.69.64,52.39-1.54,104.8,1.12,157.17h0Zm-13.21-87.1h-.07q0-41.82,0-83.66a24,24,0,0,0-.67-5.32,5.31,5.31,0,0,0-5.27-4.49c-2.82-.1-5.28,1-5.93,4a43.66,43.66,0,0,0-1.15,9.15q-.11,81,0,161.92a38.24,38.24,0,0,0,.72,6.83c.69,3.74,2.39,5.13,5.85,5.12,3.29,0,5.32-1.58,5.94-5.14a49.16,49.16,0,0,0,.63-8Q658.91,329.41,658.87,289.23Z"/><path class="cls-4" d="M139.13,257.87c1.27-5.34,2.47-10.69,3.82-16q5.63-22.2,11.37-44.37c1.25-4.82,1.62-4.95,7.39-3.75-.86,3.63-1.69,7.28-2.6,10.9-5.35,21.41-10.92,42.77-15.9,64.26-.84,3.62.49,7.88,1.33,11.73q11,50.17,22.16,100.32c.27,1.23.38,2.5.64,4.21-4.89,0-9.46.1-14-.1-.68,0-1.74-1.29-1.91-2.13q-5.58-26.37-11-52.79c-.46-2.24-.83-4.5-1.25-6.75-.42-3.73-.82-7.45-1.28-11.17a76.29,76.29,0,0,0-1.25-8.15c-.26-1.07-1.46-1.92-2.22-2.87l0-.11-.3-2.87-1,.1v3.76q0,36.87,0,73.74c0,8.73,1.33,8.18-8.18,8.18-5,0-5,0-5-4.85q0-87.39,0-174.76c0-3.57-.27-7.14-.41-10.71l-.09-.21,12.77.25a6.48,6.48,0,0,1,.67,2.22c-.2,2.88-.82,5.73-.84,8.6-.09,16.59,0,33.19,0,49.78,0,1.09.28,2.17.36,3.25.23,3.45,1.37,7.2.4,10.27-1.21,3.79.51,6.63.73,9.9l1,.11,1-6.15a1,1,0,0,1,.08-.51C138,267.06,139.56,262.73,139.13,257.87Z"/><path class="cls-7" d="M733.25,292.22q0-44.09,0-88.17c0-5.37.57-4.86-4.75-4.9-2.1,0-4.2-.05-6.3,0s-3.48,0-3.44-2.74c0-2.52.92-3.25,3.35-3.22,8,.12,16,.05,24,.05,4.2,0,8.4.11,12.6,0,2.28-.07,3.41.34,3.42,3,0,2.9-1.48,3-3.59,2.9-2.7-.09-5.4,0-8.1,0-1.64,0-2.4.61-2.35,2.28,0,1.29,0,2.6,0,3.9V380.75c0,4.46,0,4.46-4.57,4.45-2.7,0-5.4,0-8.09,0-1.53,0-2.22-.57-2.13-2.12.06-1,0-2,0-3Z"/><path class="cls-4" d="M807.6,289.21c0-30.79,0-61.58-.06-92.37,0-2.94.85-3.7,3.7-3.64,8.39.18,16.79.13,25.18,0,2.1,0,2.82.65,2.83,2.72s-.74,2.85-2.8,2.8c-3.8-.09-7.6,0-11.4,0-2.14,0-3,.76-3,3q.09,38.4,0,76.78c0,2.38.88,3.19,3.17,3.11,3.4-.12,6.8.05,10.2,0,2-.06,2.19,1.1,2.2,2.67s-.33,2.64-2.3,2.58c-3.4-.1-6.81.1-10.2-.07-2.43-.12-3.09.85-3.07,3.14.09,10.1,0,20.19,0,30.29,0,18.7,0,37.39-.07,56.08,0,2.73.77,3.73,3.55,3.59,4-.21,8,0,12-.09,2,0,2.57.84,2.55,2.7s-.41,2.79-2.5,2.77c-9.2-.07-18.4-.09-27.59,0-2.39,0-2.48-1.29-2.47-3.06q0-18.29,0-36.59Z"/><path class="cls-8" d="M887.4,288.94c0-30.68,0-61.37-.06-92.05,0-2.9.79-3.93,3.7-3.68a63.48,63.48,0,0,0,8.39,0c2.28-.11,3,.87,2.87,3-.12,1.7,0,3.4,0,5.1q0,87.25,0,174.51c0,4,0,4,3.9,4,3.5,0,7,.06,10.5-.05,2-.06,2.65.69,2.58,2.63-.06,1.7-.21,2.87-2.38,2.85-9.1-.08-18.19,0-27.29-.13-.73,0-1.63-1.21-2.09-2.05-.34-.62-.08-1.57-.08-2.37Z"/><path class="cls-9" d="M211.2,385.2v-3.94q0-92.2-.06-184.42c0-2.86.7-3.94,3.64-3.69a64.61,64.61,0,0,0,8.69,0c2.15-.11,2.93.76,2.74,2.78-.05.5,0,1,0,1.5q0,91.6,0,183.22c0,4.51,0,4.51-4.55,4.53Z"/><path class="cls-10" d="M306.11,335.42c.48,3.87,4.68,6.95,2.43,11.43a4.17,4.17,0,0,0-.13,1.78c0,10.69,0,21.39,0,32.08,0,2.44.75,3.52,3.27,3.31,1.78-.14,3.59,0,5.39,0,3.13,0,3.79-.75,3.66-4-.09-2.09-.27-4.18-.27-6.28q0-87.24,0-174.5c0-4.84,0-4.84-5-4.85h-3.29c-2.16,0-4.44-.45-2.93,3.28.59,1.47-.76,3.61-.76,5.44q-.09,40.49,0,81c0,3.42.93,6.84,1.05,10.28.05,1.44-.87,2.91-1.38,4.46-3.61-3-3.14-6.49-3.41-10-.4-5.21-1.33-10.37-2.05-15.56-.46-3.32-.93-6.64-1.44-9.95-.76-4.86-1.74-9.7-2.3-14.58-.63-5.5-.9-11-1.33-16.57,1.2,7.58,2.45,15.16,3.59,22.75,1.84,12.32,3.61,24.65,5.41,37l.86,0v-94.7c0-4,0-4,3.92-4,2.7,0,5.4.06,8.09,0,1.68-.05,2.38.68,2.36,2.29s0,3,0,4.5q0,90.24,0,180.49v4.58H307.66c-.06-1.37-.17-2.63-.18-3.89-.09-12.39-.1-24.78-.3-37.16A76.22,76.22,0,0,0,306.11,335.42Z"/><path class="cls-11" d="M480.77,296.42c-5.49,0-11-.08-16.47,0-2.17,0-3-.62-3-2.89.22-7.34-.75-6.09,5.93-6.15,9.88-.1,19.76,0,29.63-.07,2.66,0,3.7.64,3.58,3.52-.27,6.52.6,5.43-5.64,5.52-4.69.07-9.38,0-14.07,0Z"/><path class="cls-12" d="M119.56,193.69c.14,3.57.41,7.14.41,10.71q0,87.37,0,174.76c0,4.85,0,4.85,5,4.85,9.51,0,8.17.55,8.18-8.18q.08-36.87,0-73.74v-3.76l1-.1.3,2.87a26.69,26.69,0,0,0-.68,4.3q-.06,37.94,0,75.88c0,4,0,4-3.9,4-2.8,0-5.6-.09-8.4,0-1.91.07-2.7-.58-2.64-2.57.11-3.6,0-7.2,0-10.8V198c0-1.2.09-2.39.14-3.59C119.15,194.14,119.35,193.91,119.56,193.69Z"/><path class="cls-13" d="M673.21,371.41c-2.66-52.37-.48-104.78-1.12-157.17,0-2.23.74-4.46,1.14-6.69a26.29,26.29,0,0,1,.46,3.52q0,78.56,0,157.12A21.23,21.23,0,0,1,673.21,371.41Z"/><path class="cls-10" d="M278.42,374.41c.33,2.34.74,4.68,1,7,.2,2,1.28,2.71,3.21,2.58,1.49-.11,3,0,4.49,0,4.5,0,4.51,0,4.51-4.4v-103c0-7.31-.05-14.63,0-21.95,0-2.56.33-5.12.51-7.69l1.16-.07.66,7c-.29-.6-.57-1.19-.85-1.79l-.56,0V258q0,61.33,0,122.66c0,4.59,0,4.59-4.5,4.6h-9.62Z"/><path class="cls-14" d="M135.56,271.71q-.52,3.07-1,6.15l-1-.11c-.22-3.27-1.94-6.11-.73-9.9,1-3.07-.17-6.82-.4-10.27-.08-1.08-.35-2.16-.36-3.25,0-16.59-.06-33.19,0-49.78,0-2.87.64-5.72.84-8.6a6.48,6.48,0,0,0-.67-2.22c.5.45,1.4.88,1.43,1.37.16,2.08.06,4.18.06,6.28l0,68.56a10.39,10.39,0,0,0,.6,4.21Z"/><path class="cls-10" d="M297.48,230.41a64.09,64.09,0,0,1-2.22-7.15c-.91-4.71-1.58-9.46-2.25-14.21-.22-1.57,0-3.19-.24-4.75a37.32,37.32,0,0,0-1.51-7.78c-.37-1-2.27-1.89-3.55-2-3.06-.29-6.16-.1-9.25-.1.76-.39,1.51-1.09,2.29-1.12,3-.13,6,.06,9-.08,2-.1,2.67.82,2.91,2.54,1.23,8.69,2.49,17.37,3.72,26.06C296.76,224.67,297.11,227.54,297.48,230.41Z"/><path class="cls-12" d="M134.45,301.21c.76,1,2,1.8,2.22,2.87a76.29,76.29,0,0,1,1.25,8.15c.46,3.72.86,7.44,1.28,11.17Q136.83,312.3,134.45,301.21Z"/><path class="cls-14" d="M139.13,257.87c.43,4.86-1.16,9.19-3.49,13.33Q137.4,264.54,139.13,257.87Z"/><path class="cls-10" d="M278.42,195c.66,2.39,1.86,4.77,0,7.15Q278.42,198.62,278.42,195Z"/><path class="cls-13" d="M672.08,376.33q.55-2.46,1.13-4.92Q672.64,373.87,672.08,376.33Z"/><path class="cls-14" d="M119.56,193.69c-.21.22-.41.45-.61.67.18-.29.35-.59.52-.88Z"/><path class="cls-15" d="M401.15,289.14q0,39.74,0,79.47a49.57,49.57,0,0,1-1,9.8c-.7,3.35-2.77,4.59-6.13,4.42-3-.15-4.89-1.65-5.36-4.66a49,49,0,0,1-.82-7.12q-.06-81.56,0-163.13a38.61,38.61,0,0,1,1-8c.6-2.8,2.68-4.14,5.48-4.21s5.12,1,5.66,3.88a58,58,0,0,1,1.07,10.67c.08,26.29.05,52.58.05,78.87ZM398.4,376.8c.4-1.33,1.15-2.65,1.16-4q.09-83.54,0-167.07c0-1-.06-2-.12-3a5.47,5.47,0,0,0-.37-1.08l-1.35,2.63c-3.88-1.34,1-6.28-3.67-7.35-1.29,1.82-3.27,3.61-3.94,5.81-1.24,4-.91,8.31-.9,12.59.22,50.39.13,100.78.17,151.18a97.92,97.92,0,0,0,.64,10.25c.35,3.36,2.66,4.43,5.79,3a8.67,8.67,0,0,1,2.43-.28c0-.73.08-1.71.13-2.68Z"/><path class="cls-16" d="M658.87,289.23q0,40.18,0,80.36a49.16,49.16,0,0,1-.63,8c-.62,3.56-2.65,5.14-5.94,5.14-3.46,0-5.16-1.38-5.85-5.12a38.24,38.24,0,0,1-.72-6.83q0-81,0-161.92a43.66,43.66,0,0,1,1.15-9.15c.65-3,3.11-4.09,5.93-4a5.31,5.31,0,0,1,5.27,4.49,24,24,0,0,1,.67,5.32q.08,41.84,0,83.66Z"/><path class="cls-17" d="M398.41,376.8c-.05,1-.1,1.95-.13,2.68a8.67,8.67,0,0,0-2.43.28c-3.13,1.46-5.44.39-5.79-3a97.92,97.92,0,0,1-.64-10.25c0-50.4.05-100.79-.17-151.18,0-4.28-.34-8.55.9-12.59.67-2.2,2.65-4,3.94-5.81,4.66,1.07-.21,6,3.67,7.35l1.35-2.63a5.47,5.47,0,0,1,.37,1.08c.06,1,.12,2,.12,3q0,83.53,0,167.07c0,1.33-.76,2.65-1.16,4L397,374.62l-.79.8Zm-4.57-6.18h.59V211.38h-.59Zm4.67-160.7c-.57-.4-.95-.87-1.29-.85s-.67.54-1,.84c.37.35.7.85,1.14,1C397.55,211,398,210.39,398.51,209.92Z"/><ellipse class="cls-15" cx="394.14" cy="291" rx="0.42" ry="112.6"/><path class="cls-15" d="M398.51,209.92c-.51.47-1,1.07-1.15,1-.44-.16-.77-.66-1.14-1,.33-.3.65-.81,1-.84S397.94,209.52,398.51,209.92Z"/><path class="cls-15" d="M398.41,376.8l-2.18-1.38.79-.8,1.38,2.18Z"/></g></g></svg>