<svg xmlns="http://www.w3.org/2000/svg" viewBox="0 0 1031.41 612"><defs><style>.cls-1{fill:#dab067;}.cls-2{fill:#fefcd3;}.cls-3{fill:#fdfaeb;}.cls-4{fill:#fbf4e2;}.cls-5{fill:#faf1db;}.cls-6{fill:#fbf3e0;}.cls-7{fill:#d8b579;}.cls-8{fill:#d9b26b;}.cls-9{fill:#dbb065;}</style></defs><g id="Ebene_2" data-name="Ebene 2"><g id="Ebene_1-2" data-name="Ebene 1"><path class="cls-1" d="M.61,0h1030.8V612H.61c0-1.2.05-2.4.05-3.6V3.6C.66,2.4.62,1.2.61,0Zm672.6,371.41h0a21.23,21.23,0,0,0,.48-3.22q0-78.57,0-157.12a26.27,26.27,0,0,0-.45-3.52c-.25-6.57-3.39-11.23-9.52-13.55a32.44,32.44,0,0,0-22.32-.21,13.59,13.59,0,0,0-9.55,10.62,46.51,46.51,0,0,0-.7,9.22q-.06,73,0,146c0,3.79,0,7.59.11,11.39a14.61,14.61,0,0,0,10.15,13.81,35.31,35.31,0,0,0,21.24.22c4.49-1.3,8.07-3.94,9.46-8.75Q672.65,373.87,673.21,371.41Zm-538.76-70.2q2.37,11.1,4.75,22.19c.42,2.25.79,4.51,1.25,6.75,3.63,17.6,7.24,35.21,11,52.79.17.84,1.23,2.1,1.92,2.13,4.55.2,9.13.1,14,.1-.25-1.71-.37-3-.64-4.21q-11.08-50.16-22.16-100.32c-.84-3.85-2.17-8.11-1.33-11.73,5-21.49,10.55-42.85,15.9-64.26.91-3.62,1.74-7.27,2.6-10.9-5.77-1.2-6.14-1.07-7.39,3.75q-5.74,22.17-11.37,44.37c-1.35,5.31-2.55,10.66-3.81,16q-1.75,6.66-3.5,13.33a1,1,0,0,0-.08.51l-1.26,2.44a10.57,10.57,0,0,1-.6-4.21l0-68.56c0-2.1.1-4.2-.06-6.28,0-.49-.93-.92-1.42-1.38l-12.77-.24-.53.88c0,1.2-.14,2.39-.14,3.59v174c0,3.6.08,7.2,0,10.8-.06,2,.73,2.64,2.65,2.57,2.79-.11,5.59,0,8.39,0,3.89,0,3.9,0,3.9-4q0-37.93,0-75.88a26.69,26.69,0,0,1,.68-4.3ZM278.42,195c0,2.39,0,4.77,0,7.15,0,.9-.11,1.8-.11,2.7V371.71c0,.9.07,1.8.1,2.7v10.82H288c4.5,0,4.51,0,4.51-4.6q0-61.33,0-122.66v-5.82l.55,0,.85,1.79c.88,6.51,1.67,13,2.65,19.52q4.69,31,9.5,62a76.22,76.22,0,0,1,1.07,8.6c.2,12.38.21,24.77.3,37.16,0,1.26.12,2.52.18,3.89h14.17v-4.58q0-90.25,0-180.49c0-1.5,0-3,0-4.5s-.68-2.34-2.36-2.29c-2.69.08-5.39,0-8.09,0-3.93,0-3.92,0-3.92,4v94.7l-.86,0c-1.8-12.32-3.57-24.65-5.41-37-1.14-7.59-2.39-15.17-3.59-22.75l-.12-1.8c-.37-2.87-.72-5.74-1.12-8.6-1.23-8.69-2.49-17.37-3.72-26.06-.24-1.72-.95-2.64-2.91-2.54-3,.14-6-.05-9,.08-.78,0-1.52.73-2.28,1.12ZM919.21,420.6c0-2.78,0-5,0-7.16,0-4.23,0-4.24-4.22-4.24H126.34c-7.57,0-7.57,0-7.54,7.5,0,3.88,0,3.89,3.91,3.89h796.5ZM579.61,289.4v-24c0-22.79-.06-45.59.08-68.38,0-3.1-.92-4.07-3.89-3.8a41.64,41.64,0,0,1-7.49,0c-3-.28-3.7.92-3.69,3.75.11,20.29.06,40.59.06,60.89,0,6.69-.09,13.39,0,20.09,0,2.4-.86,3.19-3.15,3.05a53.64,53.64,0,0,0-7.5,0c-2.7.23-3.38-.81-3.36-3.41.1-17.1,0-34.19,0-51.29,0-9.9-.08-19.8.06-29.69,0-2.68-.84-3.57-3.45-3.37a41.64,41.64,0,0,1-7.49,0c-3-.32-3.91.78-3.91,3.81q.12,87,.06,174c0,3.6.13,7.2,0,10.79-.12,2.52.55,3.69,3.32,3.47a57.3,57.3,0,0,1,8.39,0c2.35.14,3.13-.65,3.1-3-.12-8.7,0-17.4,0-26.09,0-22,0-44,0-66,0-2.61.63-3.63,3.35-3.33a58.1,58.1,0,0,0,6.6,0c4,0,4,0,4,4.12q0,44.54,0,89.08c0,.9.06,1.81,0,2.7-.13,1.78.59,2.55,2.42,2.5,2.69-.08,5.39,0,8.09,0,4.43,0,4.44,0,4.44-4.32Q579.62,335.15,579.61,289.4Zm-206.41.25q0,27.28,0,54.58c0,8.69-.08,17.39.09,26.09.15,7.95,4.57,13.49,12.36,15.13a55.5,55.5,0,0,0,11.6.9c12.18,0,18.48-6.45,18.48-18.57q0-77.22,0-154.44c0-1.4.07-2.81,0-4.2-.35-5.13-1.59-9.91-6-13.14-7.1-5.14-22.09-5.38-29.47-.57-5.6,3.65-7,9.2-7,15.35Q373.18,250.21,373.2,289.65Zm360.05,2.57v87.87c0,1,.06,2,0,3-.09,1.55.61,2.16,2.13,2.12,2.7,0,5.4,0,8.1,0,4.56,0,4.57,0,4.57-4.45V205.31c0-1.3.07-2.61,0-3.9-.05-1.67.72-2.32,2.36-2.28,2.7.07,5.4-.06,8.09,0,2.11.07,3.6,0,3.59-2.9,0-2.7-1.13-3.11-3.42-3-4.19.14-8.39,0-12.59,0-8,0-16,.07-24-.05-2.44,0-3.31.7-3.35,3.22,0,2.77,1.48,2.8,3.43,2.74s4.2,0,6.3,0c5.33,0,4.75-.47,4.76,4.9Q733.28,248.14,733.25,292.22Zm74.35-3v56.38c0,12.2,0,24.4,0,36.59,0,1.77.09,3.08,2.47,3.06,9.2-.09,18.4-.07,27.59,0,2.09,0,2.48-1,2.5-2.77s-.53-2.75-2.55-2.7c-4,.1-8-.12-12,.09-2.79.14-3.57-.86-3.56-3.59.11-18.69.07-37.38.07-56.08,0-10.1,0-20.19,0-30.29,0-2.29.64-3.26,3.07-3.14,3.39.17,6.8,0,10.19.07,2,.06,2.32-.93,2.31-2.58s-.16-2.73-2.21-2.67c-3.39.09-6.8-.08-10.19,0-2.3.08-3.18-.73-3.18-3.11q.09-38.38,0-76.78c0-2.24.85-3,3-3,3.8.06,7.6-.08,11.4,0,2.07,0,2.82-.72,2.81-2.8s-.73-2.75-2.83-2.72c-8.4.11-16.8.16-25.19,0-2.84-.06-3.71.7-3.7,3.64C807.65,227.63,807.61,258.42,807.6,289.21Zm79.81-.27v91.75c0,.8-.26,1.75.08,2.37.45.84,1.36,2,2.09,2.05,9.09.14,18.19.05,27.28.13,2.18,0,2.33-1.15,2.39-2.85.06-1.94-.63-2.69-2.59-2.63-3.49.11-7,.06-10.49.05-3.9,0-3.91,0-3.9-4q0-87.25,0-174.51c0-1.7-.1-3.4,0-5.1.15-2.14-.59-3.12-2.87-3a63.48,63.48,0,0,1-8.39,0c-2.91-.25-3.7.78-3.69,3.68C887.45,227.57,887.41,258.26,887.41,288.94ZM211.2,385.2h10.45c4.54,0,4.55,0,4.55-4.53q0-91.6,0-183.22c0-.5-.05-1,0-1.5.19-2-.59-2.89-2.74-2.78a64.61,64.61,0,0,1-8.69,0c-2.94-.25-3.64.83-3.64,3.69q.12,92.22.06,184.42Zm269.57-88.78h0c4.69,0,9.38,0,14.07,0,6.24-.09,5.37,1,5.64-5.52.12-2.88-.92-3.55-3.57-3.52-9.88.11-19.76,0-29.64.07-6.68.06-5.7-1.19-5.93,6.15-.07,2.27.79,2.93,3,2.89C469.79,296.34,475.28,296.42,480.77,296.42Z"/><path class="cls-2" d="M.61,0c0,1.2.05,2.4.05,3.6V608.4c0,1.2,0,2.4-.05,3.6-.2-.1-.57-.19-.58-.3,0-.8,0-1.6,0-2.4Q0,306,0,2.7A13,13,0,0,1,.61,0Z"/><path class="cls-3" d="M306.11,335.42c.48,3.87,4.68,6.95,2.43,11.43a4.17,4.17,0,0,0-.12,1.78c0,10.69.05,21.39-.05,32.08,0,2.44.75,3.52,3.27,3.31,1.79-.14,3.59,0,5.39,0,3.13,0,3.79-.75,3.66-4-.08-2.09-.27-4.18-.27-6.28q0-87.24,0-174.5c0-4.84,0-4.84-5-4.85h-3.3c-2.16,0-4.44-.45-2.93,3.28.59,1.47-.75,3.61-.76,5.44q-.09,40.49,0,81c0,3.42.93,6.84,1.05,10.28.05,1.44-.87,2.91-1.38,4.46-3.6-3-3.14-6.49-3.41-10-.4-5.21-1.33-10.37-2.05-15.56-.46-3.32-.93-6.64-1.44-9.95-.76-4.86-1.74-9.7-2.3-14.58-.63-5.5-.9-11-1.33-16.57,1.2,7.58,2.45,15.16,3.59,22.75,1.84,12.32,3.61,24.65,5.41,37l.86,0v-94.7c0-4,0-4,3.92-4,2.7,0,5.4.06,8.09,0,1.68-.05,2.38.68,2.36,2.29s0,3,0,4.5q0,90.24,0,180.49v4.58H307.66c-.06-1.37-.17-2.63-.18-3.89-.09-12.39-.1-24.78-.3-37.16A76.22,76.22,0,0,0,306.11,335.42Z"/><path class="cls-4" d="M119.56,193.69c.14,3.57.41,7.14.41,10.71q0,87.37,0,174.76c0,4.85,0,4.85,5,4.85,9.51,0,8.17.55,8.19-8.18q.06-36.87,0-73.74v-3.76l1-.1.3,2.87a26.69,26.69,0,0,0-.68,4.3q-.06,37.94,0,75.88c0,4,0,4-3.9,4-2.8,0-5.6-.09-8.39,0-1.92.07-2.71-.58-2.65-2.57.11-3.6,0-7.2,0-10.8V198c0-1.2.09-2.39.14-3.59C119.15,194.14,119.35,193.91,119.56,193.69Z"/><path class="cls-5" d="M673.21,371.41c-2.66-52.37-.47-104.78-1.12-157.17,0-2.23.75-4.46,1.15-6.69a26.27,26.27,0,0,1,.45,3.52q0,78.56,0,157.12A21.23,21.23,0,0,1,673.21,371.41Z"/><path class="cls-3" d="M278.42,374.41c.33,2.34.74,4.68,1,7,.21,2,1.28,2.71,3.21,2.58,1.49-.11,3,0,4.49,0,4.5,0,4.51,0,4.51-4.4v-103c0-7.31,0-14.63,0-21.95,0-2.56.33-5.12.52-7.69l1.15-.07.66,7c-.28-.6-.57-1.19-.85-1.79l-.55,0V258q0,61.33,0,122.66c0,4.59,0,4.59-4.51,4.6h-9.62Z"/><path class="cls-6" d="M135.56,271.71c-.34,2.05-.69,4.1-1,6.15l-1-.11c-.21-3.27-1.94-6.11-.73-9.9,1-3.07-.17-6.82-.4-10.27-.08-1.08-.35-2.16-.35-3.25,0-16.59-.06-33.19,0-49.78,0-2.87.64-5.72.85-8.6a6.73,6.73,0,0,0-.68-2.22c.5.45,1.4.88,1.43,1.37.16,2.08.06,4.18.06,6.28l0,68.56a10.57,10.57,0,0,0,.6,4.21Z"/><path class="cls-3" d="M297.48,230.41a66.25,66.25,0,0,1-2.22-7.15c-.91-4.71-1.57-9.46-2.25-14.21-.22-1.57,0-3.19-.24-4.75a37.32,37.32,0,0,0-1.51-7.78c-.37-1-2.27-1.89-3.55-2-3.06-.29-6.16-.1-9.24-.1.76-.39,1.5-1.09,2.28-1.12,3-.13,6,.06,9-.08,2-.1,2.67.82,2.91,2.54,1.23,8.69,2.49,17.37,3.72,26.06C296.76,224.67,297.11,227.54,297.48,230.41Z"/><path class="cls-4" d="M134.45,301.21c.76,1,2,1.8,2.22,2.87a76.29,76.29,0,0,1,1.25,8.15c.46,3.72.86,7.44,1.28,11.17Q136.83,312.3,134.45,301.21Z"/><path class="cls-6" d="M139.14,257.87c.43,4.86-1.17,9.19-3.5,13.33Q137.4,264.54,139.14,257.87Z"/><path class="cls-3" d="M278.42,195c.66,2.39,1.86,4.77,0,7.15C278.43,199.81,278.42,197.43,278.42,195Z"/><path class="cls-5" d="M672.08,376.33q.57-2.46,1.13-4.92Q672.66,373.87,672.08,376.33Z"/><path class="cls-6" d="M119.56,193.69c-.21.22-.41.45-.61.67l.53-.88Z"/><path class="cls-7" d="M401.15,289.14q0,39.74,0,79.47a48.83,48.83,0,0,1-1,9.8c-.7,3.35-2.77,4.59-6.13,4.42-3-.15-4.89-1.65-5.35-4.66a46.36,46.36,0,0,1-.82-7.12q-.07-81.56,0-163.13a38.61,38.61,0,0,1,1-8c.6-2.8,2.69-4.14,5.48-4.21s5.12,1,5.66,3.88a58,58,0,0,1,1.07,10.67c.09,26.29.05,52.58.05,78.87ZM398.4,376.8c.4-1.33,1.16-2.65,1.16-4q.09-83.54.05-167.07c0-1-.06-2-.13-3a5.47,5.47,0,0,0-.37-1.08l-1.35,2.63c-3.87-1.34,1-6.28-3.67-7.35-1.29,1.82-3.27,3.61-3.94,5.81-1.23,4-.91,8.31-.89,12.59.21,50.39.12,100.78.16,151.18a100.71,100.71,0,0,0,.64,10.25c.35,3.36,2.66,4.43,5.79,3a8.67,8.67,0,0,1,2.43-.28c0-.73.08-1.71.13-2.68Z"/><path class="cls-8" d="M658.88,289.23q0,40.18,0,80.36a47,47,0,0,1-.63,8c-.62,3.56-2.64,5.14-5.94,5.14-3.46,0-5.16-1.38-5.85-5.12a38.23,38.23,0,0,1-.71-6.83q-.06-81,0-161.92a45,45,0,0,1,1.15-9.15c.65-3,3.12-4.09,5.93-4a5.31,5.31,0,0,1,5.28,4.49,24.6,24.6,0,0,1,.67,5.32q.06,41.84,0,83.66Z"/><path class="cls-9" d="M398.41,376.8c-.05,1-.09,1.95-.13,2.68a8.67,8.67,0,0,0-2.43.28c-3.13,1.46-5.44.39-5.79-3a100.71,100.71,0,0,1-.64-10.25c0-50.4.05-100.79-.16-151.18,0-4.28-.34-8.55.89-12.59.67-2.2,2.65-4,3.94-5.81,4.67,1.07-.2,6,3.67,7.35l1.35-2.63a5.47,5.47,0,0,1,.37,1.08c.07,1,.13,2,.13,3q0,83.53-.05,167.07c0,1.33-.76,2.65-1.16,4L397,374.62l-.79.8Zm-4.57-6.18h.59V211.38h-.59Zm4.68-160.7c-.58-.4-1-.87-1.29-.85s-.67.54-1,.84c.37.35.7.85,1.14,1C397.56,211,398,210.39,398.52,209.92Z"/><ellipse class="cls-7" cx="394.14" cy="291" rx="0.42" ry="112.6"/><path class="cls-7" d="M398.52,209.92c-.52.47-1,1.07-1.16,1-.44-.16-.77-.66-1.14-1,.34-.3.65-.81,1-.84S397.94,209.52,398.52,209.92Z"/><path class="cls-7" d="M398.41,376.8l-2.18-1.38.79-.8,1.38,2.18Z"/></g></g></svg>