<?xml version="1.0" encoding="UTF-8"?>
<svg width="315px" height="315px" viewBox="0 0 315 315" version="1.1" xmlns="http://www.w3.org/2000/svg" xmlns:xlink="http://www.w3.org/1999/xlink">
    <title>oktus</title>
    <defs>
        <linearGradient x1="-0.000192919636%" y1="50.000236%" x2="99.9992272%" y2="50.000236%" id="linearGradient-1">
            <stop stop-color="#438CCB" offset="0%"></stop>
            <stop stop-color="#0BC2ED" offset="100%"></stop>
        </linearGradient>
    </defs>
    <g id="Page-1" stroke="none" stroke-width="1" fill="none" fill-rule="evenodd">
        <g id="Logo8" transform="translate(-574.000000, -423.000000)" fill="url(#linearGradient-1)" fill-rule="nonzero">
            <g id="oktus" transform="translate(574.000000, 423.000000)">
                <path d="M288.569046,79.2555828 L158.384351,79.2555828 C115.432389,79.2555828 79.8241791,113.502685 79.2656944,156.454393 C79.0752563,169.002849 81.9229763,181.411171 87.5659316,192.620874 C88.0533678,193.615679 87.9933467,194.791521 87.4071479,195.731523 C86.8209491,196.671524 85.791447,197.242789 84.6836373,197.242789 L7.56140266,197.242789 C6.09012098,197.242789 4.807004,196.243088 4.4480113,194.816283 C1.95813469,184.545653 0.506487475,174.050843 0.114940849,163.489974 C-3.30657997,72.0017448 70.0988432,-2.28911109 161.61971,0.0539427723 C214.587462,1.41430727 263.318577,29.3259742 291.290856,74.3255407 C291.919624,75.3158477 291.958059,76.5702892 291.391098,77.5972321 C290.824137,78.6241749 289.742097,79.2600247 288.569046,79.2555828 Z M307.441975,117.771537 L230.31974,117.771537 C229.21193,117.771534 228.182428,118.342801 227.596229,119.282803 C227.010031,120.222804 226.95001,121.398647 227.437446,122.393451 C233.079438,133.603502 235.927103,146.011583 235.737683,158.559932 C235.179198,201.505221 199.570988,235.752323 156.619026,235.752323 L26.4343317,235.752323 C25.2702717,235.763331 24.2034203,236.403752 23.6463563,237.425918 C23.0892923,238.448085 23.1293499,239.691746 23.7510377,240.675946 C51.7216479,285.677242 100.453784,313.589493 153.422183,314.947544 C243.986565,317.27134 318.277861,242.075359 314.888437,151.498674 C314.49689,140.937805 313.045243,130.442995 310.555366,120.172365 C310.191412,118.750658 308.909534,117.758696 307.441975,117.758696 L307.441975,117.771537 Z M157.498479,128.78068 C145.879049,128.78068 135.403863,135.780358 130.957899,146.515497 C126.511936,157.250636 128.970843,169.606912 137.187939,177.822123 C145.405035,186.037334 157.761933,188.493465 168.496142,184.045129 C179.23035,179.596793 186.227728,169.120105 186.225132,157.500743 C186.225132,149.882597 183.198377,142.576563 177.8109,137.190322 C172.423423,131.804081 165.116671,128.778978 157.498479,128.78068 L157.498479,128.78068 Z" id="Shape"></path>
            </g>
        </g>
    </g>
</svg>