<?xml version="1.0" encoding="UTF-8"?>
<svg width="1195px" height="315px" viewBox="0 0 1195 315" version="1.1" xmlns="http://www.w3.org/2000/svg" xmlns:xlink="http://www.w3.org/1999/xlink">
    <title>Group</title>
    <defs>
        <linearGradient x1="-0.000192919636%" y1="50.000236%" x2="99.9992272%" y2="50.000236%" id="linearGradient-1">
            <stop stop-color="#438CCB" offset="0%"></stop>
            <stop stop-color="#0BC2ED" offset="100%"></stop>
        </linearGradient>
    </defs>
    <g id="Page-1" stroke="none" stroke-width="1" fill="none" fill-rule="evenodd">
        <g id="Logo8" transform="translate(-574.000000, -423.000000)" fill-rule="nonzero">
            <g id="Group" transform="translate(574.000000, 423.000000)">
                <path d="M498.3,261.4 C511.1,261.4 522.35,258.95 532.05,254.05 C541.75,249.15 549.3,242.2 554.7,233.2 C560.1,224.2 562.8,213.8 562.8,202 L562.8,202 L562.8,166.9 C562.8,155.1 560.1,144.65 554.7,135.55 C549.3,126.45 541.75,119.4 532.05,114.4 C522.35,109.4 511.2,106.9 498.6,106.9 L498.6,106.9 L471.6,106.9 C459,106.9 447.85,109.4 438.15,114.4 C428.45,119.4 420.9,126.45 415.5,135.55 C410.1,144.65 407.4,155.1 407.4,166.9 L407.4,166.9 L407.4,202 C407.4,213.8 410.05,224.2 415.35,233.2 C420.65,242.2 428.15,249.15 437.85,254.05 C447.55,258.95 458.7,261.4 471.3,261.4 L471.3,261.4 L498.3,261.4 Z M632.4,52 C634.056854,52 635.4,53.3431458 635.4,55 L635.4,55 L635.4,160.88162 C635.4,161.758118 635.783318,162.590779 636.449198,163.160736 C637.70792,164.238134 639.601719,164.091143 640.679117,162.832421 L640.679117,162.832421 L685.601942,110.349198 C686.1719,109.683318 687.004561,109.3 687.881059,109.3 L687.881059,109.3 L727.24562,109.3 C727.977329,109.3 728.683811,109.567418 729.232122,110.051931 C730.473696,111.149045 730.590804,113.044927 729.493689,114.286501 L729.493689,114.286501 L679.243798,171.152927 C678.335604,172.180705 678.24008,173.693531 679.011784,174.827382 L679.011784,174.827382 L733.10936,254.312046 C733.448119,254.809778 733.629277,255.397924 733.629277,256 C733.629277,257.656854 732.286131,259 730.629277,259 L730.629277,259 L691.687892,259 C690.694578,259 689.765663,258.508328 689.207112,257.68693 L689.207112,257.68693 L651.483573,202.211137 C651.339857,201.99979 651.169722,201.807674 650.977302,201.639457 C649.729906,200.548967 647.834675,200.676164 646.744184,201.923559 L646.744184,201.923559 L636.14139,214.051935 C635.663421,214.598676 635.4,215.300234 635.4,216.026443 L635.4,216.026443 L635.4,256 C635.4,257.656854 634.056854,259 632.4,259 L632.4,259 L597.6,259 C595.943146,259 594.6,257.656854 594.6,256 L594.6,256 L594.6,55 C594.6,53.3431458 595.943146,52 597.6,52 L597.6,52 Z M498,142 C505.2,142 511,144.55 515.4,149.65 C519.697674,154.631395 521.896485,161.091536 521.996431,169.030422 L522,169.6 L522,198.7 C522,206.9 519.8,213.55 515.4,218.65 C511,223.75 505.1,226.3 497.7,226.3 L471.9,226.3 C464.9,226.3 459.2,223.75 454.8,218.65 C450.502326,213.668605 448.303515,207.208464 448.203569,199.269578 L448.2,198.7 L448.2,169.6 C448.2,161.4 450.4,154.75 454.8,149.65 C459.102222,144.663333 464.742914,142.114593 471.722074,142.003778 L472.2,142 L498,142 Z M960.210635,226 C965.610635,226 969.960635,223.95 973.260635,219.85 C976.560635,215.75 978.210635,210.4 978.210635,203.8 L978.210635,112.3 C978.210635,110.643146 979.55378,109.3 981.210635,109.3 L1016.01063,109.3 C1017.66749,109.3 1019.01063,110.643146 1019.01063,112.3 L1019.01063,203.2 C1019.01063,220.6 1014.21063,234.65 1004.61063,245.35 C995.010635,256.05 982.310635,261.4 966.510635,261.4 L929,261.4 C913.2,261.4 900.5,256.05 890.9,245.35 C881.3,234.65 876.5,220.6 876.5,203.2 L876.5,203.2 L876.5,112.3 C876.5,110.643146 877.843146,109.3 879.5,109.3 L879.5,109.3 L914.3,109.3 C915.956854,109.3 917.3,110.643146 917.3,112.3 L917.3,112.3 L917.3,203.8 C917.3,210.4 918.95,215.75 922.25,219.85 C925.55,223.95 929.9,226 935.3,226 L935.3,226 L960.210635,226 Z M801.3,54 C802.956854,54 804.3,55.3431458 804.3,57 L804.3,57 L804.3,106.3 C804.3,107.956854 805.643146,109.3 807.3,109.3 L807.3,109.3 L840.3,109.3 C841.956854,109.3 843.3,110.643146 843.3,112.3 L843.3,112.3 L843.3,141.1 C843.3,142.756854 841.956854,144.1 840.3,144.1 L840.3,144.1 L807.3,144.1 C805.643146,144.1 804.3,145.443146 804.3,147.1 L804.3,147.1 L804.3,209 C804.3,214.6 805.35,218.7 807.45,221.3 C809.55,223.9 812.9,225.2 817.5,225.2 L817.5,225.2 L840.3,225.2 C841.956854,225.2 843.3,226.543146 843.3,228.2 L843.3,228.2 L843.3,257 C843.3,258.656854 841.956854,260 840.3,260 L840.3,260 L814.5,260 C796.9,260 784,256 775.8,248 C767.6,240 763.5,227.6 763.5,210.8 L763.5,210.8 L763.5,57 C763.5,55.3431458 764.843146,54 766.5,54 L766.5,54 Z M1135.8,261.4 C1153.6,261.4 1167.85,257.6 1178.55,250 C1189.25,242.4 1194.6,232.1 1194.6,219.1 L1194.6,208.3 C1194.6,200.1 1191.1,192.75 1184.1,186.25 C1177.1,179.75 1167.9,175.5 1156.5,173.5 L1101.9,163.6 C1098.7,163 1096.25,161.95 1094.55,160.45 C1092.85,158.95 1092,157.1 1092,154.9 L1092,150.1 C1092,144.1 1098.5,141.1 1111.5,141.1 L1134.3,141.1 C1139.1,141.1 1142.95,142.4 1145.85,145 C1148.75,147.6 1150.2,151.1 1150.2,155.5 L1190.4,155.5 C1190.4,140.9 1185.25,129.15 1174.95,120.25 C1164.65,111.35 1151.1,106.9 1134.3,106.9 L1110.9,106.9 C1092.1,106.9 1077.45,110.5 1066.95,117.7 C1056.45,124.9 1051.2,134.9 1051.2,147.7 L1051.2,157.6 C1051.2,166.6 1054.75,174.45 1061.85,181.15 C1068.95,187.85 1078.6,192.2 1090.8,194.2 L1142.7,203.2 C1146.1,203.8 1148.8,204.95 1150.8,206.65 C1152.8,208.35 1153.8,210.2 1153.8,212.2 L1153.8,217.3 C1153.8,223.9 1147.8,227.2 1135.8,227.2 L1108.8,227.2 C1102.8,227.2 1097.95,225.55 1094.25,222.25 C1090.55,218.95 1088.7,214.6 1088.7,209.2 L1048.5,209.2 C1048.5,224.8 1054,237.4 1065,247 C1076,256.6 1090.6,261.4 1108.8,261.4 L1135.8,261.4 Z" id="oktus" fill="#1F2123"></path>
                <g id="oktus" fill="url(#linearGradient-1)">
                    <path d="M288.569046,79.2555828 L158.384351,79.2555828 C115.432389,79.2555828 79.8241791,113.502685 79.2656944,156.454393 C79.0752563,169.002849 81.9229763,181.411171 87.5659316,192.620874 C88.0533678,193.615679 87.9933467,194.791521 87.4071479,195.731523 C86.8209491,196.671524 85.791447,197.242789 84.6836373,197.242789 L7.56140266,197.242789 C6.09012098,197.242789 4.807004,196.243088 4.4480113,194.816283 C1.95813469,184.545653 0.506487475,174.050843 0.114940849,163.489974 C-3.30657997,72.0017448 70.0988432,-2.28911109 161.61971,0.0539427723 C214.587462,1.41430727 263.318577,29.3259742 291.290856,74.3255407 C291.919624,75.3158477 291.958059,76.5702892 291.391098,77.5972321 C290.824137,78.6241749 289.742097,79.2600247 288.569046,79.2555828 Z M307.441975,117.771537 L230.31974,117.771537 C229.21193,117.771534 228.182428,118.342801 227.596229,119.282803 C227.010031,120.222804 226.95001,121.398647 227.437446,122.393451 C233.079438,133.603502 235.927103,146.011583 235.737683,158.559932 C235.179198,201.505221 199.570988,235.752323 156.619026,235.752323 L26.4343317,235.752323 C25.2702717,235.763331 24.2034203,236.403752 23.6463563,237.425918 C23.0892923,238.448085 23.1293499,239.691746 23.7510377,240.675946 C51.7216479,285.677242 100.453784,313.589493 153.422183,314.947544 C243.986565,317.27134 318.277861,242.075359 314.888437,151.498674 C314.49689,140.937805 313.045243,130.442995 310.555366,120.172365 C310.191412,118.750658 308.909534,117.758696 307.441975,117.758696 L307.441975,117.771537 Z M157.498479,128.78068 C145.879049,128.78068 135.403863,135.780358 130.957899,146.515497 C126.511936,157.250636 128.970843,169.606912 137.187939,177.822123 C145.405035,186.037334 157.761933,188.493465 168.496142,184.045129 C179.23035,179.596793 186.227728,169.120105 186.225132,157.500743 C186.225132,149.882597 183.198377,142.576563 177.8109,137.190322 C172.423423,131.804081 165.116671,128.778978 157.498479,128.78068 L157.498479,128.78068 Z" id="Shape"></path>
                </g>
            </g>
        </g>
    </g>
</svg>