<?xml version="1.0" encoding="UTF-8" standalone="no"?>
<svg
   xmlns:dc="http://purl.org/dc/elements/1.1/"
   xmlns:cc="http://creativecommons.org/ns#"
   xmlns:rdf="http://www.w3.org/1999/02/22-rdf-syntax-ns#"
   xmlns:svg="http://www.w3.org/2000/svg"
   xmlns="http://www.w3.org/2000/svg"
   viewBox="0 0 727.46667 278.89334"
   height="278.89334"
   width="727.46667"
   xml:space="preserve"
   id="svg2"
   version="1.1"><metadata
     id="metadata8"><rdf:RDF><cc:Work
         rdf:about=""><dc:format>image/svg+xml</dc:format><dc:type
           rdf:resource="http://purl.org/dc/dcmitype/StillImage" /></cc:Work></rdf:RDF></metadata><defs
     id="defs6" /><g
     transform="matrix(1.3333333,0,0,-1.3333333,0,278.89333)"
     id="g10"><g
       transform="scale(0.1)"
       id="g12"><path
         id="path14"
         style="fill:none;stroke:#040606;stroke-width:40;stroke-linecap:butt;stroke-linejoin:miter;stroke-miterlimit:10;stroke-dasharray:none;stroke-opacity:1"
         d="m 1018.68,2061.48 c -48.297,7.22 -97.809,10.64 -147.145,10.18 C 397.914,2067.22 15.9297,1708.2 20.0313,1271.34 22.4258,1015.04 160.508,746.48 419.313,494.711 612.898,306.391 802.82,194.82 810.813,190.16 l 84.046,-48.988 -37.843,89.617 c -46.715,110.641 -80.266,226.922 -76.61,262.563 14.262,-0.332 28.875,-1.582 44.188,-2.891 19.91,-1.711 40.496,-3.473 61.797,-3.262 228.949,2.141 443.539,86.223 604.259,236.75 161.48,151.242 249.3,351.351 247.31,563.511 -3.63,386.73 -306.12,712.24 -719.28,774.02 z" /><path
         id="path16"
         style="fill:#b7115b;fill-opacity:1;fill-rule:nonzero;stroke:none"
         d="m 965.301,1106.43 c 130.219,0 204.099,84.45 204.099,214.64 0,128.46 -73.88,211.15 -200.568,211.15 H 780.547 v -425.79 z m -415.25,425.79 H 435.695 v 195.32 h 571.835 c 234.02,0 397.66,-163.64 397.66,-406.47 0,-242.8 -163.64,-411.711 -397.66,-411.711 H 780.547 V 694.43 H 550.051 v 837.79" /><path
         id="path18"
         style="fill:none;stroke:#b7115b;stroke-width:40;stroke-linecap:butt;stroke-linejoin:miter;stroke-miterlimit:10;stroke-dasharray:none;stroke-opacity:1"
         d="m 965.301,1106.43 c 130.219,0 204.099,84.45 204.099,214.64 0,128.46 -73.88,211.15 -200.568,211.15 H 780.547 v -425.79 z m -415.25,425.79 H 435.695 v 195.32 h 571.835 c 234.02,0 397.66,-163.64 397.66,-406.47 0,-242.8 -163.64,-411.711 -397.66,-411.711 H 780.547 V 694.43 H 550.051 Z" /><g
         transform="scale(10)"
         id="g20"><text
           id="text24"
           style="font-variant:normal;font-weight:normal;font-size:85.80660248px;font-family:Helvetica;-inkscape-font-specification:Helvetica;writing-mode:lr-tb;fill:#040606;fill-opacity:1;fill-rule:nonzero;stroke:none"
           transform="matrix(1,0,0,-1,187.959,88.952)"><tspan
             id="tspan22"
             y="0"
             x="0 57.232391 119.1987 176.43109 243.17432 300.40668">PREGAS</tspan></text>
</g></g></g></svg>