<svg xmlns="http://www.w3.org/2000/svg" viewBox="0 0 674.17 421.65"><defs><style>.cls-1{fill:#a29366;}.cls-2{fill:#c02334;}</style></defs><g id="Ebene_2" data-name="Ebene 2"><g id="Ebene_1-2" data-name="Ebene 1"><g id="Ebene_2-2" data-name="Ebene 2"><g id="Ebene_1-2-2" data-name="Ebene 1-2"><path class="cls-1" d="M135.08,317.13c0-12,.1-24-.08-36,0-3,.58-4.25,3.8-4a110.09,110.09,0,0,0,11.49,0c2.67-.08,3.46,1,3.36,3.6-.28,8.15-.28,16.3-.62,24.45-.12,3,.66,4.25,3.85,4a106.21,106.21,0,0,1,11,0c2.64.1,3.47-1,3.43-3.53-.14-8-.13-16-.19-24,0-4.4-.05-4.43,4.22-4.49,3.66-.05,7.33,0,11-.05,2.56-.07,3.49.93,3.46,3.55q-.44,31.71-.65,63.42c0,3,.41,6,.58,8.95.22,3.63,0,3.88-3.81,4s-7.67-.11-11.49,0c-2.61.1-3.44-.82-3.38-3.44.21-8.66.18-17.32.24-26,0-1.17.28-2.46-.12-3.47s-1.45-2.34-2.27-2.38a131.76,131.76,0,0,0-13.48,0,3.36,3.36,0,0,0-2.21,2.41c-.08,9.15-.15,18.32.23,27.47.22,5.41.59,5.39-5,5.4-3.17,0-6.35-.19-9.49.06s-4-1-3.91-4c.16-12,.07-24,.07-36Z"/><path class="cls-1" d="M532,317.42c0,12-.09,24,.06,36,0,2.9-.93,3.78-3.7,3.67-4.16-.17-8.33-.08-12.5-.06-1.87,0-2.49-.63-2.42-2.69.32-10,.36-20,.6-30,.06-2.33-.49-3.09-3.08-2.83a75.85,75.85,0,0,1-11.48,0c-2.91-.14-3.7,1.09-3.66,3.81.15,9.16.11,18.33.14,27.49,0,4,0,4.06-4.1,4.1s-8,0-12,0c-1.9,0-2.61-.77-2.57-2.71.25-11.15.48-22.29.57-33.44.1-11.49,0-23,0-34.49,0-1.17.06-2.34,0-3.5-.36-5.71-.37-5.71,5.13-5.72,3.17,0,6.35.2,9.5,0,3-.21,3.58,1.05,3.52,3.79-.2,8-.13,16-.12,24,0,4.18.05,4.21,4.07,4.26,3.5,0,7-.09,10.5,0,2.45.09,3.65-.57,3.55-3.33-.29-8.48-.25-17-.61-25.45-.11-2.56.79-3.29,3.06-3.27,4,0,8,.16,12,0,2.94-.15,3.61,1,3.57,3.79-.14,12.16-.06,24.33-.06,36.49Z"/><path class="cls-1" d="M611.14,317.33c-.28,11.15-2.53,21.94-9.78,31.44-10.54,13.79-32.82,12.22-41.92.46-9.33-12-11.38-25.59-9.76-40,1-8.65,3.64-16.75,9.31-23.79,9.33-11.59,32.09-14.65,43.71,1.8C609,296.16,610.88,306.31,611.14,317.33Zm-43.75-.55.72.08a80,80,0,0,0,0,8.48c.61,5.91,1,11.93,4.54,17.07,3.68,5.31,11,5.57,14.69.33a19.16,19.16,0,0,0,3.2-6.69,86.06,86.06,0,0,0,.9-33.08,38.65,38.65,0,0,0-2.44-8.55c-1.58-3.67-4.27-6.3-8.63-6.46s-7.1,2.35-8.91,6a16.16,16.16,0,0,0-1.66,4.65c-.87,6-1.61,12.11-2.41,18.17Z"/><path class="cls-1" d="M212.12,316.8c0-12,.09-24-.07-36,0-2.86.8-3.73,3.62-3.71q20.22.18,40.45,0c2.78,0,3.88.92,3.8,3.77-.29,11.25,1.5,8.78-8.75,9-5.82.1-11.65-.1-17.47-.27-2.4-.08-3.75.43-3.64,3.27.18,4.66.16,9.33,0,14-.09,2.75,1.11,3.4,3.59,3.29,4.49-.21,9-.13,13.48-.29,2.54-.09,3.62.93,3.6,3.5-.09,11.9.79,9.41-9,9.46q-4.5,0-9-.15c-1.91-.06-2.7.78-2.69,2.67,0,5.66.06,11.32,0,17,0,2,.8,2.64,2.68,2.59,7.64-.21,15.29-.22,22.93-.59,4.86-.24,5.39,0,5.42,5,0,7.73,0,7.74-7.54,7.74h-37c-4.5,0-4.48-.06-4.48-4.27V316.86Z"/><path class="cls-1" d="M433.63,357H413.16c-3.93,0-3.94-.1-3.9-4.2.19-20.12.43-40.24.56-60.36,0-4-.32-8-.62-11.93-.18-2.36.7-3.34,3.09-3.33q20.7.06,41.44,0c2.35,0,3.08,1,3.21,3.33.52,9.58.59,9.58-8.81,9.42-5.66-.09-11.32-.12-17-.31-2.59-.09-3.55.89-3.47,3.49.14,4.66.11,9.32,0,14,0,2.43,1,3.19,3.33,3.1,4.49-.17,9-.11,13.48-.31,2.57-.12,3.35.85,3.42,3.44.26,9.65.35,9.65-9.12,9.5-2.66,0-5.32-.1-8-.2-1.95-.07-3.16.51-3.14,2.77.06,5.66.07,11.32,0,17,0,2,.91,2.6,2.73,2.55,7.31-.18,14.64-.07,21.93-.53,6.07-.39,6.44-.4,6.34,5.43-.13,8,1.33,7.19-7.1,7.23h-18Z"/><path class="cls-1" d="M278.88,316.85c0-12,.09-24-.07-36,0-2.89.83-3.74,3.65-3.71q20,.15,40,0c2.87,0,3.59,1.05,3.62,3.81.08,9.14.19,9.14-8.78,9-5.66-.1-11.33-.09-17-.3-2.6-.09-3.54.85-3.46,3.44.14,4.66.11,9.33,0,14,0,2.35.77,3.27,3.2,3.15,4.66-.24,9.33-.17,14-.34,2.08-.07,2.85.62,3,2.83.7,10.32.77,10.26-9.45,10.14-3.42,0-6.85.33-10.27.51-.15,3.3-.31,6.6-.46,9.9v.5c.21,3.6.42,7.19.64,10.79,3.63.13,7.26.37,10.9.35,5.47,0,11-.08,16.41-.41,2.27-.14,2.89.56,3.08,2.67.88,9.89.93,9.88-8.94,9.89h-35.5c-4.58,0-4.58-.06-4.57-4.69V316.85Z"/><path class="cls-2" d="M349.87.81c16.4,1.76,30.71,8.4,43.3,18.76A79.83,79.83,0,0,1,417.4,52.65c8.94,23.17,8.93,46.22-2.14,68.72-11.35,23.08-29.66,38.28-54.39,45-46.07,12.61-93.54-14.68-105-61.07-8.4-34.1,1.8-63.17,28.38-86.09,13-11.23,28.49-17.35,45.67-19ZM338.6,3.71c-43.77-.28-80,35.51-80.64,79-.72,45.5,35.92,82.24,80.54,82.15,46.36-.09,78.95-37.43,80.57-77C421,41.57,384,3.63,338.6,3.71Z"/><path class="cls-1" d="M.14,345.23v-6.5c0-2.17,1.16-2.16,2.59-1.16,1.89,1.36,3.67,2.87,5.56,4.22a22,22,0,0,0,14,4.46c5.15-.23,9.39-3.23,10.4-7.75s-1.28-7.89-4.81-10.13C22.56,325,16.94,322.08,11.47,319,4,314.65-.75,308.57.1,299.57c1-10.21,6.68-17.24,15.88-21.23,8.06-3.5,16.57-3,25-1.27a3.13,3.13,0,0,1,1.92,2.23c.21,3.81.11,7.65.13,11.48,0,2-.69,2.22-2.43,1.34a48.82,48.82,0,0,0-8.2-3.55c-4.31-1.25-8.6-1.06-12.12,2.27-3.17,3-3.14,6.87.4,9.93,2.23,1.94,5,3.27,7.51,4.86,5.18,3.25,10.8,6,15.47,9.85,10.54,8.75,9.94,28.82-4.25,37.8C29.24,359.71,18.52,360,7.35,356.5.16,354.21.14,354.28.14,345.23Z"/><path class="cls-1" d="M82,318.15c1,5.18,1.49,10.52,3,15.53,3.73,12.07,14.61,16.12,25.17,9.44,1.47-.93,3.74-2.33,4.81-1.81,2.11,1.05,3.79,3.16,5.32,5.1.35.45-.34,2.22-1,2.93-14.21,14.78-35.66,10.67-46.18-1.2-8.57-9.67-10.3-21.4-9-33.63,1.25-11.74,5.84-22.14,14.94-30.1,10.65-9.31,23-10.29,36.06-6.9,1.49.38,2.77.86,2.73,2.9-.11,4.49,0,9,0,13.48,0,1.89-.81,1.95-2.1.93a64.79,64.79,0,0,0-5.49-4.29c-7.79-4.9-16.53-2.95-21.73,4.74C84.2,301.69,82.66,307.69,82,318.15Z"/><path class="cls-1" d="M629,317.43v-35c0-4.76,0-4.8,4.43-4.81H669.9c4.16,0,4.27.09,4.23,4.08-.1,9.73,1.49,8.08-8,8.12-5.31,0-10.63-.4-15.93-.76-2.45-.17-3.19.8-3.14,3.15.12,5.33.13,10.66,0,16-.07,2.51.64,3.68,3.36,3.44,4-.36,8-.39,11.92-.76,2.75-.25,3.76.59,3.83,3.51.21,9.66.32,9.65-9.31,9.41s-9.79-.24-9.77,9.46c0,6.83,0,13.65.14,20.48,0,2.29-.61,3.36-3.07,3.27-3.82-.14-7.66-.17-11.49,0-2.78.13-3.7-.83-3.67-3.68C629.06,341.41,629,329.42,629,317.43Z"/><path class="cls-1" d="M347.21,317.57c0-12,.18-24-.12-36-.08-3.31,1.31-4.17,3.93-4.26,3.82-.12,7.66-.15,11.49,0,1.94.05,3.38.55,3.22,3.27-.41,7-.56,14-.6,20.94-.09,12.83,0,25.66,0,38.49,0,5-.67,5.09,4.76,4.94,7-.19,13.95-.61,20.94-.87,3.83-.14,3.93-.08,3.9,3.78-.1,10.91,1,9.16-8.81,9.24-11.5.08-23,0-34.5,0-4.3,0-4.21-.07-4.19-4.51.06-11.66,0-23.32,0-35Z"/><path class="cls-1" d="M339.51,197.82H204.11c-1.87,0-2.28-1.41-2-2.74a4.41,4.41,0,0,1,1.94-2.72c.93-.48,2.28-.13,3.45-.13H471.3c2,0,5-1.2,5.34,2.61.14,1.67-.1,3-2.28,2.94-1.66-.06-3.33,0-5,0Z"/><path class="cls-1" d="M339.49,245.9h131c1.33,0,2.77-.27,3.95.15a3.16,3.16,0,0,1,1.64,2.42,3.21,3.21,0,0,1-1.64,2.41c-1,.43-2.28.14-3.45.14H204c-2,0-2.21-1.41-1.86-2.74a3.49,3.49,0,0,1,1.88-2.2,14.11,14.11,0,0,1,4-.12H339.49Z"/><path class="cls-1" d="M318.58,237.91c-.69,0-1.41.23-1.79,0-1.89-1.34-3.74-2.74-5.5-4.24-2.52-2.15-4.87-2.29-7.51-.08-2.12,1.78-4.53,3.22-6.82,4.82.68-2.78,1.05-5.69,2.12-8.31,1.3-3.15.81-5.13-2.13-7-2.55-1.63-4.69-3.91-7-5.9a83.5,83.5,0,0,1,8.95-.18c3.28.28,4.75-1,5.51-4.12a67,67,0,0,1,2.93-7.87c1.09,2.65,2.64,5.21,3.15,8,.62,3.45,2.38,4.27,5.47,4a53.88,53.88,0,0,1,6.48,0,14.76,14.76,0,0,1,2.62.57,18,18,0,0,1-2,2.09,55.72,55.72,0,0,1-5.67,4c-2.56,1.49-2.7,3.27-1.59,5.8S317.57,234.77,318.58,237.91Z"/><path class="cls-1" d="M415.46,231.57a.39.39,0,0,0-.39,0c-1.44,1-2.86,2-4.32,2.87-1.75,1.11-3.53,2.17-5.29,3.24a.37.37,0,0,1-.55-.41c.49-1.86,1-3.71,1.47-5.57a9.27,9.27,0,0,1,.69-1.74c1.81-3.22.45-5.33-2.44-7.11a64.51,64.51,0,0,1-5.63-4.08,1.46,1.46,0,0,1-.47-1.23c.08-.28.74-.54,1.15-.55a76.24,76.24,0,0,1,8,0c2.65.2,3.95-.84,4.53-3.38a62.64,62.64,0,0,1,2.12-6.65,4.59,4.59,0,0,1,.79-1.21.38.38,0,0,1,.52-.07.46.46,0,0,1,.07.07,5,5,0,0,1,.69,1.12c.91,2.49,1.8,5,2.6,7.53a3.24,3.24,0,0,0,3.66,2.57,34.9,34.9,0,0,0,5,.33c.47,0,2.4-.12,3.5-.12a.37.37,0,0,1,.37.37.39.39,0,0,1-.06.21,12.81,12.81,0,0,1-1.43,1.68c-2.18,1.8-2.91,3.08-5.24,4.68-1.63,1.12-2.15,2.2-1.37,4.14,1,2.45,1.69,5,2.46,7.58a11.31,11.31,0,0,1,.32,1.72.39.39,0,0,1-.31.43.47.47,0,0,1-.17,0,8.12,8.12,0,0,1-2-.81c-2.07-1.38-4-2.9-6.09-4.33A24.5,24.5,0,0,0,415.46,231.57Z"/><path class="cls-1" d="M361.42,231.26l-4.93,3.3-5.68,3.83c.48-2.19.91-3.19,1.44-5.38.2-.79.48-1.76.88-3.52.67-2.92.87-4.55-1.81-6.22a69.07,69.07,0,0,1-6.88-5.53,67.72,67.72,0,0,1,9-.75c2.92.12,4.29-1,4.78-3.72a16,16,0,0,1,1.06-3.31c.72-1.76,1.54-3.49,2.31-5.23.67,1.68,1.35,3.37,2,5.06.18.47.21,1,.35,1.46,1.58,5.61,1.58,5.56,7.22,5.67,2.42,0,4.84.34,7.26.52-1.78,1.6-3.5,3.25-5.34,4.77-4.43,3.67-4.41,3.63-2.71,8.88.75,2.32,1.25,4.73,1.86,7.09-2.16-1.35-4.32-2.7-6.47-4.07C364.37,233.23,363,232.31,361.42,231.26Z"/><path class="cls-1" d="M246.23,225.77a14.6,14.6,0,0,0-1.93-1.49c-2.48-2-5-3.82-7.51-5.76a5.17,5.17,0,0,1-.82-1.1,3.56,3.56,0,0,1,1.22-.47h9c2.64,0,3.3-.8,3.87-2.88.75-2.71,1.69-5.38,2.65-8a7,7,0,0,1,.69-1.5c.2.41.54,1.05.69,1.48,1,2.82,2.09,5.6,2.86,8.48a2.79,2.79,0,0,0,3.12,2.42h11.12c-.34.5-1.29,1.2-2.17,2.09a53.4,53.4,0,0,0-5.8,4.7c-2.43,1.45-2.5,3.06-1.48,5.39a51.22,51.22,0,0,1,2.14,6.63,5.29,5.29,0,0,1-.2,1.9,6.52,6.52,0,0,1-1.78-.58c-1.91-1.33-3.8-2.69-5.62-4.13s-3.51-1.56-5.38-.07c-2.21,1.75-4.51,3.39-6.8,5a4,4,0,0,1-1.35.39,4.43,4.43,0,0,1,0-1.36c.82-2.7,1.7-5.38,2.56-8.07C245.52,228.11,245.86,226.84,246.23,225.77Z"/><path class="cls-2" d="M481.2,404.84c0-4.33.08-8.66,0-13-.06-2,.44-3.15,2.73-3,3.14.25,6.32.15,9.43.6a7.27,7.27,0,0,1,6.46,6.06c.7,3.33.07,6.62-2.85,8.44-2.67,1.67-2.12,3.17-1.08,5.3,1.3,2.68,2.46,5.44,3.53,8.23a14.14,14.14,0,0,1,.42,3.3c-1.78-.22-4.06,1.23-5-1.69a72.6,72.6,0,0,0-3-7.91c-.9-1.92-.67-5.41-3.91-4.88-3.4.55-1.46,3.77-1.81,5.78a38.55,38.55,0,0,0,0,5.48c0,1.57.44,3.41-2.29,3.4-2.43,0-2.61-1.32-2.58-3.19C481.24,413.48,481.19,409.16,481.2,404.84Zm4.63-7.35c1.18,1.68-1.82,5.43,2.88,5.4,4.05,0,6.47-2,6.47-5.28s-2.21-5.14-6.47-5.24-2.06,3.2-2.88,5.12Z"/><path class="cls-2" d="M64.8,405.36c0,4.32-.11,8.65,0,13,.07,1.91-.37,2.66-2.39,2.65s-2.47-.92-2.33-2.76c.17-2.15.09-4.32.06-6.48-.07-5.26-.36-5.52-5.79-5.35-4,.13-4.07.13-4.14,4.32,0,2.66-.1,5.32,0,8,.08,1.77-.66,2.27-2.32,2.27s-2.25-.85-2.24-2.46c0-9,.06-18,0-26.94,0-1.89.58-2.67,2.55-2.69s2,1.11,2,2.55c0,2.5.08,5-.06,7.48s.87,3.73,3.44,3.53a13,13,0,0,1,2.49,0c2.94.38,4.39-.63,4.07-3.82a46.2,46.2,0,0,1,0-6c0-1.61-1-3.71,2.2-3.83s2.43,1.82,2.43,3.56Z"/><path class="cls-1" d="M456.91,236.92c-5.81-.16-6.89-.95-6.91-4.45,0-1.89.26-3.11,2.43-1.58a15,15,0,0,0,2.12,1.32c2.9,1.44,5.73.92,7.13-1.25,1.52-2.34.65-5.28-2.26-7.25-1.37-.91-2.91-1.57-4.32-2.43-4.6-2.82-5.77-4.91-5-8.75a9.91,9.91,0,0,1,8.44-7.45,16.32,16.32,0,0,1,4.47,0c1.75.26,2.85,3.25,1.81,4.7a1.38,1.38,0,0,1-1.18.41c-.46-.09-.82-.58-1.28-.74-2.27-.8-4.63-1.44-6.26,1-1.32,2,.08,4.56,3.22,6.31,1.17.65,2.41,1.17,3.53,1.87,4.51,2.81,5.84,5.6,5,10.37-.7,4-3.51,6.62-8.19,7.58A18.2,18.2,0,0,1,456.91,236.92Z"/><path class="cls-2" d="M363.74,409.3c-.13-2.82-.06-5.67-.46-8.46-.3-2,.83-2.74,2.09-2,2.13,1.19,3.57.19,5.38-.52,1.12-.45,3.2-.59,3.76.07,1.93,2.28,3.49,1.42,5.6.39,4.61-2.26,8.55-.07,8.83,4.94s.2,10,.06,15a3,3,0,0,1-1.82,2.16c-1.73.51-2.24-.65-2.22-2.27.05-4.16,0-8.32,0-12.49,0-2.36-.35-4.71-3.17-4.6-2.37.1-3.71,2-3.7,4.53,0,4,.1,8,.09,12,0,1.21.55,2.78-1.61,2.93s-2.39-1.16-2.38-2.83c0-3.83.09-7.66,0-11.49-.07-2.06.4-4.66-2.74-5-2.34-.26-4,1.77-4.11,5.21-.13,3.83-.07,7.66.11,11.49.07,1.51.23,2.61-1.78,2.66s-2-1.25-2-2.64v-9Z"/><path class="cls-2" d="M215,412.85c-.68,2.53,1.65,5.87-1.42,7.32-4,1.89-8.65,2.12-12.44-.22a15.44,15.44,0,0,1-5.84-7.06c-1.94-4.89-1.47-10.11.57-15a14.37,14.37,0,0,1,15.53-9.06c.7.09,1.59,1.39,1.76,2.26.31,1.53-.6,1.76-2.12,1.58-6.38-.78-9.14,1.11-11,7.1-1.37,4.45-1.6,8.93.57,13.07a11.17,11.17,0,0,0,4.73,4.7c3.35,1.56,5.23,0,5.32-3.72a37,37,0,0,0-.07-5.47c-.23-1.75.22-2.46,2-2.44,1.5,0,2.58.19,2.42,2.14C214.93,409.66,215,411.33,215,412.85Z"/><path class="cls-2" d="M600.31,410.34c.9-2.91,1.44-5.69,2.6-8.19,1.72-3.68,5.49-5.17,8.62-3.86,2.56,1.07,5.4,6.53,4.65,9.24a2.94,2.94,0,0,1-1.62,1.44c-1.66.72-3.42,1.21-5.07,1.93-1.46.63-4.06.17-3.4,3.1a4.71,4.71,0,0,0,5.48,3.79l.08,0c.79-.18,1.46-.82,2.25-1a7.81,7.81,0,0,1,2.16,0c-.21.84-.16,1.93-.67,2.49-3,3.31-9.94,2.84-12.24-1.05C601.77,415.9,601.25,413.05,600.31,410.34Zm5.83-1.69c3.27-.15,6.57-2.31,6-3.75a6.85,6.85,0,0,0-3.22-3.63c-1.56-.6-3.79,2.79-3.72,5.51C605.19,407.48,605.87,408.17,606.14,408.65Z"/><path class="cls-2" d="M88.83,410a22.33,22.33,0,0,1-1.91,7.58c-1.25,2.89-3.87,4-6.9,3.88a7,7,0,0,1-6.76-4.88,18.57,18.57,0,0,1,0-13.6c1.16-3,3.4-4.94,6.75-5s5.89,1.16,7.06,4.38A24.22,24.22,0,0,1,88.83,410Zm-4-.15c-.39-2.06-.46-4.14-1.23-5.92-.5-1.18-2.13-2.82-3-2.68-1.3.2-3.29,1.72-3.39,2.83a58.7,58.7,0,0,0,.11,11.78c.1.94,2,2.21,3.23,2.34.93.1,2.53-1.14,2.93-2.14a34.6,34.6,0,0,0,1.37-6.21Z"/><path class="cls-2" d="M109.59,409.29a65.78,65.78,0,0,1,3.25-8.21,6.22,6.22,0,0,1,6.82-3.08c3,.49,4.37,2.74,5.18,5.42a2.13,2.13,0,0,0,.1.49c1,4.42.85,4.59-3.57,6.09a23.16,23.16,0,0,0-2.83,1c-1.41.68-4.21.18-3.25,3.13.78,2.38,2.43,4,5.2,3.75a4.47,4.47,0,0,0,1.83-.68c1.13-.68,2.47-1.87,3.17,0,.24.67-1,2.26-1.91,2.93-4.14,3-10.52,1-12.37-3.86A53.91,53.91,0,0,1,109.59,409.29Zm12-5.21c-.76-.72-1.8-2.37-3.25-2.92-1.75-.66-4,2.88-3.84,5.94a2,2,0,0,0,1.23,1.49c2.39.14,5.84-2.09,5.88-4.51Z"/><path class="cls-2" d="M523.24,409.49c-.61,2.65-1.36,5.27-2.23,7.85-1.15,3-3.74,4.16-6.77,4.11a7.06,7.06,0,0,1-6.68-4.38,18.33,18.33,0,0,1-.19-15c.81-2,4.26-3.38,6.77-4.05,2.77-.74,5.31,1,6.53,3.54A59.62,59.62,0,0,1,523.24,409.49Zm-13.12.18a35.53,35.53,0,0,0,1.22,6.31,4,4,0,0,0,2.85,2.26,3.82,3.82,0,0,0,3-1.9,17.64,17.64,0,0,0,.08-13,3.89,3.89,0,0,0-2.95-2.08,4,4,0,0,0-2.94,2.16A35,35,0,0,0,510.12,409.67Z"/><path class="cls-2" d="M311.23,409.77c-.65,2.46-1.12,4.72-1.85,6.9-1.07,3.24-3.48,4.69-6.84,4.74a6.89,6.89,0,0,1-7-4.56,18.6,18.6,0,0,1-.07-14.1,7.26,7.26,0,0,1,7-4.81,6.82,6.82,0,0,1,6.91,4.73C310.13,405,310.61,407.42,311.23,409.77Zm-4.29.5c-.43-2.27-.53-4.5-1.32-6.46-.47-1.16-2-2.6-3.08-2.6a4.46,4.46,0,0,0-3.22,2.52,18.06,18.06,0,0,0,0,12.22c.36,1,1.9,2.43,2.77,2.34a4.87,4.87,0,0,0,3.32-2.36C306.31,414.22,306.48,412.15,306.94,410.27Z"/><path class="cls-2" d="M236.73,412c0,2.8.84,6-.32,8.22-.66,1.22-4.63.56-7.07,1-3,.51-5.67.31-7.42-2.54a6.55,6.55,0,0,1,1.18-8.23c1.75-1.6,4.21-2.41,6.29-3.68a25.09,25.09,0,0,0,2.72-2.22,19.72,19.72,0,0,0-3.2-3.32c-.63-.43-1.89.2-2.86.14a10.73,10.73,0,0,1-2.24-.6c.48-.9.75-2.33,1.47-2.6,4.75-1.81,10.42,1.79,10.95,6.93.23,2.29,0,4.62,0,6.93Zm-4,1.44c-.06-4.41-1-5-4.26-3a7.52,7.52,0,0,0-2.65,2.78c-1,2-.71,3.84,1.58,4.9a4.12,4.12,0,0,0,5.16-2.33,9.25,9.25,0,0,0,.18-2.35Z"/><path class="cls-2" d="M406.61,410.93c1.08-4.47,1-8.62,4.48-11.37,2.59-2.05,5.46-2.23,7.8-.58,2.11,1.48,4.14,6.86,3.19,8.93-.27.6-1.16,1-1.86,1.32-1.52.64-3.13,1.07-4.64,1.72s-4,.33-3.37,3.19a5,5,0,0,0,5.67,3.67c.47-.09.9-.44,1.37-.53,1-.2,2-.31,3.06-.45-.52,1-.81,2.31-1.61,3-3.26,2.81-9.62,1.75-11.61-2A48.07,48.07,0,0,1,406.61,410.93Zm9.58-9.87c-2.88-.06-4.78,2.75-4.81,6a2.68,2.68,0,0,0,1,1.52c2.14-1,4.21-2.14,6.29-3.24-.88-1.55-1.8-3.11-2.48-4.28Z"/><path class="cls-2" d="M317.86,409.57c0-2.83.08-5.66,0-8.49-.08-2.09.75-2.6,2.71-2.21a6.93,6.93,0,0,0,3.56-.06c4.73-1.66,7.86-.52,8.46,4.23.69,5.41.36,11,.3,16.44,0,.51-1.44,1.54-1.93,1.39-.79-.25-1.87-1.24-1.91-2-.19-3.32,0-6.66,0-10,0-1.17.34-2.5-.11-3.46-.69-1.49-1.66-3.3-3-3.91-1.63-.75-3.72,1.65-3.79,4.16-.12,4.16,0,8.33-.06,12.49,0,1.3.22,2.69-1.85,2.79-2.35.11-2.23-1.37-2.22-2.92v-8.5Z"/><path class="cls-2" d="M356.55,410.09q-.71,3.39-1.74,6.69c-1.24,3.37-3.91,4.73-7.43,4.57s-5.53-2.07-6.54-5.17a18.89,18.89,0,0,1,.1-13.13c1.27-3.21,3.57-5.17,7.17-5.15S354,400,355,403.25A61.35,61.35,0,0,1,356.55,410.09Zm-4.32-.32a40.69,40.69,0,0,0-1.47-6.72,4.09,4.09,0,0,0-3.06-1.88,3.56,3.56,0,0,0-2.56,1.87,15.68,15.68,0,0,0-.06,13.16,3,3,0,0,0,5.79,0,39.11,39.11,0,0,0,1.36-6.43Z"/><path class="cls-2" d="M563.08,409.82c1-2.79,1.67-5.91,3.16-8.57a6.16,6.16,0,0,1,8.14-2.8c2.64,1.2,5.35,6.75,4.42,9.34-.21.59-1.1,1-1.78,1.33-1.69.68-3.49,1.1-5.13,1.87-1.28.6-3.85.1-3.24,2.71.56,2.43,2,4.27,4.84,4.17a19.52,19.52,0,0,0,2.8-.82,15.4,15.4,0,0,1,2.45-.08,7.4,7.4,0,0,1-1,2.49c-3.13,3.16-9.87,2.36-12.14-1.68C564.34,415.57,564,412.83,563.08,409.82Zm9.47-8.7c-2.86-.1-4.52,2.38-4.41,5.58,0,.66.8,1.82,1.24,1.83,2.37,0,6-2.4,5.51-3.68A17.59,17.59,0,0,0,572.55,401.12Z"/><path class="cls-2" d="M97,410.36v-4.48a6.1,6.1,0,0,1,0-2c1.16-2.91-5.59-2.2-2.64-4.67,1.9-1.6,2.66-2.63,2.74-4.87,0-.73,1.22-1.42,1.88-2.13.68.7,1.88,1.36,1.94,2.11.18,2.19-.12,4.09,3.11,4.45,1.61.18,1.18,2.65-.16,2.71-3.56.16-2.78,2.49-2.81,4.51,0,2.32-.09,4.65,0,7s-.93,5.34,3.11,5.41c0,.88.21,2.3-.2,2.54a4.6,4.6,0,0,1-6.29-1.67,4.54,4.54,0,0,1-.6-1.93c-.21-2.3,0-4.64,0-7Z"/><path class="cls-2" d="M248.48,421.46c-1.39-.18-2.79,0-3.62-.58s-1.1-2-1.61-3.05a11,11,0,0,1,2.68-.3c1,.14,2,1.16,2.75.94a8.69,8.69,0,0,0,4-2.41c.33-.37-.67-2.42-1.52-3.18-1.35-1.18-3.15-1.83-4.64-2.88-3-2.06-3.82-5.54-2.19-8.26s6.57-4.83,9.12-3.6c.65.31.88,1.51,1.3,2.3-.73.26-1.53.86-2.19.73-2-.39-3.84-.32-4.61,1.78s.86,3.34,2.46,4.32c1,.6,2.09,1,3.06,1.67,2.38,1.54,4,3.58,3.46,6.62s-2.62,4.93-6.18,5.54Z"/><path class="cls-2" d="M268.42,421.35c-2.45-.1-3.54-1.64-3.53-4.21v-12c0-1.61.34-3.19-2.12-3.71-1.65-.35-1.92-2.3-.18-2.77,2.26-.6,2.18-1.89,2.39-3.61.12-1,1-2.53,1.77-2.72,1.75-.43,2.14,1,2,2.53-.12,2,0,3.71,2.69,3.75.4,0,1.18.95,1.1,1.29-.17.65-.81,1.66-1.28,1.67-2.37.08-2.56,1.49-2.52,3.34.07,3.33,0,6.65,0,10,0,1.53,0,3,2,3.46.72.17,1.25,1.11,1.88,1.7a27,27,0,0,1-2.53,1.25A5.2,5.2,0,0,1,268.42,421.35Z"/><path class="cls-2" d="M534,421.41c-1-.13-2.35-.21-3.65-.49-2.3-.51-1.06-2.37-1.28-3.67a7.6,7.6,0,0,1,4.21.85c1.93.59,3.8.43,4.76-1.5s-.34-3.42-2-4.42c-1.29-.75-2.65-1.39-3.87-2.24-3.25-2.24-3.91-4.86-2.16-8.11,1.5-2.8,6.44-5,9-3.72.63.32.91,1.52,1.11,2.37a3.3,3.3,0,0,1-1.7.85c-.79.09-1.73-.46-2.4-.2-1,.38-2.3,1.08-2.58,1.94a3.75,3.75,0,0,0,1.06,3,14.18,14.18,0,0,0,3.31,2.16c4.13,2.42,5.38,4.79,4.39,8.37C541.32,419.57,538.28,421.41,534,421.41Z"/><path class="cls-2" d="M131.91,405V391.52c0-1.41,0-2.6,2-2.63s2.19,1,2.18,2.51v27c0,1.41-.09,2.59-2,2.63-2.41,0-2.08-1.52-2.08-3Q131.92,411.48,131.91,405Z"/><path class="cls-2" d="M550.71,411v-5.47c0-1.82.38-3.61-2.44-4-1.62-.21-1.84-2.4-.36-2.66,2.9-.51,2.66-2.25,2.88-4.28.09-.85,1.16-1.6,1.78-2.39.59.82,1.58,1.6,1.68,2.48.22,2-.11,3.8,2.94,4.12,1.42.15,1.2,2.52-.34,2.71-2.79.33-2.53,2.06-2.53,3.9v9c0,1.86-.05,3.74,2.52,4.12.43.07.77.8,1.15,1.23-.55.47-1,1.23-1.66,1.37-3.59.83-5.4-.51-5.6-4.13C550.63,415,550.71,413,550.71,411Z"/><path class="cls-2" d="M586.36,398c1.87,1.06,3,2.22,4,2.14s2.14-1.53,3.35-1.94c.72-.25,1.73.37,2.61.6-.49.9-.86,2.47-1.48,2.58-4.42.77-4.82,4.07-5,7.49s0,6.64-.16,9.95c0,.75-1.15,1.45-1.77,2.17-.71-.67-2-1.29-2-2-.26-2.63-.07-5.3-.15-8-.1-3.47-.36-6.94-.41-10.41A8.31,8.31,0,0,1,586.36,398Z"/><path class="cls-2" d="M278.75,409V401c0-2.11,1.75-3.52,2.69-2.18,1.7,2.43,2.65,1.22,4,0a2.88,2.88,0,0,1,1.78-.79,9.22,9.22,0,0,1,2.42.92c-.37.76-.65,2.12-1.13,2.19-5.21.8-5.35,4.73-5.48,8.62-.11,3,.09,6-.13,9-.06.75-1.21,1.42-1.86,2.12-.68-.66-1.92-1.28-2-2-.21-3.31-.09-6.63-.09-9.95Z"/><path class="cls-2" d="M622.67,409.74c0-3-.12-6,.08-8.93a3,3,0,0,1,1.71-2.18c1.67-.56,2.34.47,2.33,2.15v17.89c0,1.69-.67,2.36-2.37,2.29s-1.83-.91-1.79-2.27C622.72,415.71,622.66,412.73,622.67,409.74Z"/><path class="cls-2" d="M396.63,409.63c0-2.82-.11-5.65.06-8.46.05-.85.86-1.66,1.33-2.49.76.64,2.16,1.26,2.18,1.92.18,6.31.16,12.62.05,18.92,0,.48-1.3,1.38-1.85,1.28a2.5,2.5,0,0,1-1.66-1.71c-.17-3.15-.07-6.31-.07-9.46Z"/><path class="cls-2" d="M455.63,405.91c-2.27,1.33-3.54,2.64-4.76,2.6-.85,0-2.37-2-2.24-3s1.81-2.36,2.9-2.46S453.62,404.44,455.63,405.91Z"/><path class="cls-2" d="M165.76,409.84c-1.35-1.72-2.81-2.76-2.78-3.75a4,4,0,0,1,2.33-3,2.35,2.35,0,0,1,2.95,1.53,2.37,2.37,0,0,1,.05,1.24C168.2,407,167,408,165.76,409.84Z"/><path class="cls-2" d="M628.3,391.74c-1.51,1.17-2.64,2.7-3.67,2.63s-2.13-1.79-2.39-3c-.13-.58,1.67-2.26,2.5-2.2C625.82,389.28,626.81,390.57,628.3,391.74Z"/><path class="cls-2" d="M402,391.93c-1.58,1.15-2.61,2.47-3.48,2.37s-2.53-1.77-2.37-2.35a4.57,4.57,0,0,1,2.63-2.76C399.34,389,400.51,390.57,402,391.93Z"/><path class="cls-2" d="M518.92,396c-1.26-1.51-2.54-2.43-2.41-3,.21-1,1.34-1.84,2.08-2.75.78.69,2.14,1.35,2.19,2.09C520.84,393.27,519.85,394.29,518.92,396Z"/><path class="cls-2" d="M349.87.81,329.92.26A99.93,99.93,0,0,1,349.87.81Z"/><path class="cls-2" d="M511,396.18c-1.13-1.74-2.24-2.72-2.07-3.34.27-1,1.41-1.7,2.18-2.53.72.74,2,1.46,2,2.22C513.19,393.45,512.14,394.39,511,396.18Z"/><path class="cls-2" d="M375.06,150.85c-7.28,5.35-15.81,7.44-24.45,8.91-16.8,2.85-32.7-.21-47.86-7.89-2.88-1.47-3.64-3.27-3.61-6.24.11-12.83.05-25.65,0-38.48,0-1.33,0-2.66-.12-4,0-.37-.5-.71-.77-1.06-.38.41-1,.8-1.08,1.25a31.43,31.43,0,0,0-.1,4v37a18,18,0,0,1-.57,3.18,19.8,19.8,0,0,1-3-1.55c-17.58-13.28-28-30.68-30.78-52.69-2.24-18.08,1.87-34.64,11.31-50,3.49-5.68,3.54-5.66,8.59-1.36,3.93,3.35,7.77,6.8,11.78,10,2,1.6,3,3.32,2.74,6a52,52,0,0,0,0,7.49c0,.46.73.89,1.12,1.33.4-.45,1.15-.88,1.16-1.35a91.75,91.75,0,0,0,0-11c-.11-1.21-1.53-2.46-2.6-3.41-5-4.41-10-8.78-15.13-13-1.82-1.52-1.92-2.71-.32-4.45,12-13,26.55-21.58,44.06-24.5C351,4.76,373,12.34,392,29.68a44.08,44.08,0,0,1,4.31,4.84c1.69,2.06,1.37,3.35-1.27,4.28-2.18.77-4.5,1.16-6.74,1.78a12.68,12.68,0,0,0-9.8,11.34,84.33,84.33,0,0,0-.19,12c0,.63.73,1.26,1.12,1.9.41-.6,1.14-1.19,1.17-1.81.12-3,0-6,.05-9,.1-7.6,3-11.25,10.39-13,1.92-.47,4.23-.55,5.65-1.7,2.91-2.35,4-.45,5.35,1.54,16.71,24.12,17.22,57.93,1.24,83a73.48,73.48,0,0,1-19.59,21c-2.58,1.81-3,1.61-3-1.51-.06-12.66,0-25.32-.1-38,0-1.41,1.35-3.89-1.81-4.07-.29.53-.83,1.07-.82,1.6q0,22.56.16,45.09l-3.19,2c-.32-6.22-.79-12.39-.24-18.66.43-4.86-.63-9.83-.59-14.74.07-9.35.59-18.69.68-28,.13-13,0-25.93.09-38.9,0-2.54-.68-3.53-3.35-3.45-2.93.09-7.31.71-8.47-.84-1.55-2.08-.62-6-.75-9.16v-.49c-.13-4.41.75-4.68-4.57-4.62-5.52.07-4.71.33-4.8-4.82a9.55,9.55,0,0,1,0-2c1-4.92-1.09-8-5.47-10.08-2.79-1.34-5.37-4.46-8-4.43-2.87.05-5.7,2.82-8.54,4.41a18.44,18.44,0,0,1-2.58,1.5c-2.56.93-3.52,2.6-3.32,5.34.22,3,0,6,0,9-2.28.05-4.57.17-6.85.14-3-.05-3.92,1.08-2.48,3.83v6q-.35,3.06-.7,6.12c-.82.09-1.64.21-2.47.26-3,.14-7.26-.86-8.57.68-1.61,1.89-.91,5.9-.92,9-.05,27.67-.12,55.33.11,83a70.76,70.76,0,0,0,0,7.6c.23,3.16,1.39,3.4,3.95,3.39Q341.07,150.83,375.06,150.85Zm11-56a6.92,6.92,0,0,0,6.88-3.7A6.25,6.25,0,0,0,391.51,83c-1.71-1.44-1.51-2.44-.18-3.9a4.86,4.86,0,0,0,.7-6,6.06,6.06,0,0,0-5.8-3.15A6.61,6.61,0,0,0,380,73.34a5.58,5.58,0,0,0,.6,6.93c1.3,1.45,1.48,2.22-.06,3.53-2.5,2.12-2.59,4.92-1.31,7.68S383,95,386,94.89Zm-97.6-24.91a19.45,19.45,0,0,0-2.41.36c-1.77.43-3.16,1.33-2.49,3.41.06.2,2.09-.06,3.12-.38,3.65-1.15,5.67.22,5.14,3.86a3.39,3.39,0,0,1-3.3,3c-.57,0-1.08,1-1.61,1.47A10.7,10.7,0,0,0,288.57,83c.4.23,1,.08,1.45.23,2.79.94,3.84,3,3,5.84-.66,2.26-3,3.45-5.59,2.73-.93-.26-1.73-1.09-2.66-1.24-.46-.07-1.6,1.1-1.54,1.21a5.67,5.67,0,0,0,1.91,2.47c3.17,1.56,8.42.31,10.49-2.29s1.86-6.08-.65-9.46c-.62-.84-.86-1.17-.2-2.34,3.32-5.79.76-10.15-6.34-10.17ZM400.73,94.87c5.18,0,7.5-1.28,8.93-4.17s1.24-6-1.31-8.13c-1.94-1.63,0-2,.43-2.91,1.63-3.08,1.22-6.31-1.09-8.15s-8.19-2.16-9.9-.42c-.55.56-.45,1.77-.64,2.69a9.62,9.62,0,0,0,2.27-.18c3.57-1.27,5.73-.88,6.26,1.48.68,3-.52,4-3.35,5a7.64,7.64,0,0,0-1.46.92.66.66,0,0,0-.17.93.7.7,0,0,0,.3.24c.32.18.65.34,1.07.56s1.24.39,1.66.6c2.14,1,3.39,2.57,2.84,5.14S404.47,92.2,402,92a20.79,20.79,0,0,1-3.26-1,19.12,19.12,0,0,0-2.12-.35c.19,1.07,0,2.7.63,3.1A11.75,11.75,0,0,0,400.73,94.87ZM276.73,81h0V74c-.08-4-.2-4-3.92-3.14a11.41,11.41,0,0,0-2.37.73c-.51.25-.85.83-1.27,1.26.49.32,1,.94,1.46.9,2.51-.19,2.54,1.36,2.52,3.17q-.09,6,0,12c0,1.87-.16,3.29-2.57,3.18a1.65,1.65,0,0,0-1.22,1.09c0,.44.66,1.27,1.07,1.28q4.47.21,9,.06c.42,0,.95-.77,1.17-1.29.1-.23-.44-1.07-.68-1.06-4.09.1-3.13-2.87-3.18-5.19-.1-2-.06-4-.06-6Z"/><path class="cls-1" d="M315.7,40.86q-.34,3.06-.7,6.12Q315.36,43.92,315.7,40.86Z"/><path class="cls-2" d="M319.41,34.1l1.78-.07,5.82-.24a21.93,21.93,0,0,1,3.4.65c.84.3,1.55,1.43,2.29,1.4,1.71-.06,4.63-.25,4.86-1a12.34,12.34,0,0,0-.2-6.79c-.23-.72-2.9-.74-4.47-.94-1.75-.22-2.17.86-2.41,2.4-.08.53.28,3.89.34,5.16.05.94-2.74-.37-3,0-.46-.94-.19-4.5-.29-5.48-.84-8.68-.8-8.69,8.14-8.71,4.32,0,8.65.11,13,0,1.94,0,2.7.59,2.62,2.55-.11,2.66.12,5.34-.08,8-.18,2.35.69,3.23,2.73,3.06a22.38,22.38,0,0,1,2.32-.09c5,.12,3.9,0,4.24,7.83a36.66,36.66,0,0,1-.08,4.57c-.15,2.16.65,3.12,2.66,3.08s4,.12,6,0c2.95-.25,4.16.66,4,4-.3,8-.38,16.06,0,24.09.14,3.39-1.07,4.24-4.07,4.21-11.15-.12-22.3-.08-33.44-.08-9,0-18-.06-27,.07-3,0-3.79-1-3.34-5a94,94,0,0,0,0-22.24c-.57-4.58.72-5.05,3.69-5.07a87.43,87.43,0,0,0,9.13-.94,24.66,24.66,0,0,0,.91-4C319.23,41,319.28,37.57,319.41,34.1Zm-2.24,34.29c1.93.19,2.77,0,2.54,1.06-.22,2-.34,4.06-.36,6.09.08,2.33.37,2.75,2.74,2.66a40.71,40.71,0,0,0,4.13-.14c.49,0,1.23-.15,1.2-1,.42-8.61,1-8.47-6.92-7.7l-3.74-.15a27.35,27.35,0,0,1-3-.11c-2.71-.35-4.11.58-3.77,3.52.14,1.14-.1,2.34.12,3.45a2.69,2.69,0,0,0,1.29,1.76c3.42,1.36,5.61-.14,5.69-3.76C317.14,72.88,317.15,69.57,317.17,68.39Zm13.38-8.82v1c.12,3.86.44,4,3.78,4.22,3.09.19,3.63-1.49,3.54-4a12.8,12.8,0,0,0-.1-3.44,3.68,3.68,0,0,0-2-2.2C331.78,54.12,330.57,55.23,330.55,59.57Zm17.34-27.75c0-4.53-.06-4.65-3.59-4.7-3.83-.07-4,.13-4.06,4.26-.05,4.55-.05,4.55,3.54,4.6,4,0,4.09-.09,4.11-4.2Zm11,27.75c0-4.29-.17-4.49-3.77-4.49s-3.45.06-3.63,4.64c-.11,2.71.19,4.35,3.56,4.13C358.89,63.57,358.9,63.76,358.9,59.57ZM348.07,74.14c0-5.07,0-4.83-3.63-5.14s-3.4,2-3.39,4.39c0,4.53,0,4.41,3.66,4.64S348.37,76.17,348.07,74.14Zm10.12-1.22c.17-1.94.42-4.19-3.33-3.93s-3.61,0-3.59,4.62c0,4.43,0,4.2,3.81,4.43C359.15,78.28,358.07,75.57,358.19,72.92Zm10.23.16c.09-2,.56-4.33-3.24-4.08s-3.8,0-3.82,4.25c0,4.64,0,4.66,3.43,4.71S368.38,77.92,368.42,73.08Zm-41.23-12.9c.06-5.1,0-4.9-3.43-5.16-3.05-.22-3.6,1.1-3.54,3.78.1,4.85,0,4.66,3.31,5S327.79,62.75,327.19,60.18Zm21-14.54a5.57,5.57,0,0,1,0-1c.4-2.68-.53-3.81-3.44-3.76-2.73,0-4,.88-3.54,3.73a13.2,13.2,0,0,1,0,2.81c-.12,1.65.36,2.4,2.17,2.53,4.41.35,4.78.12,4.82-4.31Zm0,14.46c0-4.91-.17-4.89-3.8-5.11-3.94-.23-3,2.4-3.19,4.59-.17,2.55,0,4.28,3.48,4.28s3.83-1.7,3.54-3.76ZM337.44,46.57c.14-5.23,0-5.47-3.09-5.55-3.62-.09-3.81.3-3.82,5.07,0,2.52.36,4,3.45,4C336.91,50,337.9,48.92,337.44,46.57Zm0,27.62c0-5.08,0-5.08-3.07-5.14-3.56-.07-3.71.2-3.78,4.56,0,2.49-.2,4.46,3.42,4.49s3.75-1.79,3.42-3.92Z"/><path class="cls-2" d="M338.85,103.1c10,0,20,.1,29.95-.07,3,0,4.11.73,4.07,3.89q-.21,19.23,0,38.45c0,2.82-.81,3.75-3.66,3.66-6.32-.21-12.65-.14-19-.07-2.11,0-2.24-.71-2.19-2.72.24-8.15.22-16.31.08-24.47-.09-5.78-4.79-12.36-8.75-12.73-3.32-.3-9.4,6.67-9.73,12-.47,7.79-.41,15.63-.53,23.44-.07,4.46,0,4.47-4.66,4.48-5.49,0-11-.11-16.48.06-2.44.07-3.09-.72-3.07-3.11q.15-19.74,0-39.46c0-2.64.94-3.39,3.49-3.36,10.15.11,20.31,0,30.46,0ZM309,126.23c0,4.5.1,9,0,13.5-.08,2.41.75,3.21,3.16,3.09a102.15,102.15,0,0,1,10.5,0c2.71.14,3.31-1,3.26-3.53-.16-7.33,0-14.67-.06-22,0-7.8-.86-8.61-8.89-8.54a23.87,23.87,0,0,0-3.49.2c-3.71.62-4.39,1.42-4.43,5.26S309,122.23,309,126.23Zm43,.19h0v4q.13,6,.28,11.92l11.8.41c.67,0,1.34,0,2,.06,2.15.25,2.92-.64,2.9-2.82-.09-8.83-.11-17.66,0-26.49,0-2.53-1.14-4-3.28-4.14-3.38-.17-6.8.38-10.2.41s-3.61,2.06-3.54,4.65C352.12,118.42,352,122.42,352,126.42Z"/><path class="cls-2" d="M338.59,83.72h29.47c4.72,0,4.74,0,4.75,4.52,0,3.16-.24,6.34,0,9.48.22,2.86-1.23,3.42-3.54,3.42q-30.72-.06-61.44,0c-2.1,0-3-.6-2.88-2.83.15-3.83.17-7.67,0-11.49-.13-2.51.88-3.07,3.19-3,10.16.1,20.31,0,30.47,0Zm2.29,9.43h-.08a16.68,16.68,0,0,1,0,2c-.2,1.54,0,3.17,1.87,3,3.72-.33,5.07,1.5,5-2.64,0-2.14-.2-4.31-.22-6.37s-1.55-2.81-3.39-2.76-3.17.71-3.17,2.85Zm17-.26h0c0-1-.08-2,0-3,.25-2.69-1.45-3.63-3.62-3.6S351,87.69,351,89.93a41.6,41.6,0,0,1,0,5.47c-.3,2.83,1.44,2.73,3.4,2.76s3.73,0,3.48-2.78a20.63,20.63,0,0,1,0-2.49ZM337,93.5c0-1.63-.07-2.63,0-3.62.19-2.21-.78-3.61-3-3.62a3.32,3.32,0,0,0-3.68,2.9,3.14,3.14,0,0,0,0,.81c0,1.65.05,3.16-.07,5-.22,3.44.43,3.24,4,3.24,3.19,0,2.7-1.12,2.76-3.34A7,7,0,0,0,337,93.5ZM327,93V90c.14-2.49-1.13-3.83-3.5-3.76a3.13,3.13,0,0,0-3.35,2.9,2.66,2.66,0,0,0,0,.63,41.7,41.7,0,0,1,0,5c-.3,2.66.81,3.5,3.38,3.48,2.37,0,3.93-.4,3.49-3.25A14.81,14.81,0,0,1,327,93Zm-17.23-.39h.17a26,26,0,0,0,.06,3.95c.28,1.73,2,1.58,3,1.54,1.23,0,3.39.14,3.47-1.48a33.7,33.7,0,0,0-.08-7.84,2.74,2.74,0,0,0-3.09-2.34h0c-2.45,0-2.54,1.26-3.15,2.35s-.29,2.51-.38,3.82Zm58.45.22V90.36c.1-2.33-.83-4-3.28-4s-4.1,1-3.84,3.91a20.78,20.78,0,0,1,0,4.46c-.4,3.07,1.18,3.47,3.77,3.5s3.68-.81,3.36-3.41a14.55,14.55,0,0,1,0-2Z"/><path class="cls-2" d="M332,17.15c.69-.43,1.38-.86,2.08-1.28,5.56-3.35,7.62-3.15,12.2,1.18L345,18.17Z"/><path class="cls-1" d="M326.76,34l-5.82.24Z"/><path class="cls-2" d="M386.51,92c-2.66.11-4.65-1.54-4.6-3.76a4.23,4.23,0,0,1,3.44-4.34,4.8,4.8,0,0,1,3.71,1.28,4.67,4.67,0,0,1,1,3.13C390.11,90.89,388.53,91.81,386.51,92Z"/><path class="cls-2" d="M388.46,78.25c-.72,1.17-3.27,1.32-4.18.28a5.72,5.72,0,0,1-1.34-2.45c-.55-1.81.73-3.11,2.71-3.2s3.7.86,3.35,3.12A4.88,4.88,0,0,1,388.46,78.25Z"/><path class="cls-2" d="M323.82,126.36v11.48c0,2.07-.75,2.85-2.93,3-9.93.59-9.92.66-9.92-9.27,0-5.66.12-11.31,0-17-.08-2.38,1-3.34,3-3.61a25.76,25.76,0,0,1,4.48-.18c4.67.17,5.33.9,5.34,5.59Q323.81,121.38,323.82,126.36Z"/><path class="cls-2" d="M367,126.44c0,3.83-.07,7.66,0,11.48.06,2.14-.73,2.82-2.88,2.92-10.19.48-10.18.54-10.19-9.6,0-5.32-.07-10.64,0-16,.05-3.78.53-4.19,4.35-4.45h.5c7.61-.33,8.21.22,8.21,7.64v8Z"/></g></g></g></g></svg>