<?xml version="1.0" encoding="UTF-8"?>
<svg width="355px" height="221px" viewBox="0 0 355 221" version="1.1" xmlns="http://www.w3.org/2000/svg" xmlns:xlink="http://www.w3.org/1999/xlink">
    <!-- Generator: Sketch 48.2 (47327) - http://www.bohemiancoding.com/sketch -->
    <title>logo-claim</title>
    <desc>Created with Sketch.</desc>
    <defs>
        <polygon id="path-1" points="0.342 0.274 34.954 0.274 34.954 20.94 0.342 20.94"></polygon>
    </defs>
    <g id="Page-1" stroke="none" stroke-width="1" fill="none" fill-rule="evenodd">
        <g id="logo-claim">
            <path d="M28.315,169.495 L28.315,170.994 L8.591,170.994 L8.591,169.495 L14.243,169.495 L14.243,131.955 C13.129,131.917 12.13,131.905 11.246,131.926 C10.36,131.946 9.543,132.041 8.796,132.214 C8.045,132.388 7.352,132.644 6.717,132.991 C6.085,133.337 5.459,133.819 4.844,134.434 C3.614,135.779 2.815,137.211 2.451,138.73 C2.084,140.248 1.845,141.622 1.729,142.855 L0,142.855 L0.866,130.28 L36.158,130.28 L37.252,142.855 L35.523,142.855 C35.408,141.778 35.197,140.565 34.888,139.22 C34.582,137.875 33.927,136.53 32.928,135.185 C32.313,134.414 31.678,133.808 31.026,133.366 C30.37,132.925 29.64,132.598 28.835,132.388 C28.027,132.177 27.123,132.05 26.124,132.012 C25.122,131.975 23.991,131.955 22.721,131.955 L22.721,169.495 L28.315,169.495" id="Fill-1" fill="#007D96"></path>
            <polyline id="Fill-2" fill="#007D96" points="77.678 131.781 77.678 169.495 82.637 169.495 82.637 170.996 63.894 170.996 63.894 169.495 69.2 169.495 69.2 150.868 54.784 150.868 54.784 169.495 60.205 169.495 60.205 170.996 41.347 170.996 41.347 169.495 46.306 169.495 46.306 131.781 41.347 131.781 41.347 130.283 60.205 130.283 60.205 131.781 54.784 131.781 54.784 149.081 69.2 149.081 69.2 131.781 63.894 131.781 63.894 130.283 82.637 130.283 82.637 131.781 77.678 131.781"></polyline>
            <path d="M102.762,151.157 L102.762,169.496 L109.162,169.496 C110.354,169.459 111.529,169.401 112.68,169.323 C113.835,169.245 114.929,168.939 115.968,168.399 C117.045,167.9 117.937,167.236 118.65,166.411 C119.36,165.585 119.946,164.702 120.408,163.758 C120.87,162.817 121.234,161.856 121.505,160.874 C121.773,159.895 122.022,158.98 122.256,158.135 L123.638,158.135 L122.83,170.995 L89.44,170.995 L89.44,169.496 L94.284,169.496 L94.284,131.782 L89.44,131.782 L89.44,130.281 L121.389,130.281 L122.256,140.662 L120.812,140.662 C120.428,139.354 120.119,138.335 119.888,137.605 C119.66,136.874 119.389,136.222 119.083,135.645 C118.584,134.799 118.024,134.138 117.409,133.656 C116.794,133.174 116.142,132.81 115.449,132.559 C114.759,132.311 114.075,132.155 113.402,132.097 C112.73,132.042 112.086,131.993 111.468,131.953 L102.762,131.953 L102.762,149.428 L104.269,149.428 C105.897,149.391 107.19,149.247 108.157,148.995 C109.127,148.744 109.88,148.343 110.423,147.783 C110.963,147.226 111.332,146.524 111.526,145.679 C111.716,144.833 111.872,143.776 111.988,142.506 L113.547,142.506 L113.547,158.943 L111.988,158.943 C111.91,158.019 111.815,157.098 111.699,156.175 C111.584,155.251 111.292,154.425 110.83,153.695 C110.44,153.118 110.005,152.656 109.522,152.312 C109.04,151.966 108.518,151.715 107.955,151.562 C107.395,151.409 106.803,151.302 106.186,151.244 C105.568,151.186 104.947,151.157 104.329,151.157 L102.762,151.157" id="Fill-3" fill="#007D96"></path>
            <path d="M164.87,157.443 L164.87,155.945 L183.035,155.945 L183.035,157.443 L179.228,157.443 L179.228,164.42 C178.651,165.113 177.94,165.892 177.095,166.755 C176.249,167.621 175.192,168.43 173.922,169.177 C172.655,169.928 171.145,170.563 169.396,171.083 C167.647,171.599 165.562,171.859 163.141,171.859 C162.407,171.859 161.562,171.81 160.603,171.715 C159.639,171.619 158.611,171.4 157.517,171.054 C156.42,170.707 155.295,170.188 154.143,169.495 C152.988,168.805 151.836,167.844 150.682,166.611 C148.8,164.536 147.443,162.163 146.617,159.49 C145.792,156.82 145.376,154.08 145.376,151.272 C145.376,149.926 145.463,148.515 145.636,147.034 C145.809,145.556 146.147,144.064 146.646,142.565 C147.146,141.064 147.859,139.586 148.78,138.126 C149.703,136.665 150.895,135.3 152.356,134.03 C154.007,132.569 155.892,131.426 158.008,130.6 C160.121,129.772 162.523,129.359 165.216,129.359 C166.252,129.359 167.222,129.457 168.126,129.648 C169.029,129.841 169.849,130.072 170.577,130.34 C171.307,130.609 171.951,130.898 172.511,131.204 C173.068,131.512 173.521,131.763 173.864,131.954 L176.517,129.994 L177.787,129.994 L177.787,141.353 L176.171,141.353 C175.787,139.817 175.394,138.452 174.99,137.26 C174.586,136.068 174.038,135.048 173.345,134.203 C172.539,133.242 171.405,132.445 169.944,131.81 C168.484,131.175 166.772,130.857 164.812,130.857 C163.12,130.857 161.746,131.108 160.69,131.608 C159.63,132.11 158.764,132.725 158.095,133.458 C157.419,134.188 156.92,134.95 156.594,135.738 C156.267,136.529 156.025,137.211 155.872,137.788 C155.604,138.712 155.384,139.734 155.211,140.851 C155.038,141.968 154.902,143.094 154.807,144.228 C154.709,145.362 154.642,146.442 154.605,147.461 C154.567,148.483 154.547,149.358 154.547,150.091 C154.547,150.628 154.556,151.361 154.576,152.285 C154.593,153.208 154.634,154.219 154.691,155.316 C154.749,156.416 154.836,157.53 154.951,158.667 C155.067,159.802 155.199,160.849 155.355,161.814 C155.43,162.391 155.583,163.162 155.814,164.123 C156.045,165.087 156.441,166.04 156.998,166.984 C157.555,167.927 158.352,168.744 159.391,169.437 C160.427,170.13 161.793,170.476 163.484,170.476 C164.87,170.476 166.033,170.266 166.974,169.841 C167.915,169.42 168.732,168.822 169.425,168.054 C170.193,167.209 170.646,166.45 170.781,165.777 C170.914,165.104 170.981,164.383 170.981,163.615 L170.981,157.443 L164.87,157.443" id="Fill-4" fill="#007D96"></path>
            <path d="M186.263,130.281 L206.446,130.281 C208.06,130.359 209.647,130.463 211.203,130.599 C212.759,130.735 214.211,131.148 215.556,131.84 C217.173,132.686 218.374,133.823 219.162,135.247 C219.95,136.673 220.345,138.289 220.345,140.096 C220.345,142.059 219.71,143.869 218.44,145.526 C217.173,147.18 215.155,148.297 212.387,148.874 C211.732,149.027 211.059,149.134 210.366,149.192 C209.676,149.25 209.001,149.316 208.348,149.394 C209.041,149.584 209.734,149.766 210.427,149.94 C211.117,150.113 211.789,150.335 212.445,150.604 C213.634,151.14 214.731,151.83 215.73,152.676 C216.46,153.328 217.066,153.992 217.548,154.662 C218.027,155.335 218.391,156.074 218.642,156.882 C218.893,157.687 219.075,158.591 219.191,159.59 C219.306,160.586 219.381,161.74 219.422,163.045 C219.459,163.966 219.508,164.812 219.566,165.579 C219.624,166.347 219.739,166.991 219.912,167.508 C220.085,168.027 220.363,168.429 220.747,168.717 C221.13,169.006 221.65,169.15 222.305,169.15 C222.883,169.15 223.448,169.055 224.006,168.862 C224.563,168.668 225.033,168.478 225.42,168.284 L225.42,169.959 C224.187,170.342 223.036,170.648 221.959,170.879 C220.882,171.11 219.67,171.226 218.325,171.226 C217.519,171.226 216.575,171.102 215.499,170.85 C214.422,170.602 213.386,169.86 212.387,168.631 C211.385,167.438 210.762,166.113 210.51,164.65 C210.262,163.192 210.118,161.864 210.078,160.672 C210.04,159.864 209.994,159.125 209.936,158.452 C209.878,157.78 209.792,156.943 209.676,155.944 C209.561,154.714 209.31,153.715 208.926,152.944 C208.542,152.177 208.048,151.57 207.448,151.129 C206.847,150.687 206.152,150.39 205.361,150.234 C204.564,150.081 203.686,150.003 202.719,150.003 L199.642,150.003 L199.642,169.497 L205.349,169.497 L205.349,170.995 L186.263,170.995 L186.263,169.497 L191.164,169.497 L191.164,131.78 L186.263,131.78 L186.263,130.281 Z M199.642,131.895 L199.642,148.505 L204.567,148.505 C204.991,148.505 205.473,148.485 206.016,148.447 C206.556,148.41 207.104,148.303 207.667,148.127 C208.227,147.953 208.767,147.702 209.289,147.373 C209.809,147.044 210.262,146.568 210.652,145.95 C210.883,145.641 211.114,145.07 211.345,144.236 C211.579,143.404 211.694,141.961 211.694,139.911 C211.694,138.361 211.579,137.074 211.345,136.049 C211.114,135.024 210.727,134.21 210.187,133.61 C209.647,133.009 208.911,132.585 207.985,132.331 C207.058,132.08 205.898,131.936 204.509,131.895 L199.642,131.895 Z" id="Fill-5" fill="#007D96"></path>
            <path d="M248.485,130.281 L262.558,169.497 L266.939,169.497 L266.939,170.995 L248.485,170.995 L248.485,169.497 L253.906,169.497 L250.503,159.979 L237.643,159.979 L235.394,166.324 C235.241,166.749 235.114,167.132 235.019,167.476 C234.924,167.822 234.875,168.151 234.875,168.457 C234.875,168.997 235.085,169.303 235.51,169.381 C235.931,169.459 236.471,169.497 237.123,169.497 L239.949,169.497 L239.949,170.995 L227.263,170.995 L227.263,169.497 L229.8,169.497 C230.415,169.459 230.905,169.39 231.272,169.294 C231.636,169.199 231.942,169.015 232.193,168.746 C232.444,168.478 232.684,168.082 232.915,167.563 C233.146,167.046 233.434,166.344 233.781,165.458 L246.583,130.281 L248.485,130.281 Z M238.163,158.481 L249.926,158.481 L243.988,142.333 L238.163,158.481 Z" id="Fill-6" fill="#007D96"></path>
            <path d="M282.393,130.281 L302.057,156.348 L302.057,134.952 C302.057,134.3 302.037,133.771 301.999,133.367 C301.962,132.963 301.846,132.646 301.653,132.415 C301.459,132.184 301.145,132.022 300.703,131.924 C300.259,131.829 299.635,131.78 298.827,131.78 L297.04,131.78 L297.04,130.281 L308.575,130.281 L308.575,131.78 L306.728,131.78 C306.072,131.742 305.576,131.78 305.229,131.895 C304.883,132.011 304.615,132.241 304.421,132.588 C304.228,132.934 304.104,133.405 304.046,134.002 C303.988,134.597 303.962,135.356 303.962,136.28 L303.962,171.283 L302.577,171.283 L275.993,135.414 L275.993,165.805 C276.028,167.112 276.23,168.036 276.597,168.573 C276.963,169.113 277.702,169.419 278.817,169.497 L281.758,169.497 L281.758,170.995 L269.187,170.995 L269.187,169.497 L271.262,169.497 C272.492,169.419 273.263,169.121 273.569,168.602 C273.878,168.082 274.051,167.19 274.088,165.92 L274.088,135.414 C274.088,134.799 274.068,134.271 274.031,133.829 C273.993,133.388 273.878,133.021 273.684,132.732 C273.491,132.444 273.202,132.233 272.821,132.097 C272.434,131.964 271.897,131.878 271.205,131.837 L269.187,131.78 L269.187,130.281 L282.393,130.281" id="Fill-7" fill="#007D96"></path>
            <path d="M314.743,169.495 L319.472,169.495 L319.472,131.781 L314.743,131.781 L314.743,130.28 L335.215,130.28 C336.177,130.321 337.118,130.367 338.041,130.425 C338.962,130.482 339.895,130.609 340.839,130.8 C341.78,130.993 342.721,131.291 343.665,131.695 C344.606,132.099 345.576,132.644 346.574,133.337 C347.96,134.339 349.132,135.511 350.093,136.856 C351.054,138.201 351.825,139.653 352.4,141.209 C352.977,142.765 353.398,144.39 353.67,146.082 C353.938,147.773 354.071,149.485 354.071,151.214 C354.071,152.6 353.927,154.234 353.638,156.116 C353.352,158.001 352.651,160.039 351.536,162.23 C350.419,164.383 349.198,166.055 347.873,167.247 C346.548,168.439 345.163,169.314 343.722,169.871 C342.279,170.428 340.847,170.754 339.424,170.849 C338.001,170.947 336.656,170.994 335.389,170.994 L314.743,170.994 L314.743,169.495 Z M327.95,131.955 L327.95,169.495 L334.257,169.495 C335.415,169.495 336.514,169.392 337.556,169.178 C338.596,168.967 339.534,168.554 340.362,167.937 C341.191,167.319 341.904,166.493 342.501,165.451 C343.102,164.412 343.552,163.047 343.864,161.352 C344.17,159.62 344.375,157.897 344.47,156.182 C344.565,154.47 344.614,152.747 344.614,151.012 C344.614,149.898 344.594,148.859 344.557,147.895 C344.519,146.933 344.482,146.105 344.441,145.412 C344.326,143.718 344.181,142.312 344.008,141.195 C343.835,140.078 343.659,139.154 343.486,138.424 C343.312,137.69 343.139,137.133 342.966,136.746 C342.793,136.362 342.628,136.036 342.475,135.765 C341.973,134.882 341.422,134.177 340.824,133.658 C340.227,133.138 339.62,132.754 339.003,132.503 C338.385,132.252 337.747,132.099 337.092,132.041 C336.436,131.983 335.798,131.955 335.184,131.955 L327.95,131.955 Z" id="Fill-8" fill="#007D96"></path>
            <path d="M99.935,215.383 L97.92,210.376 L87.145,210.376 L85.132,215.383 L83.117,215.383 L91.45,195.024 L93.615,195.024 L101.951,215.383 L99.935,215.383 Z M92.549,196.884 L87.727,208.79 L97.341,208.79 L92.549,196.884 Z" id="Fill-9" fill="#007D96"></path>
            <path d="M117.882,215.383 L117.882,205.34 C117.882,202.502 116.448,201.709 114.312,201.709 C112.42,201.709 110.466,202.899 109.52,204.241 L109.52,215.383 L107.933,215.383 L107.933,195.024 L109.52,195.024 L109.52,202.869 C110.586,201.585 112.693,200.275 114.829,200.275 C117.82,200.275 119.469,201.679 119.469,205.005 L119.469,215.383 L117.882,215.383" id="Fill-10" fill="#007D96"></path>
            <path d="M127.466,215.383 L127.466,200.639 L129.053,200.639 L129.053,203.175 C130.305,201.527 131.983,200.334 134.027,200.334 L134.027,202.076 C133.754,202.014 133.54,202.014 133.234,202.014 C131.739,202.014 129.726,203.357 129.053,204.638 L129.053,215.383 L127.466,215.383" id="Fill-11" fill="#007D96"></path>
            <path d="M139.37,207.996 C139.37,203.724 142.361,200.274 146.451,200.274 C150.938,200.274 153.412,203.815 153.412,208.087 L153.412,208.516 L141.08,208.516 C141.233,211.719 143.369,214.375 146.848,214.375 C148.711,214.375 150.418,213.673 151.672,212.33 L152.495,213.367 C151.029,214.895 149.166,215.75 146.724,215.75 C142.423,215.75 139.37,212.545 139.37,207.996 M146.422,201.647 C142.94,201.647 141.2,204.7 141.08,207.265 L151.793,207.265 C151.76,204.761 150.115,201.647 146.422,201.647" id="Fill-12" fill="#007D96"></path>
            <path d="M170.503,215.383 L170.503,205.402 C170.503,202.564 169.069,201.709 166.933,201.709 C165.038,201.709 163.087,202.899 162.14,204.241 L162.14,215.383 L160.551,215.383 L160.551,200.639 L162.14,200.639 L162.14,202.869 C163.207,201.585 165.314,200.275 167.45,200.275 C170.441,200.275 172.089,201.738 172.089,205.067 L172.089,215.383 L170.503,215.383" id="Fill-13" fill="#007D96"></path>
            <path d="M178.805,213.399 L179.751,212.239 C180.697,213.429 182.437,214.407 184.511,214.407 C186.985,214.407 188.452,213.123 188.452,211.416 C188.452,207.385 179.14,209.674 179.14,204.364 C179.14,202.105 181.065,200.274 184.391,200.274 C186.924,200.274 188.604,201.25 189.671,202.44 L188.786,203.571 C187.931,202.41 186.345,201.617 184.391,201.617 C182.102,201.617 180.727,202.778 180.727,204.303 C180.727,207.996 190.009,205.736 190.009,211.416 C190.009,213.796 188.175,215.75 184.482,215.75 C182.102,215.75 180.271,215.048 178.805,213.399" id="Fill-14" fill="#007D96"></path>
            <path d="M207.101,215.383 L207.101,205.34 C207.101,202.502 205.664,201.709 203.528,201.709 C201.636,201.709 199.685,202.899 198.736,204.241 L198.736,215.383 L197.149,215.383 L197.149,195.024 L198.736,195.024 L198.736,202.869 C199.806,201.585 201.912,200.275 204.048,200.275 C207.039,200.275 208.688,201.679 208.688,205.005 L208.688,215.383 L207.101,215.383" id="Fill-15" fill="#007D96"></path>
            <path d="M215.86,207.996 C215.86,203.692 218.607,200.274 222.912,200.274 C227.275,200.274 230.022,203.692 230.022,207.996 C230.022,212.301 227.275,215.75 222.912,215.75 C218.607,215.75 215.86,212.301 215.86,207.996 M228.315,207.996 C228.315,204.729 226.39,201.708 222.912,201.708 C219.494,201.708 217.541,204.729 217.541,207.996 C217.541,211.293 219.494,214.313 222.912,214.313 C226.39,214.313 228.315,211.293 228.315,207.996" id="Fill-16" fill="#007D96"></path>
            <g id="Group-20" transform="translate(236.000000, 200.000000)">
                <mask id="mask-2" fill="white">
                    <use xlink:href="#path-1"></use>
                </mask>
                <g id="Clip-18"></g>
                <path d="M0.342,7.996 C0.342,3.692 3.089,0.274 7.393,0.274 C11.757,0.274 14.504,3.692 14.504,7.996 C14.504,12.301 11.757,15.75 7.393,15.75 C3.089,15.75 0.342,12.301 0.342,7.996 M12.797,7.996 C12.797,4.729 10.872,1.708 7.393,1.708 C3.973,1.708 2.019,4.729 2.019,7.996 C2.019,11.293 3.973,14.313 7.393,14.313 C10.872,14.313 12.797,11.293 12.797,7.996" id="Fill-17" fill="#007D96" mask="url(#mask-2)"></path>
                <path d="M23.234,13.002 L23.234,21 L21.647,21 L21.647,0.641 L23.234,0.641 L23.234,2.959 C24.274,1.464 26.163,0.274 28.361,0.274 C32.301,0.274 34.954,3.265 34.954,7.996 C34.954,12.697 32.301,15.75 28.361,15.75 C26.286,15.75 24.424,14.68 23.234,13.002 M33.244,7.996 C33.244,4.426 31.384,1.708 28.088,1.708 C26.043,1.708 24.089,2.93 23.234,4.335 L23.234,11.627 C24.089,13.032 26.043,14.316 28.088,14.316 C31.384,14.316 33.244,11.568 33.244,7.996" id="Fill-19" fill="#007D96" mask="url(#mask-2)"></path>
            </g>
            <path d="M161.946,82.856 C164.008,80.018 167.981,79.389 170.813,81.455 C173.649,83.515 174.274,87.475 172.218,90.314 C170.158,93.152 166.188,93.781 163.353,91.721 C160.515,89.658 159.895,85.692 161.946,82.856" id="Fill-21" fill="#007D96"></path>
            <path d="M167.877,72.316 C169.502,70.086 172.622,69.592 174.855,71.214 C177.091,72.836 177.588,75.965 175.966,78.192 C174.35,80.428 171.212,80.925 168.984,79.3 C166.751,77.669 166.258,74.555 167.877,72.316" id="Fill-22" fill="#007D96"></path>
            <path d="M170.384,63.889 C171.436,62.444 173.461,62.118 174.912,63.172 C176.361,64.227 176.687,66.26 175.629,67.7 C174.58,69.149 172.544,69.475 171.101,68.423 C169.647,67.371 169.327,65.341 170.384,63.889" id="Fill-23" fill="#007D96"></path>
            <path d="M170.651,57.541 C171.374,56.565 172.757,56.342 173.745,57.05 C174.732,57.782 174.949,59.16 174.235,60.15 C173.51,61.146 172.135,61.357 171.144,60.637 C170.151,59.924 169.934,58.537 170.651,57.541" id="Fill-24" fill="#007D96"></path>
            <path d="M170.147,53.276 C170.567,52.7 171.372,52.571 171.948,52.988 C172.527,53.409 172.641,54.208 172.224,54.79 C171.813,55.363 171.008,55.483 170.432,55.077 C169.865,54.651 169.729,53.849 170.147,53.276" id="Fill-25" fill="#007D96"></path>
            <path d="M153.237,57.254 C153.645,56.682 154.456,56.555 155.029,56.972 C155.608,57.393 155.729,58.192 155.311,58.771 C154.894,59.344 154.095,59.467 153.516,59.05 C152.94,58.635 152.817,57.833 153.237,57.254" id="Fill-26" fill="#007D96"></path>
            <path d="M145.441,72.046 C147.192,69.634 146.661,66.264 144.248,64.521 C141.839,62.77 138.469,63.302 136.72,65.714 C134.972,68.123 135.507,71.485 137.91,73.233 C140.326,74.987 143.69,74.452 145.441,72.046" id="Fill-27" fill="#007D96"></path>
            <path d="M151.667,63.336 C153.069,61.417 152.642,58.726 150.718,57.324 C148.799,55.929 146.108,56.358 144.706,58.271 C143.311,60.195 143.74,62.895 145.661,64.294 C147.586,65.69 150.271,65.261 151.667,63.336" id="Fill-28" fill="#007D96"></path>
            <path d="M161.926,57.745 C162.975,56.297 162.654,54.267 161.212,53.209 C159.751,52.151 157.721,52.48 156.669,53.923 C155.617,55.377 155.94,57.402 157.386,58.462 C158.843,59.517 160.865,59.188 161.926,57.745" id="Fill-29" fill="#007D96"></path>
            <path d="M167.864,55.522 C168.587,54.532 168.372,53.157 167.376,52.437 C166.392,51.717 165.008,51.935 164.288,52.925 C163.565,53.912 163.789,55.299 164.776,56.01 C165.766,56.736 167.15,56.521 167.864,55.522" id="Fill-30" fill="#007D96"></path>
            <path d="M207.363,72.009 C205.303,69.179 205.935,65.207 208.77,63.147 C211.609,61.093 215.575,61.716 217.632,64.554 C219.692,67.393 219.06,71.362 216.237,73.419 C213.386,75.479 209.42,74.85 207.363,72.009" id="Fill-31" fill="#007D96"></path>
            <path d="M199.176,63.117 C197.563,60.884 198.056,57.763 200.286,56.138 C202.522,54.516 205.643,55.004 207.273,57.24 C208.881,59.473 208.393,62.602 206.154,64.227 C203.927,65.855 200.806,65.355 199.176,63.117" id="Fill-32" fill="#007D96"></path>
            <path d="M191.936,58.135 C190.881,56.68 191.201,54.65 192.647,53.604 C194.107,52.546 196.131,52.87 197.183,54.312 C198.238,55.77 197.915,57.797 196.469,58.852 C195.012,59.91 192.988,59.586 191.936,58.135" id="Fill-33" fill="#007D96"></path>
            <path d="M185.995,55.915 C185.263,54.925 185.489,53.55 186.476,52.824 C187.47,52.104 188.851,52.324 189.567,53.315 C190.29,54.305 190.07,55.683 189.083,56.397 C188.089,57.12 186.7,56.911 185.995,55.915" id="Fill-34" fill="#007D96"></path>
            <path d="M181.773,55.077 C181.35,54.496 181.485,53.694 182.055,53.276 C182.628,52.862 183.427,52.979 183.851,53.567 C184.268,54.137 184.133,54.936 183.569,55.359 C182.993,55.774 182.188,55.647 181.773,55.077" id="Fill-35" fill="#007D96"></path>
            <path d="M180.328,72.394 C179.905,71.815 180.04,71.007 180.61,70.599 C181.186,70.176 181.985,70.308 182.405,70.887 C182.82,71.457 182.696,72.262 182.126,72.676 C181.541,73.093 180.745,72.97 180.328,72.394" id="Fill-36" fill="#007D96"></path>
            <path d="M191.98,84.372 C190.234,81.963 186.861,81.434 184.452,83.185 C182.049,84.933 181.514,88.298 183.265,90.71 C185.01,93.122 188.38,93.645 190.787,91.9 C193.199,90.149 193.737,86.787 191.98,84.372" id="Fill-37" fill="#007D96"></path>
            <path d="M185.628,75.752 C184.229,73.842 181.543,73.407 179.619,74.815 C177.691,76.207 177.268,78.896 178.664,80.814 C180.06,82.736 182.754,83.162 184.679,81.775 C186.6,80.374 187.029,77.676 185.628,75.752" id="Fill-38" fill="#007D96"></path>
            <path d="M183.475,64.275 C182.426,62.829 180.396,62.512 178.947,63.558 C177.49,64.613 177.17,66.643 178.222,68.089 C179.277,69.546 181.301,69.866 182.753,68.811 C184.207,67.759 184.527,65.732 183.475,64.275" id="Fill-39" fill="#007D96"></path>
            <path d="M183.201,57.939 C182.484,56.952 181.097,56.729 180.11,57.446 C179.129,58.174 178.906,59.552 179.619,60.546 C180.345,61.53 181.723,61.744 182.713,61.03 C183.704,60.31 183.918,58.927 183.201,57.939" id="Fill-40" fill="#007D96"></path>
            <path d="M136.572,42.606 C139.893,43.69 141.729,47.272 140.636,50.598 C139.555,53.942 135.979,55.757 132.641,54.67 C129.309,53.592 127.487,50.013 128.569,46.681 C129.656,43.346 133.235,41.522 136.572,42.606" id="Fill-41" fill="#007D96"></path>
            <path d="M148.423,44.993 C151.049,45.839 152.48,48.657 151.625,51.287 C150.776,53.914 147.952,55.35 145.326,54.492 C142.702,53.649 141.268,50.823 142.114,48.196 C142.975,45.578 145.793,44.141 148.423,44.993" id="Fill-42" fill="#007D96"></path>
            <path d="M157.214,44.77 C158.913,45.31 159.841,47.155 159.292,48.854 C158.739,50.558 156.903,51.498 155.199,50.931 C153.498,50.382 152.572,48.545 153.116,46.847 C153.677,45.14 155.501,44.217 157.214,44.77" id="Fill-43" fill="#007D96"></path>
            <path d="M163.325,43.06 C164.483,43.436 165.121,44.688 164.742,45.855 C164.366,47.018 163.114,47.65 161.953,47.274 C160.796,46.901 160.158,45.649 160.534,44.482 C160.907,43.319 162.156,42.687 163.325,43.06" id="Fill-44" fill="#007D96"></path>
            <path d="M167.234,41.267 C167.901,41.484 168.28,42.213 168.065,42.883 C167.833,43.567 167.119,43.929 166.437,43.703 C165.759,43.494 165.391,42.759 165.612,42.092 C165.826,41.417 166.558,41.04 167.234,41.267" id="Fill-45" fill="#007D96"></path>
            <path d="M158.218,26.41 C158.894,26.63 159.261,27.35 159.043,28.029 C158.823,28.708 158.103,29.075 157.422,28.854 C156.749,28.637 156.384,27.905 156.596,27.232 C156.825,26.56 157.548,26.195 158.218,26.41" id="Fill-46" fill="#007D96"></path>
            <path d="M141.75,23.566 C144.582,24.483 147.617,22.941 148.534,20.108 C149.454,17.27 147.911,14.229 145.076,13.312 C142.246,12.396 139.214,13.941 138.286,16.776 C137.369,19.606 138.917,22.647 141.75,23.566" id="Fill-47" fill="#007D96"></path>
            <path d="M151.957,26.801 C154.217,27.532 156.635,26.292 157.378,24.036 C158.11,21.773 156.873,19.349 154.613,18.618 C152.357,17.886 149.93,19.111 149.189,21.38 C148.455,23.645 149.692,26.069 151.957,26.801" id="Fill-48" fill="#007D96"></path>
            <path d="M160.439,34.822 C162.146,35.371 163.979,34.446 164.523,32.739 C165.084,31.029 164.147,29.201 162.442,28.643 C160.738,28.097 158.914,29.031 158.355,30.732 C157.797,32.436 158.74,34.264 160.439,34.822" id="Fill-49" fill="#007D96"></path>
            <path d="M164.394,39.79 C165.549,40.172 166.803,39.529 167.174,38.365 C167.556,37.21 166.915,35.959 165.757,35.577 C164.591,35.206 163.348,35.838 162.969,37.008 C162.59,38.156 163.225,39.411 164.394,39.79" id="Fill-50" fill="#007D96"></path>
            <path d="M168.13,7.006 C168.13,10.508 165.292,13.346 161.787,13.346 C158.284,13.346 155.437,10.505 155.437,6.997 C155.437,3.494 158.284,0.662 161.787,0.653 C165.295,0.662 168.13,3.494 168.13,7.006" id="Fill-51" fill="#007D96"></path>
            <path d="M169.525,19.01 C169.525,21.769 167.283,24.013 164.524,24.013 C161.773,24.013 159.532,21.769 159.532,19.01 C159.532,16.248 161.773,14.009 164.524,14.009 C167.283,14.009 169.53,16.248 169.525,19.01" id="Fill-52" fill="#007D96"></path>
            <path d="M172.458,27.306 C172.458,29.09 171.009,30.544 169.211,30.544 C167.422,30.544 165.97,29.09 165.967,27.3 C165.97,25.514 167.422,24.056 169.214,24.056 C171.009,24.056 172.458,25.514 172.458,27.306" id="Fill-53" fill="#007D96"></path>
            <path d="M175.965,32.591 C175.965,33.816 174.978,34.803 173.753,34.803 C172.527,34.803 171.534,33.816 171.534,32.591 C171.534,31.366 172.527,30.372 173.753,30.372 C174.978,30.372 175.965,31.366 175.965,32.591" id="Fill-54" fill="#007D96"></path>
            <path d="M178.881,35.753 C178.881,36.461 178.308,37.037 177.594,37.037 C176.889,37.037 176.313,36.461 176.313,35.753 C176.313,35.045 176.892,34.469 177.594,34.469 C178.308,34.469 178.881,35.045 178.881,35.753" id="Fill-55" fill="#007D96"></path>
            <path d="M190.233,22.594 C190.233,23.302 189.651,23.878 188.946,23.878 C188.232,23.878 187.659,23.302 187.659,22.594 C187.659,21.88 188.235,21.304 188.946,21.304 C189.651,21.304 190.233,21.88 190.233,22.594" id="Fill-56" fill="#007D96"></path>
            <path d="M187.838,6.047 C187.838,9.023 190.254,11.438 193.227,11.432 C196.201,11.438 198.622,9.023 198.622,6.047 C198.616,3.067 196.201,0.661 193.227,0.652 C190.254,0.661 187.838,3.067 187.838,6.047" id="Fill-57" fill="#007D96"></path>
            <path d="M187.919,16.745 C187.919,19.125 189.846,21.052 192.22,21.052 C194.597,21.061 196.519,19.125 196.519,16.745 C196.519,14.374 194.597,12.449 192.22,12.449 C189.84,12.449 187.919,14.374 187.919,16.745" id="Fill-58" fill="#007D96"></path>
            <path d="M182.917,27.306 C182.914,29.095 184.371,30.544 186.157,30.544 C187.947,30.544 189.404,29.09 189.404,27.3 C189.404,25.514 187.947,24.056 186.157,24.056 C184.374,24.056 182.914,25.514 182.917,27.306" id="Fill-59" fill="#007D96"></path>
            <path d="M179.408,32.591 C179.408,33.816 180.398,34.803 181.621,34.803 C182.846,34.803 183.836,33.816 183.836,32.591 C183.836,31.366 182.846,30.372 181.621,30.372 C180.398,30.372 179.408,31.366 179.408,32.591" id="Fill-60" fill="#007D96"></path>
            <path d="M211.756,25.213 C208.424,26.288 204.848,24.466 203.761,21.132 C202.685,17.8 204.504,14.221 207.839,13.137 C211.165,12.064 214.753,13.889 215.834,17.212 C216.912,20.55 215.094,24.123 211.756,25.213" id="Fill-61" fill="#007D96"></path>
            <path d="M200.777,30.251 C198.141,31.098 195.323,29.661 194.471,27.037 C193.622,24.404 195.053,21.593 197.686,20.735 C200.304,19.882 203.121,21.325 203.979,23.949 C204.834,26.579 203.389,29.397 200.777,30.251" id="Fill-62" fill="#007D96"></path>
            <path d="M193.786,35.593 C192.085,36.145 190.254,35.214 189.702,33.509 C189.153,31.808 190.081,29.975 191.785,29.417 C193.49,28.867 195.314,29.804 195.872,31.5 C196.422,33.216 195.496,35.037 193.786,35.593" id="Fill-63" fill="#007D96"></path>
            <path d="M189.84,40.566 C188.676,40.945 187.433,40.305 187.057,39.138 C186.672,37.981 187.316,36.732 188.477,36.353 C189.637,35.971 190.889,36.617 191.259,37.772 C191.644,38.933 191.006,40.184 189.84,40.566" id="Fill-64" fill="#007D96"></path>
            <path d="M187.733,44.321 C187.058,44.532 186.341,44.171 186.12,43.495 C185.897,42.811 186.267,42.094 186.943,41.868 C187.619,41.653 188.347,42.017 188.565,42.693 C188.779,43.369 188.409,44.095 187.733,44.321" id="Fill-65" fill="#007D96"></path>
            <path d="M203.76,51.047 C203.093,51.25 202.367,50.886 202.147,50.213 C201.924,49.534 202.294,48.814 202.97,48.591 C203.637,48.374 204.368,48.744 204.583,49.417 C204.8,50.095 204.436,50.821 203.76,51.047" id="Fill-66" fill="#007D96"></path>
            <path d="M218.763,43.658 C215.924,44.581 214.379,47.616 215.298,50.445 C216.224,53.278 219.253,54.823 222.092,53.904 C224.918,52.978 226.464,49.946 225.553,47.116 C224.63,44.29 221.595,42.738 218.763,43.658" id="Fill-67" fill="#007D96"></path>
            <path d="M208.599,47.04 C206.336,47.774 205.105,50.193 205.837,52.461 C206.571,54.715 208.992,55.958 211.264,55.223 C213.52,54.488 214.763,52.058 214.029,49.802 C213.288,47.542 210.867,46.305 208.599,47.04" id="Fill-68" fill="#007D96"></path>
            <path d="M197.018,45.541 C195.314,46.087 194.382,47.927 194.934,49.628 C195.496,51.329 197.317,52.266 199.022,51.711 C200.729,51.162 201.666,49.325 201.117,47.624 C200.555,45.914 198.731,44.986 197.018,45.541" id="Fill-69" fill="#007D96"></path>
            <path d="M190.909,43.839 C189.743,44.218 189.105,45.458 189.487,46.633 C189.863,47.791 191.112,48.428 192.273,48.046 C193.436,47.67 194.068,46.421 193.701,45.261 C193.322,44.097 192.07,43.462 190.909,43.839" id="Fill-70" fill="#007D96"></path>
        </g>
    </g>
</svg>