<svg version="1" xmlns="http://www.w3.org/2000/svg" width="933.333" height="933.333" viewBox="0 0 700.000000 700.000000"><path d="M108.8 30.5c-.2.2-5.2.6-11.3.9-6 .3-12.1.8-13.5 1-1.4.2-5.2.7-8.5 1-8.6.9-12.5 1.5-14.5 2.1-1 .3-2.8.8-4.1 1-7.2 1.4-16.5 5.5-24 10.5-17.2 11.7-27 32.3-30.5 64-.2 2.5-.8 7.9-1.3 12-1 8.1-.8 453.5.2 458.5.3 1.7.8 5.1 1.1 7.7.6 5.5.8 6.4 3.6 18.1 5.7 23.4 12.2 35.3 24.3 44.5 6.3 4.7 10.2 6.8 17.6 9.4 8.8 3 21.4 5.6 37.6 7.8 6.7.9 280.3.6 287.5-.3 2.5-.3 9-.9 14.5-1.2 5.5-.4 10.2-.8 10.5-1 .3-.2 3.7-.6 7.5-.9 3.9-.4 7.7-.9 8.5-1.1.8-.3 3.1-.7 5-.9 41.3-5.6 97.4-25 134.4-46.4 4.9-2.9 9.1-5.2 9.3-5.2.2 0 .9-.5 1.6-1 .7-.6 5-3.6 9.7-6.7 52-34.7 89.5-85.2 109.5-147.3 4.7-14.6 9.9-36.5 12-50.5.9-6.1 1.8-12.1 2.1-13.5 1.2-7.3 1.9-22.8 1.9-41.5 0-21-.7-32-3-49.4-.7-5.3-.9-6.9-2-12.1-.2-1.4-.7-3.9-1-5.5-7.8-46.4-29.2-95-56.6-129-9.3-11.5-17.1-19.6-32.3-34-5.5-5.3-20.3-16.5-31.6-24-21.5-14.3-45.4-26.9-68.5-35.9-6.6-2.6-12.9-5.1-14-5.6-9.7-4.2-47.9-14.4-66-17.6-7.2-1.2-21.9-3.4-26.5-3.9-3-.3-7.1-.7-9-1-1.9-.2-6.9-.7-11-1.1-4.1-.3-9.5-.8-12-1.1-4.7-.4-256.8-1.2-257.2-.8zm241.7 119.9c10.5.3 21.3.8 24 1.1 2.8.3 6.8.7 9.1 1 15.8 1.6 42.7 8.1 61 14.8 57.3 21 95.2 57.3 112.2 107.2 5 14.9 6.6 21.7 9.6 42.5 2.4 16.3 2.4 50 .1 66.8-1.2 9.2-1.8 12.4-3.5 20.2-14.4 65.7-55.1 109.1-123.5 131.9-8.2 2.7-16.2 5.2-17.7 5.5-1.6.3-4 .8-5.5 1.1-1.6.3-4.4 1-6.3 1.5-1.9.5-5.5 1.2-8 1.5-2.4.4-4.7.8-5 1-.3.2-3.4.6-7 1s-6.7.8-7 1c-.4.3-11.4 1.2-24 2.1-2.5.2-52.9.4-112.1.5-117.8.1-112.6.3-116.6-5.7-1.7-2.7-1.8-10.4-1.8-190.4.1-103.1.4-189.8.7-192.7 1-8 3.2-11 9.1-12.2 3.6-.8 182.9-.5 212.2.3z"/></svg>